SplineFontDB: 3.2
FontName: TF2Secondary
FullName: TF2 Secondary
FamilyName: TF2 Secondary
Weight: Book
Copyright: Free for non-comorcial use. Andrea Wicklund/Valve corporation \n Extended by: Jakadak
Version: 2.0
ItalicAngle: 0
UnderlinePosition: -100
UnderlineWidth: 50
Ascent: 750
Descent: 250
InvalidEm: 0
sfntRevision: 0x00020000
LayerCount: 2
Layer: 0 1 "Back" 1
Layer: 1 1 "Fore" 0
XUID: [1021 400 1947487990 15137]
StyleMap: 0x0040
FSType: 0
OS2Version: 3
OS2_WeightWidthSlopeOnly: 0
OS2_UseTypoMetrics: 0
CreationTime: 1263062752
ModificationTime: 1719221481
PfmFamily: 17
TTFWeight: 400
TTFWidth: 5
LineGap: 0
VLineGap: 0
Panose: 2 0 0 0 0 0 0 0 0 0
OS2TypoAscent: 750
OS2TypoAOffset: 0
OS2TypoDescent: -250
OS2TypoDOffset: 0
OS2TypoLinegap: 0
OS2WinAscent: 881
OS2WinAOffset: 0
OS2WinDescent: 238
OS2WinDOffset: 0
HheadAscent: 750
HheadAOffset: 0
HheadDescent: -250
HheadDOffset: 0
OS2SubXSize: 700
OS2SubYSize: 650
OS2SubXOff: 0
OS2SubYOff: 140
OS2SupXSize: 700
OS2SupYSize: 650
OS2SupXOff: 0
OS2SupYOff: 477
OS2StrikeYSize: 50
OS2StrikeYPos: 250
OS2CapHeight: 700
OS2XHeight: 376
OS2Vendor: 'PYRS'
OS2CodePages: 00000001.00000000
OS2UnicodeRanges: 80000027.0000004a.00000000.00000000
Lookup: 258 0 0 "'kern' Horizontal Kerning in Latin lookup 0" { "'kern' Horizontal Kerning in Latin lookup 0 subtable"  } ['kern' ('latn' <'dflt' > ) ]
Lookup: 258 0 0 "TF2Secondary-'kern' Horizontal Kerning in Latin lookup 0" { "TF2Secondary-'kern' Horizontal Kerning in Latin lookup 0 subtable"  } ['kern' ('latn' <'dflt' > ) ]
MarkAttachClasses: 1
DEI: 91125
TtTable: prep
PUSHW_1
 20
CALL
PUSHW_1
 10
CALL
PUSHW_1
 0
CALL
EndTTInstrs
TtTable: fpgm
PUSHW_1
 0
FDEF
MPPEM
PUSHW_1
 9
LT
IF
PUSHB_2
 1
 1
INSTCTRL
EIF
PUSHW_1
 511
SCANCTRL
PUSHW_1
 68
SCVTCI
PUSHW_2
 9
 3
SDS
SDB
ENDF
PUSHW_1
 1
FDEF
DUP
DUP
RCVT
ROUND[Black]
WCVTP
PUSHB_1
 1
ADD
ENDF
PUSHW_1
 2
FDEF
PUSHW_1
 1
LOOPCALL
POP
ENDF
PUSHW_1
 3
FDEF
DUP
GC[cur]
PUSHB_1
 3
CINDEX
GC[cur]
GT
IF
SWAP
EIF
DUP
ROLL
DUP
ROLL
MD[grid]
ABS

StartChar: exclam
Encoding: 33 33 4
Width: 201
GlyphClass: 2
Flags: W
LayerCount: 2
Fore
SplineSet
83 176 m 1,0,-1
 40 184 l 1,1,-1
 67 732 l 1,2,-1
 155 721 l 1,3,-1
 83 176 l 1,0,-1
57 113 m 256,4,5
 74 116 74 116 88 104.5 c 128,-1,6
 102 93 102 93 104 73 c 0,7,8
 108 53 108 53 99 37 c 128,-1,9
 90 21 90 21 73 17 c 256,10,11
 56 13 56 13 43 24.5 c 128,-1,12
 30 36 30 36 25 56 c 0,13,14
 23 77 23 77 31.5 93.5 c 128,-1,15
 40 110 40 110 57 113 c 256,4,5
EndSplineSet
Validated: 33
EndChar

StartChar: quotedbl
Encoding: 34 34 5
Width: 224
GlyphClass: 2
Flags: W
LayerCount: 2
Fore
SplineSet
4 679 m 1,0,-1
 79 683 l 1,1,-1
 79 496 l 1,2,-1
 39 496 l 1,3,-1
 4 679 l 1,0,-1
169 683 m 1,4,-1
 149 531 l 1,5,-1
 109 531 l 1,6,-1
 97 701 l 1,7,-1
 169 683 l 1,4,-1
EndSplineSet
Validated: 1
EndChar

StartChar: numbersign
Encoding: 35 35 6
Width: 400
GlyphClass: 2
Flags: W
LayerCount: 2
Fore
SplineSet
352 424 m 1,0,-1
 286 420 l 1,1,-1
 277 360 l 1,2,-1
 336 364 l 1,3,-1
 331 322 l 1,4,-1
 269 322 l 1,5,-1
 249 216 l 1,6,-1
 217 217 l 1,7,-1
 231 320 l 1,8,-1
 139 319 l 1,9,-1
 142 211 l 1,10,-1
 110 208 l 1,11,-1
 103 318 l 1,12,-1
 17 311 l 1,13,-1
 21 358 l 1,14,-1
 101 359 l 1,15,-1
 99 408 l 1,16,-1
 0 401 l 1,17,-1
 0 448 l 1,18,-1
 99 450 l 1,19,-1
 93 551 l 1,20,-1
 135 547 l 1,21,-1
 135 450 l 1,22,-1
 249 452 l 1,23,-1
 260 523 l 1,24,-1
 302 520 l 1,25,-1
 289 453 l 1,26,-1
 358 453 l 1,27,-1
 352 424 l 1,0,-1
237 363 m 1,28,-1
 242 416 l 1,29,-1
 136 409 l 1,30,-1
 138 359 l 1,31,-1
 237 363 l 1,28,-1
EndSplineSet
Validated: 1
EndChar

StartChar: dollar
Encoding: 36 36 7
Width: 273
GlyphClass: 2
Flags: W
LayerCount: 2
Fore
SplineSet
129 385 m 1,0,1
 147 381 147 381 165.5 375.5 c 128,-1,2
 184 370 184 370 200.5 355 c 128,-1,3
 217 340 217 340 226.5 322 c 128,-1,4
 236 304 236 304 235 267 c 1,5,6
 224 221 224 221 191.5 190 c 128,-1,7
 159 159 159 159 121 150 c 1,8,-1
 115 80 l 1,9,-1
 86 77 l 1,10,-1
 89 141 l 1,11,12
 67 137 67 137 41 135 c 0,13,14
 30 134 30 134 21 134 c 1,15,-1
 22 198 l 1,16,17
 33 195 33 195 53.5 193 c 128,-1,18
 74 191 74 191 90 194 c 1,19,-1
 87 358 l 1,20,21
 72 364 72 364 57 370 c 128,-1,22
 42 376 42 376 30 385 c 128,-1,23
 18 394 18 394 11 403.5 c 128,-1,24
 4 413 4 413 4 425 c 0,25,26
 0 462 0 462 20 495 c 128,-1,27
 40 528 40 528 86 548 c 1,28,-1
 86 626 l 1,29,-1
 140 626 l 1,30,-1
 137 562 l 1,31,32
 143 563 143 563 153 564.5 c 128,-1,33
 163 566 163 566 172 567 c 2,34,-1
 194 567 l 1,35,-1
 190 518 l 1,36,37
 179 518 179 518 162 518 c 0,38,39
 142 515 142 515 137 514 c 1,40,-1
 129 385 l 1,0,1
54 432 m 0,41,42
 54 424 54 424 63 413.5 c 128,-1,43
 72 403 72 403 87 398 c 1,44,-1
 86 497 l 1,45,46
 73 486 73 486 63.5 470.5 c 128,-1,47
 54 455 54 455 54 432 c 0,41,42
183 273 m 0,48,49
 185 300 185 300 168.5 318 c 128,-1,50
 152 336 152 336 128 341 c 1,51,-1
 122 201 l 1,52,53
 152 212 152 212 161 224 c 128,-1,54
 170 236 170 236 175.5 246 c 128,-1,55
 181 256 181 256 183 273 c 0,48,49
EndSplineSet
Validated: 33
EndChar

StartChar: percent
Encoding: 37 37 8
Width: 381
GlyphClass: 2
Flags: W
LayerCount: 2
Fore
SplineSet
280 343 m 0,0,1
 311 343 311 343 325 318 c 128,-1,2
 339 293 339 293 336.5 262.5 c 128,-1,3
 334 232 334 232 315 207 c 128,-1,4
 296 182 296 182 261 182 c 0,5,6
 237 182 237 182 223.5 194 c 128,-1,7
 210 206 210 206 205.5 224 c 128,-1,8
 201 242 201 242 204 263 c 128,-1,9
 207 284 207 284 217.5 302 c 128,-1,10
 228 320 228 320 243.5 331.5 c 128,-1,11
 259 343 259 343 280 343 c 0,0,1
265 218 m 0,12,13
 287 219 287 219 299.5 233.5 c 128,-1,14
 312 248 312 248 314.5 265.5 c 128,-1,15
 317 283 317 283 308.5 296 c 128,-1,16
 300 309 300 309 280 307 c 0,17,18
 260 304 260 304 246.5 289.5 c 128,-1,19
 233 275 233 275 229.5 259.5 c 128,-1,20
 226 244 226 244 234 231 c 128,-1,21
 242 218 242 218 265 218 c 0,12,13
79 416 m 0,22,23
 43 415 43 415 29 432 c 128,-1,24
 15 449 15 449 20.5 469.5 c 128,-1,25
 26 490 26 490 47.5 507.5 c 128,-1,26
 69 525 69 525 103 524 c 0,27,28
 124 524 124 524 134.5 507.5 c 128,-1,29
 145 491 145 491 142.5 471 c 128,-1,30
 140 451 140 451 124.5 434 c 128,-1,31
 109 417 109 417 79 416 c 0,22,23
94 491 m 0,32,33
 80 493 80 493 68.5 487 c 128,-1,34
 57 481 57 481 51.5 472 c 128,-1,35
 46 463 46 463 50 454 c 128,-1,36
 54 445 54 445 72 442 c 0,37,38
 89 439 89 439 99 445.5 c 128,-1,39
 109 452 109 452 112 461.5 c 128,-1,40
 115 471 115 471 110.5 480 c 128,-1,41
 106 489 106 489 94 491 c 0,32,33
306 560 m 1,42,-1
 108 121 l 1,43,-1
 58 139 l 1,44,-1
 277 572 l 1,45,-1
 306 560 l 1,42,-1
EndSplineSet
Validated: 33
EndChar

StartChar: ampersand
Encoding: 38 38 9
Width: 470
GlyphClass: 2
Flags: W
LayerCount: 2
Fore
SplineSet
421 136 m 1,0,-1
 364 65 l 1,1,2
 269 146 269 146 193 229 c 0,3,4
 161 264 161 264 129.5 303 c 128,-1,5
 98 342 98 342 73.5 381.5 c 128,-1,6
 49 421 49 421 33 460 c 128,-1,7
 17 499 17 499 16 535 c 0,8,9
 16 568 16 568 25 585.5 c 128,-1,10
 34 603 34 603 44.5 611 c 128,-1,11
 55 619 55 619 64.5 620 c 128,-1,12
 74 621 74 621 75 621 c 0,13,14
 78 622 78 622 92.5 618.5 c 128,-1,15
 107 615 107 615 126 605 c 128,-1,16
 145 595 145 595 165 578.5 c 128,-1,17
 185 562 185 562 197 537 c 0,18,19
 206 517 206 517 200.5 493.5 c 128,-1,20
 195 470 195 470 181.5 443 c 128,-1,21
 168 416 168 416 149 386 c 128,-1,22
 130 356 130 356 112.5 324 c 128,-1,23
 95 292 95 292 82 258 c 128,-1,24
 69 224 69 224 67 189 c 1,25,26
 70 163 70 163 78.5 146 c 128,-1,27
 87 129 87 129 99 119 c 128,-1,28
 111 109 111 109 127 105 c 128,-1,29
 143 101 143 101 161 101 c 256,30,31
 179 101 179 101 205 111 c 128,-1,32
 231 121 231 121 255.5 146 c 128,-1,33
 280 171 280 171 297.5 214.5 c 128,-1,34
 315 258 315 258 316 325 c 1,35,-1
 244 325 l 1,36,-1
 241 370 l 1,37,-1
 376 365 l 1,38,39
 379 280 379 280 358 213 c 0,40,41
 349 184 349 184 333.5 157 c 128,-1,42
 318 130 318 130 294.5 108.5 c 128,-1,43
 271 87 271 87 238 74.5 c 128,-1,44
 205 62 205 62 160 62 c 256,45,46
 115 62 115 62 84 71.5 c 128,-1,47
 53 81 53 81 34.5 98 c 128,-1,48
 16 115 16 115 8 138.5 c 128,-1,49
 0 162 0 162 0 189 c 0,50,51
 0 207 0 207 12 234 c 128,-1,52
 24 261 24 261 42.5 291.5 c 128,-1,53
 61 322 61 322 82 354 c 128,-1,54
 103 386 103 386 120.5 415 c 128,-1,55
 138 444 138 444 150 466.5 c 128,-1,56
 162 489 162 489 161 502 c 0,57,58
 161 520 161 520 152.5 532 c 128,-1,59
 144 544 144 544 132 550 c 128,-1,60
 120 556 120 556 105 556 c 128,-1,61
 90 556 90 556 76 551 c 1,62,63
 61 512 61 512 80.5 466 c 128,-1,64
 100 420 100 420 138.5 373.5 c 128,-1,65
 177 327 177 327 226 284 c 128,-1,66
 275 241 275 241 318.5 208 c 128,-1,67
 362 175 362 175 391.5 155 c 128,-1,68
 421 135 421 135 421 136 c 1,0,-1
EndSplineSet
Validated: 37
EndChar

StartChar: quotesingle
Encoding: 39 39 10
Width: 134
GlyphClass: 2
Flags: W
LayerCount: 2
Fore
SplineSet
69 541 m 1,0,-1
 25 541 l 1,1,-1
 25 752 l 1,2,-1
 109 749 l 1,3,-1
 69 541 l 1,0,-1
EndSplineSet
Validated: 1
EndChar

StartChar: parenleft
Encoding: 40 40 11
Width: 271
GlyphClass: 2
Flags: W
LayerCount: 2
Fore
SplineSet
224 57 m 1,0,-1
 188 0 l 1,1,2
 162 20 162 20 135 49 c 0,3,4
 112 74 112 74 84.5 112 c 128,-1,5
 57 150 57 150 32 203 c 0,6,7
 14 241 14 241 17.5 291.5 c 128,-1,8
 21 342 21 342 37 396.5 c 128,-1,9
 53 451 53 451 77 504 c 128,-1,10
 101 557 101 557 125 599.5 c 128,-1,11
 149 642 149 642 167.5 669.5 c 128,-1,12
 186 697 186 697 190 700 c 1,13,-1
 217 681 l 1,14,15
 176 619 176 619 145 552 c 0,16,17
 132 523 132 523 119.5 491 c 128,-1,18
 107 459 107 459 98.5 425.5 c 128,-1,19
 90 392 90 392 86 357.5 c 128,-1,20
 82 323 82 323 85 290 c 0,21,22
 90 231 90 231 112.5 187.5 c 128,-1,23
 135 144 135 144 160 115 c 0,24,25
 189 81 189 81 224 57 c 1,0,-1
EndSplineSet
Validated: 33
EndChar

StartChar: parenright
Encoding: 41 41 12
Width: 260
GlyphClass: 2
Flags: W
LayerCount: 2
Fore
SplineSet
0 648 m 1,0,-1
 36 705 l 1,1,2
 62 685 62 685 89 656 c 0,3,4
 112 631 112 631 139 593 c 128,-1,5
 166 555 166 555 192 502 c 0,6,7
 210 464 210 464 206.5 413.5 c 128,-1,8
 203 363 203 363 187 308.5 c 128,-1,9
 171 254 171 254 147 201 c 128,-1,10
 123 148 123 148 99 105.5 c 128,-1,11
 75 63 75 63 56.5 35.5 c 128,-1,12
 38 8 38 8 34 5 c 1,13,-1
 7 24 l 1,14,15
 48 86 48 86 79 153 c 0,16,17
 92 181 92 181 104 213 c 128,-1,18
 116 245 116 245 125 279 c 128,-1,19
 134 313 134 313 138 347.5 c 128,-1,20
 142 382 142 382 139 415 c 0,21,22
 133 473 133 473 111 517 c 128,-1,23
 89 561 89 561 64 590 c 0,24,25
 35 624 35 624 0 648 c 1,0,-1
EndSplineSet
Validated: 33
EndChar

StartChar: asterisk
Encoding: 42 42 13
Width: 320
GlyphClass: 2
Flags: W
LayerCount: 2
Fore
SplineSet
267 518 m 1,0,-1
 222 486 l 1,1,-1
 151 584 l 1,2,-1
 104 486 l 1,3,-1
 88 495 l 1,4,-1
 115 588 l 1,5,-1
 12 550 l 1,6,-1
 3 582 l 1,7,-1
 121 621 l 1,8,-1
 51 710 l 1,9,-1
 71 724 l 1,10,-1
 140 651 l 1,11,-1
 167 751 l 1,12,-1
 209 732 l 1,13,-1
 167 639 l 1,14,-1
 247 664 l 1,15,-1
 257 650 l 1,16,-1
 172 611 l 1,17,-1
 267 518 l 1,0,-1
EndSplineSet
Validated: 1
EndChar

StartChar: plus
Encoding: 43 43 14
Width: 296
GlyphClass: 2
Flags: W
LayerCount: 2
Fore
SplineSet
254 309 m 1,0,-1
 155 311 l 1,1,-1
 151 168 l 1,2,-1
 120 168 l 1,3,-1
 117 311 l 1,4,-1
 0 311 l 1,5,-1
 6 348 l 1,6,-1
 117 348 l 1,7,-1
 115 462 l 1,8,-1
 157 462 l 1,9,-1
 155 348 l 1,10,-1
 256 349 l 1,11,-1
 254 309 l 1,0,-1
EndSplineSet
Validated: 1
EndChar

StartChar: comma
Encoding: 44 44 15
Width: 119
GlyphClass: 2
Flags: W
LayerCount: 2
Fore
SplineSet
49 -96 m 1,0,-1
 2 -96 l 1,1,-1
 2 125 l 1,2,-1
 90 120 l 1,3,-1
 49 -96 l 1,0,-1
EndSplineSet
Validated: 1
EndChar

StartChar: hyphen
Encoding: 45 45 16
Width: 286
GlyphClass: 2
Flags: W
LayerCount: 2
Fore
SplineSet
0 374 m 1,0,-1
 232 393 l 1,1,-1
 228 329 l 1,2,-1
 4 337 l 1,3,-1
 0 374 l 1,0,-1
EndSplineSet
Validated: 1
EndChar

StartChar: period
Encoding: 46 46 17
Width: 150
GlyphClass: 2
Flags: W
LayerCount: 2
Fore
SplineSet
98 109 m 1,0,1
 117 94 117 94 121 71 c 128,-1,2
 125 48 125 48 113 26 c 0,3,4
 100 7 100 7 76 3 c 128,-1,5
 52 -1 52 -1 30 12 c 0,6,7
 11 26 11 26 7 49 c 128,-1,8
 3 72 3 72 16 94 c 0,9,10
 29 113 29 113 52.5 117 c 128,-1,11
 76 121 76 121 98 109 c 1,0,1
EndSplineSet
Validated: 33
EndChar

StartChar: slash
Encoding: 47 47 18
Width: 350
GlyphClass: 2
Flags: W
LayerCount: 2
Fore
SplineSet
227 668 m 1,0,-1
 300 656 l 1,1,-1
 40 61 l 1,2,-1
 0 75 l 1,3,-1
 227 668 l 1,0,-1
EndSplineSet
Validated: 1
EndChar

StartChar: zero
Encoding: 48 48 19
Width: 526
GlyphClass: 2
Flags: W
LayerCount: 2
Fore
SplineSet
485 353 m 0,0,1
 490 284 490 284 479.5 235 c 128,-1,2
 469 186 469 186 449.5 153.5 c 128,-1,3
 430 121 430 121 405 102.5 c 128,-1,4
 380 84 380 84 355 75 c 128,-1,5
 330 66 330 66 309 63.5 c 128,-1,6
 288 61 288 61 278 61 c 0,7,8
 272 61 272 61 251.5 63 c 128,-1,9
 231 65 231 65 203 74.5 c 128,-1,10
 175 84 175 84 143.5 103 c 128,-1,11
 112 122 112 122 83.5 155.5 c 128,-1,12
 55 189 55 189 33 239.5 c 128,-1,13
 11 290 11 290 4 362 c 1,14,15
 3 419 3 419 12 461 c 128,-1,16
 21 503 21 503 37 534 c 128,-1,17
 53 565 53 565 73 585 c 128,-1,18
 93 605 93 605 114 618 c 0,19,20
 163 647 163 647 227 647 c 0,21,22
 230 647 230 647 249 646 c 128,-1,23
 268 645 268 645 295 637.5 c 128,-1,24
 322 630 322 630 353 613 c 128,-1,25
 384 596 384 596 411.5 563.5 c 128,-1,26
 439 531 439 531 459.5 479.5 c 128,-1,27
 480 428 480 428 485 353 c 0,0,1
413 312 m 0,28,29
 415 374 415 374 402 427.5 c 128,-1,30
 389 481 389 481 364 521 c 128,-1,31
 339 561 339 561 304.5 583.5 c 128,-1,32
 270 606 270 606 230 607 c 0,33,34
 191 607 191 607 160 585 c 0,35,36
 147 576 147 576 134.5 561 c 128,-1,37
 122 546 122 546 112 523.5 c 128,-1,38
 102 501 102 501 96 470.5 c 128,-1,39
 90 440 90 440 90 399 c 0,40,41
 89 316 89 316 112.5 258.5 c 128,-1,42
 136 201 136 201 169 164.5 c 128,-1,43
 202 128 202 128 236 111.5 c 128,-1,44
 270 95 270 95 290 95 c 0,45,46
 309 95 309 95 329.5 106 c 128,-1,47
 350 117 350 117 368 142.5 c 128,-1,48
 386 168 386 168 398.5 209.5 c 128,-1,49
 411 251 411 251 413 312 c 0,28,29
EndSplineSet
Validated: 33
EndChar

StartChar: one
Encoding: 49 49 20
Width: 178
GlyphClass: 2
Flags: W
LayerCount: 2
Fore
SplineSet
33 64 m 1,0,-1
 51 646 l 1,1,-1
 105 648 l 1,2,-1
 124 64 l 1,3,-1
 33 64 l 1,0,-1
EndSplineSet
Validated: 1
EndChar

StartChar: two
Encoding: 50 50 21
Width: 506
GlyphClass: 2
Flags: W
LayerCount: 2
Fore
SplineSet
0 593 m 1,0,1
 21 606 21 606 58 619 c 128,-1,2
 95 632 95 632 139.5 639.5 c 128,-1,3
 184 647 184 647 231.5 647 c 128,-1,4
 279 647 279 647 320.5 634.5 c 128,-1,5
 362 622 362 622 392 594.5 c 128,-1,6
 422 567 422 567 433 520 c 0,7,8
 440 484 440 484 434.5 448 c 128,-1,9
 429 412 429 412 414 376.5 c 128,-1,10
 399 341 399 341 377.5 308 c 128,-1,11
 356 275 356 275 332 246 c 0,12,13
 277 177 277 177 201 113 c 1,14,-1
 454 121 l 1,15,-1
 456 63 l 1,16,17
 349 62 349 62 265 62 c 0,18,19
 229 62 229 62 195 62 c 128,-1,20
 161 62 161 62 134 62 c 128,-1,21
 107 62 107 62 90.5 62.5 c 128,-1,22
 74 63 74 63 74 63 c 1,23,24
 107 90 107 90 140.5 125 c 128,-1,25
 174 160 174 160 202.5 195.5 c 128,-1,26
 231 231 231 231 288 308 c 0,27,28
 302 327 302 327 315 352.5 c 128,-1,29
 328 378 328 378 335.5 406 c 128,-1,30
 343 434 343 434 343 462.5 c 128,-1,31
 343 491 343 491 332 514.5 c 128,-1,32
 321 538 321 538 297 554 c 128,-1,33
 273 570 273 570 233 574 c 0,34,35
 189 580 189 580 156.5 573.5 c 128,-1,36
 124 567 124 567 101 555.5 c 128,-1,37
 78 544 78 544 63.5 532 c 128,-1,38
 49 520 49 520 41 515 c 0,39,40
 40 515 40 515 0 593 c 1,0,1
EndSplineSet
Validated: 33
EndChar

StartChar: three
Encoding: 51 51 22
Width: 465
GlyphClass: 2
Flags: W
LayerCount: 2
Fore
SplineSet
0 624 m 1,0,1
 43 639 43 639 90.5 645 c 128,-1,2
 138 651 138 651 184 650 c 128,-1,3
 230 649 230 649 272.5 640.5 c 128,-1,4
 315 632 315 632 347 616.5 c 128,-1,5
 379 601 379 601 398 580 c 128,-1,6
 417 559 417 559 417 532 c 0,7,8
 419 498 419 498 408.5 472.5 c 128,-1,9
 398 447 398 447 381 428 c 128,-1,10
 364 409 364 409 343.5 396 c 128,-1,11
 323 383 323 383 305.5 375 c 128,-1,12
 288 367 288 367 276.5 363.5 c 128,-1,13
 265 360 265 360 265 359 c 1,14,15
 265 360 265 360 283.5 353 c 128,-1,16
 302 346 302 346 324.5 329.5 c 128,-1,17
 347 313 347 313 367 286.5 c 128,-1,18
 387 260 387 260 391 221 c 0,19,20
 391 187 391 187 376 162.5 c 128,-1,21
 361 138 361 138 336 121.5 c 128,-1,22
 311 105 311 105 279 95.5 c 128,-1,23
 247 86 247 86 214 81 c 0,24,25
 136 70 136 70 35 77 c 1,26,-1
 35 126 l 1,27,28
 107 118 107 118 162 125 c 0,29,30
 186 128 186 128 208.5 134.5 c 128,-1,31
 231 141 231 141 248.5 152.5 c 128,-1,32
 266 164 266 164 277 181.5 c 128,-1,33
 288 199 288 199 288 225 c 0,34,35
 288 246 288 246 279.5 261.5 c 128,-1,36
 271 277 271 277 258 288 c 128,-1,37
 245 299 245 299 228 305.5 c 128,-1,38
 211 312 211 312 194 315 c 0,39,40
 153 323 153 323 101 319 c 1,41,42
 99 375 99 375 101 376 c 0,43,44
 102 377 102 377 118 377 c 128,-1,45
 134 377 134 377 158 379.5 c 128,-1,46
 182 382 182 382 209.5 389.5 c 128,-1,47
 237 397 237 397 260.5 411.5 c 128,-1,48
 284 426 284 426 299 450.5 c 128,-1,49
 314 475 314 475 314 512 c 0,50,51
 313 549 313 549 293 568.5 c 128,-1,52
 273 588 273 588 242.5 595 c 128,-1,53
 212 602 212 602 176 598.5 c 128,-1,54
 140 595 140 595 107.5 586.5 c 128,-1,55
 75 578 75 578 20 545 c 1,56,57
 19 551 19 551 0 624 c 1,0,1
EndSplineSet
Validated: 33
EndChar

StartChar: four
Encoding: 52 52 23
Width: 516
GlyphClass: 2
Flags: W
LayerCount: 2
Fore
SplineSet
359 237 m 1,0,-1
 366 58 l 1,1,-1
 282 50 l 1,2,-1
 277 237 l 1,3,-1
 0 235 l 1,4,-1
 301 646 l 1,5,-1
 340 649 l 1,6,-1
 356 305 l 1,7,-1
 465 312 l 1,8,-1
 466 237 l 1,9,-1
 360 239 l 1,10,-1
 359 237 l 1,0,-1
106 294 m 1,11,-1
 273 302 l 1,12,-1
 271 530 l 1,13,-1
 106 294 l 1,11,-1
EndSplineSet
Validated: 1
EndChar

StartChar: five
Encoding: 53 53 24
Width: 416
GlyphClass: 2
Flags: W
LayerCount: 2
Fore
SplineSet
353 649 m 1,0,-1
 353 569 l 1,1,-1
 76 571 l 1,2,-1
 77 398 l 1,3,4
 93 399 93 399 119.5 399.5 c 128,-1,5
 146 400 146 400 176.5 397.5 c 128,-1,6
 207 395 207 395 239 388.5 c 128,-1,7
 271 382 271 382 297.5 368 c 128,-1,8
 324 354 324 354 342 332 c 128,-1,9
 360 310 360 310 363 276 c 0,10,11
 366 250 366 250 355.5 227 c 128,-1,12
 345 204 345 204 326 184.5 c 128,-1,13
 307 165 307 165 282 148 c 128,-1,14
 257 131 257 131 230 117 c 0,15,16
 168 84 168 84 86 60 c 1,17,-1
 61 118 l 1,18,19
 119 134 119 134 165 157 c 0,20,21
 184 166 184 166 203 178 c 128,-1,22
 222 190 222 190 236.5 204 c 128,-1,23
 251 218 251 218 259.5 234.5 c 128,-1,24
 268 251 268 251 267 269 c 256,25,26
 266 287 266 287 254 299.5 c 128,-1,27
 242 312 242 312 223.5 320 c 128,-1,28
 205 328 205 328 181 332 c 128,-1,29
 157 336 157 336 132 338 c 0,30,31
 74 342 74 342 0 333 c 1,32,-1
 2 620 l 1,33,-1
 353 649 l 1,0,-1
EndSplineSet
Validated: 33
EndChar

StartChar: six
Encoding: 54 54 25
Width: 385
GlyphClass: 2
Flags: W
LayerCount: 2
Fore
SplineSet
198 361 m 0,0,1
 211 361 211 361 234.5 355.5 c 128,-1,2
 258 350 258 350 280.5 334.5 c 128,-1,3
 303 319 303 319 319.5 289.5 c 128,-1,4
 336 260 336 260 336 211 c 0,5,6
 336 160 336 160 313.5 130 c 128,-1,7
 291 100 291 100 261 84.5 c 128,-1,8
 231 69 231 69 201.5 65 c 128,-1,9
 172 61 172 61 157 62 c 0,10,11
 145 62 145 62 119 68.5 c 128,-1,12
 93 75 93 75 67 94.5 c 128,-1,13
 41 114 41 114 21.5 151 c 128,-1,14
 2 188 2 188 3 250 c 2,15,-1
 3 252 l 2,16,17
 2 270 2 270 4.5 298 c 128,-1,18
 7 326 7 326 16.5 360.5 c 128,-1,19
 26 395 26 395 43.5 433.5 c 128,-1,20
 61 472 61 472 89.5 510.5 c 128,-1,21
 118 549 118 549 159.5 585.5 c 128,-1,22
 201 622 201 622 258 652 c 1,23,24
 292 584 292 584 291 583 c 0,25,26
 239 555 239 555 203 523.5 c 128,-1,27
 167 492 167 492 143 460 c 128,-1,28
 119 428 119 428 104.5 396.5 c 128,-1,29
 90 365 90 365 82 338 c 1,30,31
 102 346 102 346 117.5 351 c 128,-1,32
 133 356 133 356 158.5 359 c 128,-1,33
 184 362 184 362 198 361 c 0,0,1
155 101 m 0,34,35
 189 98 189 98 212.5 111.5 c 128,-1,36
 236 125 236 125 249 147.5 c 128,-1,37
 262 170 262 170 265.5 197.5 c 128,-1,38
 269 225 269 225 262.5 249.5 c 128,-1,39
 256 274 256 274 240.5 292 c 128,-1,40
 225 310 225 310 201 314 c 0,41,42
 164 319 164 319 141 309 c 128,-1,43
 118 299 118 299 105.5 282 c 128,-1,44
 93 265 93 265 88 245 c 128,-1,45
 83 225 83 225 82 211 c 0,46,47
 81 200 81 200 85.5 181.5 c 128,-1,48
 90 163 90 163 99.5 145.5 c 128,-1,49
 109 128 109 128 123 115 c 128,-1,50
 137 102 137 102 155 101 c 0,34,35
EndSplineSet
Validated: 33
EndChar

StartChar: seven
Encoding: 55 55 26
Width: 476
GlyphClass: 2
Flags: W
LayerCount: 2
Fore
SplineSet
2 639 m 1,0,-1
 425 655 l 1,1,-1
 380 62 l 1,2,-1
 302 62 l 1,3,-1
 363 586 l 1,4,-1
 17 554 l 1,5,-1
 2 639 l 1,0,-1
EndSplineSet
Validated: 1
EndChar

StartChar: eight
Encoding: 56 56 27
Width: 489
GlyphClass: 2
Flags: W
LayerCount: 2
Fore
SplineSet
327 390 m 1,0,1
 382 386 382 386 412 360 c 128,-1,2
 442 334 442 334 448.5 298.5 c 128,-1,3
 455 263 455 263 441 222 c 128,-1,4
 427 181 427 181 394.5 146.5 c 128,-1,5
 362 112 362 112 313 88 c 128,-1,6
 264 64 264 64 202 63 c 0,7,8
 156 62 156 62 117.5 77 c 128,-1,9
 79 92 79 92 53 117 c 128,-1,10
 27 142 27 142 16 174 c 128,-1,11
 5 206 5 206 14 239 c 128,-1,12
 23 272 23 272 54 303.5 c 128,-1,13
 85 335 85 335 144 358 c 1,14,15
 106 369 106 369 83 393.5 c 128,-1,16
 60 418 60 418 51.5 448.5 c 128,-1,17
 43 479 43 479 49 511.5 c 128,-1,18
 55 544 55 544 75.5 571.5 c 128,-1,19
 96 599 96 599 130 617.5 c 128,-1,20
 164 636 164 636 213 639 c 0,21,22
 252 642 252 642 282.5 630 c 128,-1,23
 313 618 313 618 334 597.5 c 128,-1,24
 355 577 355 577 366 549.5 c 128,-1,25
 377 522 377 522 376.5 493.5 c 128,-1,26
 376 465 376 465 364 437.5 c 128,-1,27
 352 410 352 410 327 390 c 1,0,1
220 597 m 0,28,29
 189 598 189 598 168 581.5 c 128,-1,30
 147 565 147 565 136.5 541 c 128,-1,31
 126 517 126 517 126 488.5 c 128,-1,32
 126 460 126 460 136 437 c 128,-1,33
 146 414 146 414 166.5 399 c 128,-1,34
 187 384 187 384 218 387 c 0,35,36
 248 389 248 389 267 405.5 c 128,-1,37
 286 422 286 422 295 445 c 128,-1,38
 304 468 304 468 303.5 495 c 128,-1,39
 303 522 303 522 293 544.5 c 128,-1,40
 283 567 283 567 264.5 582 c 128,-1,41
 246 597 246 597 220 597 c 0,28,29
228 111 m 0,42,43
 272 111 272 111 302 129 c 128,-1,44
 332 147 332 147 347.5 173.5 c 128,-1,45
 363 200 363 200 365 231 c 128,-1,46
 367 262 367 262 355 288.5 c 128,-1,47
 343 315 343 315 316.5 332 c 128,-1,48
 290 349 290 349 249 348 c 0,49,50
 209 347 209 347 179 329 c 128,-1,51
 149 311 149 311 131.5 284.5 c 128,-1,52
 114 258 114 258 109.5 228 c 128,-1,53
 105 198 105 198 116 172 c 128,-1,54
 127 146 127 146 154.5 128.5 c 128,-1,55
 182 111 182 111 228 111 c 0,42,43
EndSplineSet
Validated: 33
EndChar

StartChar: nine
Encoding: 57 57 28
Width: 395
GlyphClass: 2
Flags: W
LayerCount: 2
Fore
SplineSet
349 440 m 0,0,1
 349 398 349 398 338.5 359.5 c 128,-1,2
 328 321 328 321 311 286 c 128,-1,3
 294 251 294 251 271.5 220.5 c 128,-1,4
 249 190 249 190 226 164 c 0,5,6
 171 103 171 103 101 54 c 1,7,-1
 54 118 l 1,8,9
 111 157 111 157 156 197 c 0,10,11
 175 214 175 214 193.5 233.5 c 128,-1,12
 212 253 212 253 226.5 273.5 c 128,-1,13
 241 294 241 294 250 314.5 c 128,-1,14
 259 335 259 335 260 355 c 1,15,16
 202 331 202 331 156.5 337 c 128,-1,17
 111 343 111 343 79 364 c 128,-1,18
 47 385 47 385 29.5 413.5 c 128,-1,19
 12 442 12 442 9 463 c 0,20,21
 4 502 4 502 10 538 c 128,-1,22
 16 574 16 574 34.5 601.5 c 128,-1,23
 53 629 53 629 85 645.5 c 128,-1,24
 117 662 117 662 165 662 c 0,25,26
 199 660 199 660 219 653.5 c 128,-1,27
 239 647 239 647 261.5 633.5 c 128,-1,28
 284 620 284 620 303 595.5 c 128,-1,29
 322 571 322 571 335 533 c 128,-1,30
 348 495 348 495 349 440 c 0,0,1
213 388 m 0,31,32
 240 393 240 393 253.5 413 c 128,-1,33
 267 433 267 433 268.5 459.5 c 128,-1,34
 270 486 270 486 261 514 c 128,-1,35
 252 542 252 542 233.5 563.5 c 128,-1,36
 215 585 215 585 188.5 596 c 128,-1,37
 162 607 162 607 128 599 c 0,38,39
 102 593 102 593 88 572.5 c 128,-1,40
 74 552 74 552 71 526.5 c 128,-1,41
 68 501 68 501 76 473 c 128,-1,42
 84 445 84 445 102 423.5 c 128,-1,43
 120 402 120 402 148 391 c 128,-1,44
 176 380 176 380 213 388 c 0,31,32
EndSplineSet
Validated: 33
EndChar

StartChar: colon
Encoding: 58 58 29
Width: 172
GlyphClass: 2
Flags: W
LayerCount: 2
Fore
SplineSet
92 218 m 0,0,1
 109 204 109 204 113 180 c 128,-1,2
 117 156 117 156 106 135 c 0,3,4
 93 116 93 116 71 112 c 128,-1,5
 49 108 49 108 30 123 c 0,6,7
 10 136 10 136 6.5 160.5 c 128,-1,8
 3 185 3 185 14 206 c 0,9,10
 28 225 28 225 50 229 c 128,-1,11
 72 233 72 233 92 218 c 0,0,1
43 464 m 0,12,13
 26 478 26 478 23 498.5 c 128,-1,14
 20 519 20 519 30 539 c 0,15,16
 42 555 42 555 61 559 c 128,-1,17
 80 563 80 563 97 553 c 0,18,19
 115 539 115 539 117.5 518.5 c 128,-1,20
 120 498 120 498 109 478 c 0,21,22
 98 459 98 459 78 456.5 c 128,-1,23
 58 454 58 454 43 464 c 0,12,13
EndSplineSet
Validated: 33
EndChar

StartChar: semicolon
Encoding: 59 59 30
Width: 161
GlyphClass: 2
Flags: W
LayerCount: 2
Fore
SplineSet
26 466 m 0,0,1
 10 476 10 476 6.5 496.5 c 128,-1,2
 3 517 3 517 16 535 c 0,3,4
 26 554 26 554 47 556.5 c 128,-1,5
 68 559 68 559 85 547 c 256,6,7
 102 535 102 535 106.5 515 c 128,-1,8
 111 495 111 495 100 478 c 0,9,10
 88 459 88 459 67 455.5 c 128,-1,11
 46 452 46 452 26 466 c 0,0,1
62 -26 m 1,12,-1
 25 -26 l 1,13,-1
 25 148 l 1,14,-1
 95 145 l 1,15,-1
 62 -26 l 1,12,-1
EndSplineSet
Validated: 33
EndChar

StartChar: less
Encoding: 60 60 31
Width: 327
GlyphClass: 2
Flags: W
LayerCount: 2
Fore
SplineSet
247 514 m 1,0,-1
 275 452 l 1,1,-1
 58 359 l 1,2,-1
 228 226 l 1,3,-1
 210 187 l 1,4,-1
 -1 363 l 1,5,-1
 247 514 l 1,0,-1
EndSplineSet
Validated: 1
EndChar

StartChar: equal
Encoding: 61 61 32
Width: 419
GlyphClass: 2
Flags: W
LayerCount: 2
Fore
SplineSet
5 258 m 1,0,-1
 1 303 l 1,1,-1
 357 319 l 1,2,-1
 357 243 l 1,3,-1
 5 258 l 1,0,-1
364 397 m 1,4,-1
 368 353 l 1,5,-1
 12 367 l 1,6,-1
 16 446 l 1,7,-1
 364 397 l 1,4,-1
EndSplineSet
Validated: 1
EndChar

StartChar: greater
Encoding: 62 62 33
Width: 334
GlyphClass: 2
Flags: W
LayerCount: 2
Fore
SplineSet
287 364 m 1,0,-1
 67 181 l 1,1,-1
 48 222 l 1,2,-1
 226 360 l 1,3,-1
 -1 457 l 1,4,-1
 28 521 l 1,5,-1
 287 364 l 1,0,-1
EndSplineSet
Validated: 1
EndChar

StartChar: question
Encoding: 63 63 34
Width: 460
GlyphClass: 2
Flags: W
LayerCount: 2
Fore
SplineSet
404 563 m 0,0,1
 413 528 413 528 406.5 500 c 128,-1,2
 400 472 400 472 382.5 449 c 128,-1,3
 365 426 365 426 340 408.5 c 128,-1,4
 315 391 315 391 287 378 c 0,5,6
 222 347 222 347 132 330 c 1,7,-1
 147 170 l 1,8,-1
 98 168 l 1,9,-1
 98 370 l 1,10,11
 177 381 177 381 233 405 c 0,12,13
 257 415 257 415 278 429 c 128,-1,14
 299 443 299 443 312.5 461 c 128,-1,15
 326 479 326 479 329 502 c 128,-1,16
 332 525 332 525 320 553 c 0,17,18
 309 579 309 579 290.5 594 c 128,-1,19
 272 609 272 609 249.5 615 c 128,-1,20
 227 621 227 621 202 620 c 128,-1,21
 177 619 177 619 153 615 c 0,22,23
 96 604 96 604 32 573 c 1,24,-1
 1 656 l 1,25,26
 22 668 22 668 56 678.5 c 128,-1,27
 90 689 90 689 130.5 694.5 c 128,-1,28
 171 700 171 700 213.5 697.5 c 128,-1,29
 256 695 256 695 294 680.5 c 128,-1,30
 332 666 332 666 361 638 c 128,-1,31
 390 610 390 610 404 563 c 0,0,1
155 105 m 0,32,33
 167 97 167 97 167 77.5 c 128,-1,34
 167 58 167 58 155 42 c 0,35,36
 141 24 141 24 123.5 17 c 128,-1,37
 106 10 106 10 93 23 c 0,38,39
 82 31 82 31 82 50 c 128,-1,40
 82 69 82 69 94 86 c 0,41,42
 108 105 108 105 125.5 111 c 128,-1,43
 143 117 143 117 155 105 c 0,32,33
EndSplineSet
Validated: 33
EndChar

StartChar: at
Encoding: 64 64 35
Width: 600
GlyphClass: 2
Flags: W
LayerCount: 2
Fore
SplineSet
345 639 m 1,0,1
 400 626 400 626 431 610.5 c 128,-1,2
 462 595 462 595 488.5 568.5 c 128,-1,3
 515 542 515 542 532 502.5 c 128,-1,4
 549 463 549 463 549 405 c 1,5,6
 545 357 545 357 530 331 c 128,-1,7
 515 305 515 305 496 291.5 c 128,-1,8
 477 278 477 278 462 275 c 128,-1,9
 447 272 447 272 443 272 c 1,10,11
 447 271 447 271 441 270 c 128,-1,12
 435 269 435 269 423.5 272 c 128,-1,13
 412 275 412 275 397 282.5 c 128,-1,14
 382 290 382 290 370 306 c 1,15,16
 367 296 367 296 357.5 287 c 128,-1,17
 348 278 348 278 339 269.5 c 128,-1,18
 330 261 330 261 314.5 256 c 128,-1,19
 299 251 299 251 275 251 c 0,20,21
 256 251 256 251 235.5 262.5 c 128,-1,22
 215 274 215 274 199 294 c 128,-1,23
 183 314 183 314 176 342.5 c 128,-1,24
 169 371 169 371 178 405 c 0,25,26
 181 423 181 423 191.5 444.5 c 128,-1,27
 202 466 202 466 219.5 485 c 128,-1,28
 237 504 237 504 261.5 516.5 c 128,-1,29
 286 529 286 529 319 528 c 0,30,31
 350 526 350 526 365 509.5 c 128,-1,32
 380 493 380 493 387 469.5 c 128,-1,33
 394 446 394 446 396 419 c 128,-1,34
 398 392 398 392 402 370 c 128,-1,35
 406 348 406 348 414 332.5 c 128,-1,36
 422 317 422 317 443 319 c 0,37,38
 466 319 466 319 481.5 339.5 c 128,-1,39
 497 360 497 360 501 390 c 128,-1,40
 505 420 505 420 497.5 455.5 c 128,-1,41
 490 491 490 491 467 522 c 128,-1,42
 444 553 444 553 404 574.5 c 128,-1,43
 364 596 364 596 304 598 c 0,44,45
 251 600 251 600 213.5 585 c 128,-1,46
 176 570 176 570 151.5 546.5 c 128,-1,47
 127 523 127 523 112.5 494.5 c 128,-1,48
 98 466 98 466 91 439.5 c 128,-1,49
 84 413 84 413 81.5 392.5 c 128,-1,50
 79 372 79 372 79 367 c 0,51,52
 78 346 78 346 84.5 316.5 c 128,-1,53
 91 287 91 287 105.5 257.5 c 128,-1,54
 120 228 120 228 144.5 202.5 c 128,-1,55
 169 177 169 177 205.5 163.5 c 128,-1,56
 242 150 242 150 291.5 151 c 128,-1,57
 341 152 341 152 406 178 c 1,58,-1
 428 123 l 1,59,60
 415 115 415 115 379 106 c 128,-1,61
 343 97 343 97 295.5 96 c 128,-1,62
 248 95 248 95 197 105 c 128,-1,63
 146 115 146 115 102.5 144 c 128,-1,64
 59 173 59 173 31 226 c 128,-1,65
 3 279 3 279 2 363 c 0,66,67
 3 427 3 427 22 474 c 128,-1,68
 41 521 41 521 70 552.5 c 128,-1,69
 99 584 99 584 134 603 c 128,-1,70
 169 622 169 622 196 629.5 c 128,-1,71
 223 637 223 637 255.5 641 c 128,-1,72
 288 645 288 645 345 639 c 1,0,1
282 300 m 0,73,74
 300 296 300 296 314.5 309 c 128,-1,75
 329 322 329 322 337.5 343 c 128,-1,76
 346 364 346 364 349 389.5 c 128,-1,77
 352 415 352 415 348 437 c 128,-1,78
 344 459 344 459 333.5 473.5 c 128,-1,79
 323 488 323 488 304 488 c 0,80,81
 286 489 286 489 272 477 c 128,-1,82
 258 465 258 465 249 445.5 c 128,-1,83
 240 426 240 426 235.5 402.5 c 128,-1,84
 231 379 231 379 234.5 357.5 c 128,-1,85
 238 336 238 336 249.5 320.5 c 128,-1,86
 261 305 261 305 282 300 c 0,73,74
EndSplineSet
Validated: 33
EndChar

StartChar: A
Encoding: 65 65 36
Width: 630
GlyphClass: 2
Flags: W
LayerCount: 2
Fore
SplineSet
5 19 m 1,0,-1
 232 695 l 1,1,-1
 282 697 l 1,2,-1
 591 35 l 1,3,-1
 513 4 l 1,4,-1
 250 600 l 1,5,-1
 168 329 l 1,6,-1
 379 332 l 1,7,-1
 396 289 l 1,8,-1
 159 288 l 1,9,-1
 64 0 l 1,10,-1
 5 19 l 1,0,-1
EndSplineSet
Validated: 5
EndChar

StartChar: B
Encoding: 66 66 37
Width: 510
GlyphClass: 2
Flags: W
LayerCount: 2
Fore
SplineSet
459 231 m 0,0,1
 460 184 460 184 441.5 150 c 128,-1,2
 423 116 423 116 391 92 c 128,-1,3
 359 68 359 68 317.5 52 c 128,-1,4
 276 36 276 36 233 27 c 0,5,6
 131 5 131 5 0 8 c 1,7,-1
 0 685 l 1,8,9
 5 688 5 688 36.5 692.5 c 128,-1,10
 68 697 68 697 111 699.5 c 128,-1,11
 154 702 154 702 203.5 697.5 c 128,-1,12
 253 693 253 693 295 675.5 c 128,-1,13
 337 658 337 658 365 628 c 128,-1,14
 393 598 393 598 394 550 c 0,15,16
 394 502 394 502 376 474 c 128,-1,17
 358 446 358 446 337 432 c 0,18,19
 312 415 312 415 281 411 c 1,20,21
 329 403 329 403 368 381 c 0,22,23
 384 372 384 372 400 358.5 c 128,-1,24
 416 345 416 345 429 326.5 c 128,-1,25
 442 308 442 308 450 284.5 c 128,-1,26
 458 261 458 261 459 231 c 0,0,1
314 550 m 0,27,28
 317 588 317 588 299 609 c 128,-1,29
 281 630 281 630 252 640.5 c 128,-1,30
 223 651 223 651 189 653 c 128,-1,31
 155 655 155 655 125 652.5 c 128,-1,32
 95 650 95 650 77.5 646.5 c 128,-1,33
 60 643 60 643 59 642 c 2,34,-1
 62 431 l 1,35,36
 125 425 125 425 180 436 c 0,37,38
 204 440 204 440 227 448.5 c 128,-1,39
 250 457 250 457 268.5 470.5 c 128,-1,40
 287 484 287 484 299.5 503.5 c 128,-1,41
 312 523 312 523 314 550 c 0,27,28
66 95 m 1,42,43
 87 93 87 93 124 92.5 c 128,-1,44
 161 92 161 92 199 96.5 c 128,-1,45
 237 101 237 101 273 112 c 128,-1,46
 309 123 309 123 336 143 c 128,-1,47
 363 163 363 163 377 194.5 c 128,-1,48
 391 226 391 226 386 271 c 0,49,50
 380 307 380 307 354.5 328.5 c 128,-1,51
 329 350 329 350 292 361 c 128,-1,52
 255 372 255 372 213.5 375 c 128,-1,53
 172 378 172 378 136 377 c 128,-1,54
 100 376 100 376 80 373.5 c 128,-1,55
 60 371 60 371 60 371 c 1,56,-1
 66 95 l 1,42,43
EndSplineSet
Validated: 33
EndChar

StartChar: C
Encoding: 67 67 38
Width: 619
GlyphClass: 2
Flags: W
LayerCount: 2
Fore
SplineSet
581 681 m 1,0,-1
 581 593 l 1,1,2
 461 620 461 620 361 611 c 0,3,4
 318 607 318 607 275 595 c 128,-1,5
 232 583 232 583 195 558.5 c 128,-1,6
 158 534 158 534 129.5 495 c 128,-1,7
 101 456 101 456 88 398 c 0,8,9
 81 365 81 365 79.5 325 c 128,-1,10
 78 285 78 285 89.5 245 c 128,-1,11
 101 205 101 205 128.5 169 c 128,-1,12
 156 133 156 133 207 107 c 128,-1,13
 258 81 258 81 335 69.5 c 128,-1,14
 412 58 412 58 522 68 c 1,15,-1
 528 40 l 2,16,17
 530 29 530 29 531.5 20 c 128,-1,18
 533 11 533 11 532 10 c 0,19,20
 479 4 479 4 414 5.5 c 128,-1,21
 349 7 349 7 284 22 c 128,-1,22
 219 37 219 37 160.5 68 c 128,-1,23
 102 99 102 99 64 153 c 128,-1,24
 26 207 26 207 15 287 c 128,-1,25
 4 367 4 367 32 479 c 1,26,27
 51 537 51 537 85 576 c 128,-1,28
 119 615 119 615 161 640 c 128,-1,29
 203 665 203 665 250.5 677.5 c 128,-1,30
 298 690 298 690 345 695 c 0,31,32
 454 706 454 706 581 681 c 1,0,-1
EndSplineSet
Validated: 33
EndChar

StartChar: D
Encoding: 68 68 39
Width: 729
GlyphClass: 2
Flags: W
LayerCount: 2
Fore
SplineSet
703 311 m 1,0,1
 699 236 699 236 667 183 c 128,-1,2
 635 130 635 130 584.5 94 c 128,-1,3
 534 58 534 58 471.5 37 c 128,-1,4
 409 16 409 16 344 6 c 0,5,6
 192 -19 192 -19 0 1 c 1,7,-1
 0 659 l 1,8,9
 196 675 196 675 350 646 c 0,10,11
 416 634 416 634 479 610 c 128,-1,12
 542 586 542 586 591.5 546.5 c 128,-1,13
 641 507 641 507 671.5 449.5 c 128,-1,14
 702 392 702 392 703 311 c 1,0,1
86 53 m 1,15,16
 216 43 216 43 339 65 c 0,17,18
 391 74 391 74 437 91.5 c 128,-1,19
 483 109 483 109 520 137 c 128,-1,20
 557 165 557 165 573.5 206 c 128,-1,21
 590 247 590 247 596 304 c 1,22,23
 593 365 593 365 576 409 c 128,-1,24
 559 453 559 453 526 483 c 128,-1,25
 493 513 493 513 449 531.5 c 128,-1,26
 405 550 405 550 352 560 c 0,27,28
 228 583 228 583 94 572 c 1,29,-1
 86 53 l 1,15,16
EndSplineSet
Validated: 33
EndChar

StartChar: E
Encoding: 69 69 40
Width: 437
GlyphClass: 2
Flags: W
LayerCount: 2
Fore
SplineSet
0 690 m 1,0,-1
 411 699 l 1,1,-1
 411 612 l 1,2,-1
 58 615 l 1,3,-1
 61 376 l 1,4,-1
 351 393 l 1,5,-1
 352 318 l 1,6,-1
 65 313 l 1,7,-1
 68 52 l 1,8,-1
 394 67 l 1,9,-1
 396 0 l 1,10,-1
 0 0 l 1,11,-1
 0 690 l 1,0,-1
EndSplineSet
Validated: 1
EndChar

StartChar: F
Encoding: 70 70 41
Width: 401
GlyphClass: 2
Flags: W
LayerCount: 2
Fore
SplineSet
0 9 m 1,0,-1
 9 699 l 1,1,-1
 361 697 l 1,2,-1
 361 635 l 1,3,-1
 60 646 l 1,4,-1
 66 426 l 1,5,-1
 300 435 l 1,6,-1
 298 351 l 1,7,-1
 72 359 l 1,8,-1
 84 -1 l 1,9,-1
 1 2 l 1,10,-1
 0 9 l 1,0,-1
EndSplineSet
Validated: 1
EndChar

StartChar: G
Encoding: 71 71 42
Width: 641
GlyphClass: 2
Flags: W
LayerCount: 2
Fore
SplineSet
594 628 m 1,0,1
 453 646 453 646 344 624 c 0,2,3
 297 615 297 615 253 596 c 128,-1,4
 209 577 209 577 174.5 544.5 c 128,-1,5
 140 512 140 512 119.5 464 c 128,-1,6
 99 416 99 416 101 348 c 0,7,8
 101 276 101 276 119.5 227 c 128,-1,9
 138 178 138 178 169 146.5 c 128,-1,10
 200 115 200 115 239 99.5 c 128,-1,11
 278 84 278 84 319 78 c 0,12,13
 415 65 415 65 538 96 c 1,14,-1
 535 196 l 1,15,-1
 325 183 l 1,16,-1
 327 252 l 1,17,-1
 591 251 l 1,18,-1
 591 27 l 1,19,20
 418 -10 418 -10 287 10 c 0,21,22
 231 19 231 19 178.5 41 c 128,-1,23
 126 63 126 63 87 104.5 c 128,-1,24
 48 146 48 146 27 211 c 128,-1,25
 6 276 6 276 14 370 c 0,26,27
 24 449 24 449 54 504.5 c 128,-1,28
 84 560 84 560 127 596.5 c 128,-1,29
 170 633 170 633 221.5 654 c 128,-1,30
 273 675 273 675 325 684 c 0,31,32
 447 706 447 706 597 680 c 1,33,-1
 594 628 l 1,0,1
EndSplineSet
Validated: 33
EndChar

StartChar: H
Encoding: 72 72 43
Width: 680
GlyphClass: 2
Flags: W
LayerCount: 2
Fore
SplineSet
0 700 m 1,0,-1
 76 696 l 1,1,-1
 83 275 l 1,2,-1
 526 284 l 1,3,-1
 522 694 l 1,4,-1
 581 694 l 1,5,-1
 600 13 l 1,6,-1
 529 12 l 1,7,-1
 526 213 l 1,8,-1
 85 211 l 1,9,-1
 88 0 l 1,10,-1
 0 0 l 1,11,-1
 0 700 l 1,0,-1
EndSplineSet
Validated: 1
EndChar

StartChar: I
Encoding: 73 73 44
Width: 240
GlyphClass: 2
Flags: W
LayerCount: 2
Fore
SplineSet
74 700 m 1,0,-1
 155 699 l 1,1,-1
 118 0 l 1,2,-1
 53 1 l 1,3,-1
 74 700 l 1,0,-1
EndSplineSet
Validated: 1
EndChar

StartChar: J
Encoding: 74 74 45
Width: 510
GlyphClass: 2
Flags: W
LayerCount: 2
Fore
SplineSet
338 697 m 1,0,-1
 431 698 l 1,1,2
 432 672 432 672 434 640 c 0,3,4
 438 540 438 540 438 498 c 0,5,6
 441 404 441 404 439.5 314.5 c 128,-1,7
 438 225 438 225 415 155 c 128,-1,8
 392 85 392 85 346 42.5 c 128,-1,9
 300 0 300 0 221 0 c 0,10,11
 183 0 183 0 148 7 c 128,-1,12
 113 14 113 14 84 25 c 128,-1,13
 55 36 55 36 33.5 48.5 c 128,-1,14
 12 61 12 61 0 72 c 0,15,16
 0 74 0 74 31 118 c 1,17,18
 56 96 56 96 89 79 c 0,19,20
 117 65 117 65 156 54.5 c 128,-1,21
 195 44 195 44 245 49 c 0,22,23
 283 52 283 52 309 79 c 128,-1,24
 335 106 335 106 351 152.5 c 128,-1,25
 367 199 367 199 369.5 262.5 c 128,-1,26
 372 326 372 326 367 402 c 2,27,-1
 338 697 l 1,0,-1
EndSplineSet
Validated: 33
EndChar

StartChar: K
Encoding: 75 75 46
Width: 529
GlyphClass: 2
Flags: W
LayerCount: 2
Fore
SplineSet
0 697 m 1,0,-1
 67 699 l 1,1,-1
 67 411 l 1,2,-1
 384 691 l 1,3,-1
 440 628 l 1,4,-1
 110 372 l 1,5,-1
 488 102 l 1,6,-1
 439 26 l 1,7,-1
 73 333 l 1,8,-1
 79 4 l 1,9,-1
 18 1 l 1,10,-1
 0 697 l 1,0,-1
EndSplineSet
Validated: 1
EndChar

StartChar: L
Encoding: 76 76 47
Width: 552
GlyphClass: 2
Flags: W
LayerCount: 2
Fore
SplineSet
20 698 m 1,0,-1
 93 694 l 1,1,-1
 90 67 l 1,2,-1
 495 97 l 1,3,-1
 493 3 l 1,4,-1
 21 0 l 1,5,-1
 20 698 l 1,0,-1
EndSplineSet
Validated: 1
EndChar

StartChar: M
Encoding: 77 77 48
Width: 763
GlyphClass: 2
Flags: W
LayerCount: 2
Fore
SplineSet
20 0 m 1,0,-1
 20 700 l 1,1,-1
 65 700 l 1,2,-1
 356 112 l 1,3,-1
 609 696 l 1,4,-1
 682 696 l 1,5,-1
 705 8 l 1,6,-1
 614 8 l 1,7,-1
 611 564 l 1,8,-1
 367 -3 l 1,9,-1
 331 5 l 1,10,-1
 72 543 l 1,11,-1
 90 -1 l 1,12,-1
 20 0 l 1,0,-1
EndSplineSet
Validated: 1
EndChar

StartChar: N
Encoding: 78 78 49
Width: 749
GlyphClass: 2
Flags: W
LayerCount: 2
Fore
SplineSet
20 0 m 1,0,-1
 20 700 l 1,1,-1
 65 700 l 1,2,-1
 629 115 l 1,3,-1
 623 694 l 1,4,-1
 695 691 l 1,5,-1
 692 10 l 1,6,-1
 635 9 l 1,7,-1
 79 572 l 1,8,-1
 87 0 l 1,9,-1
 20 0 l 1,0,-1
EndSplineSet
Validated: 1
EndChar

StartChar: O
Encoding: 79 79 50
Width: 850
GlyphClass: 2
Flags: W
LayerCount: 2
Fore
SplineSet
415 707 m 0,0,1
 447 707 447 707 486.5 701.5 c 128,-1,2
 526 696 526 696 568.5 681.5 c 128,-1,3
 611 667 611 667 649.5 642.5 c 128,-1,4
 688 618 688 618 723 579 c 128,-1,5
 758 540 758 540 780.5 483.5 c 128,-1,6
 803 427 803 427 804 352 c 0,7,8
 801 249 801 249 762 181 c 128,-1,9
 723 113 723 113 664.5 70.5 c 128,-1,10
 606 28 606 28 535.5 9.5 c 128,-1,11
 465 -9 465 -9 400 -9 c 0,12,13
 365 -9 365 -9 321 -4 c 128,-1,14
 277 1 277 1 232 17 c 128,-1,15
 187 33 187 33 146.5 61 c 128,-1,16
 106 89 106 89 73 128.5 c 128,-1,17
 40 168 40 168 22 218.5 c 128,-1,18
 4 269 4 269 8 349 c 0,19,20
 13 423 13 423 37 478.5 c 128,-1,21
 61 534 61 534 97 574 c 128,-1,22
 133 614 133 614 173.5 639.5 c 128,-1,23
 214 665 214 665 257.5 681 c 128,-1,24
 301 697 301 697 341.5 702.5 c 128,-1,25
 382 708 382 708 415 707 c 0,0,1
396 39 m 0,26,27
 452 38 452 38 511.5 55.5 c 128,-1,28
 571 73 571 73 614 110.5 c 128,-1,29
 657 148 657 148 689.5 216 c 128,-1,30
 722 284 722 284 719 384 c 0,31,32
 714 442 714 442 694 488 c 128,-1,33
 674 534 674 534 652.5 561.5 c 128,-1,34
 631 589 631 589 599.5 609.5 c 128,-1,35
 568 630 568 630 538 642 c 128,-1,36
 508 654 508 654 443 661 c 1,37,38
 377 664 377 664 313.5 646 c 128,-1,39
 250 628 250 628 199.5 579 c 128,-1,40
 149 530 149 530 123.5 457.5 c 128,-1,41
 98 385 98 385 100 309 c 0,42,43
 102 239 102 239 130 188 c 128,-1,44
 158 137 158 137 195.5 105 c 128,-1,45
 233 73 233 73 287 57 c 128,-1,46
 341 41 341 41 396 39 c 0,26,27
EndSplineSet
Validated: 33
EndChar

StartChar: P
Encoding: 80 80 51
Width: 528
GlyphClass: 2
Flags: W
LayerCount: 2
Fore
SplineSet
486 526 m 0,0,1
 490 467 490 467 465 426.5 c 128,-1,2
 440 386 440 386 403 359 c 128,-1,3
 366 332 366 332 320.5 317 c 128,-1,4
 275 302 275 302 231.5 294 c 128,-1,5
 188 286 188 286 150.5 284.5 c 128,-1,6
 113 283 113 283 93 283 c 1,7,-1
 92 0 l 1,8,-1
 27 0 l 1,9,-1
 8 694 l 1,10,11
 38 695 38 695 84.5 697.5 c 128,-1,12
 131 700 131 700 183.5 698.5 c 128,-1,13
 236 697 236 697 288.5 689.5 c 128,-1,14
 341 682 341 682 383.5 663 c 128,-1,15
 426 644 426 644 454 610 c 128,-1,16
 482 576 482 576 486 526 c 0,0,1
93 350 m 1,17,18
 187 347 187 347 261 362 c 0,19,20
 292 368 292 368 314.5 378.5 c 128,-1,21
 337 389 337 389 355 405.5 c 128,-1,22
 373 422 373 422 387 445.5 c 128,-1,23
 401 469 401 469 401 501 c 0,24,25
 401 535 401 535 387.5 558.5 c 128,-1,26
 374 582 374 582 355 597.5 c 128,-1,27
 336 613 336 613 313.5 621.5 c 128,-1,28
 291 630 291 630 258 634 c 0,29,30
 181 643 181 643 85 631 c 1,31,-1
 93 350 l 1,17,18
EndSplineSet
Validated: 33
EndChar

StartChar: Q
Encoding: 81 81 52
Width: 750
GlyphClass: 2
Flags: W
LayerCount: 2
Fore
SplineSet
708 44 m 1,0,-1
 664 -41 l 1,1,2
 557 -12 557 -12 496 4 c 128,-1,3
 435 20 435 20 405 28 c 128,-1,4
 375 36 375 36 367.5 38 c 128,-1,5
 360 40 360 40 359 40 c 0,6,7
 356 40 356 40 329 42 c 128,-1,8
 302 44 302 44 262.5 53.5 c 128,-1,9
 223 63 223 63 178 83 c 128,-1,10
 133 103 133 103 93.5 140 c 128,-1,11
 54 177 54 177 27 233.5 c 128,-1,12
 0 290 0 290 -2 384 c 1,13,14
 1 460 1 460 21 513 c 128,-1,15
 41 566 41 566 74 602 c 128,-1,16
 107 638 107 638 147 660 c 128,-1,17
 187 682 187 682 223 692 c 128,-1,18
 259 702 259 702 286 705 c 128,-1,19
 313 708 313 708 321 709 c 0,20,21
 334 709 334 709 365.5 708.5 c 128,-1,22
 397 708 397 708 437.5 700.5 c 128,-1,23
 478 693 478 693 522 674 c 128,-1,24
 566 655 566 655 604 619.5 c 128,-1,25
 642 584 642 584 672 527.5 c 128,-1,26
 702 471 702 471 706 387 c 0,27,28
 708 312 708 312 689 264 c 128,-1,29
 670 216 670 216 640 179.5 c 128,-1,30
 610 143 610 143 573.5 118 c 128,-1,31
 537 93 537 93 504 77 c 1,32,-1
 708 44 l 1,0,-1
384 88 m 0,33,34
 456 92 456 92 502 119.5 c 128,-1,35
 548 147 548 147 574.5 185.5 c 128,-1,36
 601 224 601 224 612.5 268.5 c 128,-1,37
 624 313 624 313 625 351 c 0,38,39
 626 388 626 388 620 421 c 128,-1,40
 614 454 614 454 599 488.5 c 128,-1,41
 584 523 584 523 559.5 555.5 c 128,-1,42
 535 588 535 588 499 613 c 128,-1,43
 463 638 463 638 414.5 651.5 c 128,-1,44
 366 665 366 665 303 661 c 0,45,46
 230 656 230 656 187 623.5 c 128,-1,47
 144 591 144 591 123 547 c 128,-1,48
 102 503 102 503 97.5 455.5 c 128,-1,49
 93 408 93 408 97 363 c 0,50,51
 99 333 99 333 107 301 c 128,-1,52
 115 269 115 269 130 237.5 c 128,-1,53
 145 206 145 206 167 177.5 c 128,-1,54
 189 149 189 149 220.5 128 c 128,-1,55
 252 107 252 107 292.5 95.5 c 128,-1,56
 333 84 333 84 384 88 c 0,33,34
EndSplineSet
Validated: 33
EndChar

StartChar: R
Encoding: 82 82 53
Width: 550
GlyphClass: 2
Flags: W
LayerCount: 2
Fore
SplineSet
20 694 m 1,0,1
 22 694 22 694 44 695.5 c 128,-1,2
 66 697 66 697 100.5 698 c 128,-1,3
 135 699 135 699 178 697.5 c 128,-1,4
 221 696 221 696 265.5 690 c 128,-1,5
 310 684 310 684 352.5 672 c 128,-1,6
 395 660 395 660 427.5 639.5 c 128,-1,7
 460 619 460 619 479.5 589.5 c 128,-1,8
 499 560 499 560 498 518 c 0,9,10
 497 479 497 479 481.5 449 c 128,-1,11
 466 419 466 419 441.5 396.5 c 128,-1,12
 417 374 417 374 386.5 358.5 c 128,-1,13
 356 343 356 343 324 333 c 0,14,15
 249 309 249 309 155 305 c 1,16,-1
 383 49 l 1,17,-1
 316 2 l 1,18,-1
 91 298 l 1,19,-1
 97 4 l 1,20,-1
 31 6 l 1,21,-1
 20 694 l 1,0,1
89 366 m 1,22,23
 180 359 180 359 250 372 c 0,24,25
 280 378 280 378 308.5 388 c 128,-1,26
 337 398 337 398 359.5 415.5 c 128,-1,27
 382 433 382 433 395.5 457.5 c 128,-1,28
 409 482 409 482 409 517 c 0,29,30
 409 548 409 548 395 570 c 128,-1,31
 381 592 381 592 358.5 607 c 128,-1,32
 336 622 336 622 307.5 631 c 128,-1,33
 279 640 279 640 249 645 c 0,34,35
 179 656 179 656 89 650 c 1,36,-1
 89 366 l 1,22,23
EndSplineSet
Validated: 33
EndChar

StartChar: S
Encoding: 83 83 54
Width: 431
GlyphClass: 2
Flags: W
LayerCount: 2
Fore
SplineSet
72 139 m 1,0,1
 78 132 78 132 92 120.5 c 128,-1,2
 106 109 106 109 124 97.5 c 128,-1,3
 142 86 142 86 163.5 76.5 c 128,-1,4
 185 67 185 67 206.5 63.5 c 128,-1,5
 228 60 228 60 247.5 64.5 c 128,-1,6
 267 69 267 69 282 86 c 0,7,8
 300 107 300 107 294.5 131 c 128,-1,9
 289 155 289 155 269.5 183 c 128,-1,10
 250 211 250 211 219.5 242 c 128,-1,11
 189 273 189 273 156 307 c 128,-1,12
 123 341 123 341 91.5 378 c 128,-1,13
 60 415 60 415 39 454.5 c 128,-1,14
 18 494 18 494 10.5 535.5 c 128,-1,15
 3 577 3 577 18 621 c 0,16,17
 29 654 29 654 61 671.5 c 128,-1,18
 93 689 93 689 133.5 695 c 128,-1,19
 174 701 174 701 218.5 699 c 128,-1,20
 263 697 263 697 300 692 c 128,-1,21
 337 687 337 687 360.5 681 c 128,-1,22
 384 675 384 675 384 674 c 2,23,-1
 381 604 l 2,24,25
 381 603 381 603 364 610 c 128,-1,26
 347 617 347 617 320.5 625 c 128,-1,27
 294 633 294 633 261.5 639 c 128,-1,28
 229 645 229 645 197.5 643 c 128,-1,29
 166 641 166 641 140 628.5 c 128,-1,30
 114 616 114 616 100 586 c 0,31,32
 83 549 83 549 92.5 511 c 128,-1,33
 102 473 102 473 126.5 434.5 c 128,-1,34
 151 396 151 396 186.5 357.5 c 128,-1,35
 222 319 222 319 257 282.5 c 128,-1,36
 292 246 292 246 321.5 211.5 c 128,-1,37
 351 177 351 177 364.5 145.5 c 128,-1,38
 378 114 378 114 370.5 87 c 128,-1,39
 363 60 363 60 324 38 c 0,40,41
 292 20 292 20 258.5 16.5 c 128,-1,42
 225 13 225 13 192.5 18.5 c 128,-1,43
 160 24 160 24 131.5 35.5 c 128,-1,44
 103 47 103 47 81 59 c 128,-1,45
 59 71 59 71 46.5 79.5 c 128,-1,46
 34 88 34 88 34 89 c 2,47,-1
 72 139 l 1,0,1
EndSplineSet
Validated: 33
EndChar

StartChar: T
Encoding: 84 84 55
Width: 629
GlyphClass: 2
Flags: W
LayerCount: 2
Fore
SplineSet
0 698 m 1,0,-1
 598 691 l 1,1,-1
 592 632 l 1,2,-1
 312 638 l 1,3,-1
 365 7 l 1,4,-1
 266 0 l 1,5,-1
 250 642 l 1,6,-1
 3 647 l 1,7,-1
 0 698 l 1,0,-1
EndSplineSet
Validated: 1
EndChar

StartChar: U
Encoding: 85 85 56
Width: 729
GlyphClass: 2
Flags: W
LayerCount: 2
Fore
SplineSet
21 699 m 1,0,-1
 91 700 l 1,1,2
 84 520 84 520 97 377 c 0,3,4
 104 316 104 316 118.5 258 c 128,-1,5
 133 200 133 200 157 154 c 128,-1,6
 181 108 181 108 216 80.5 c 128,-1,7
 251 53 251 53 301 52 c 0,8,9
 395 51 395 51 452.5 79 c 128,-1,10
 510 107 510 107 538.5 179.5 c 128,-1,11
 567 252 567 252 571 377.5 c 128,-1,12
 575 503 575 503 562 697 c 1,13,-1
 663 699 l 1,14,15
 666 414 666 414 659.5 336 c 128,-1,16
 653 258 653 258 634 196 c 128,-1,17
 615 134 615 134 575.5 90.5 c 128,-1,18
 536 47 536 47 470.5 23.5 c 128,-1,19
 405 0 405 0 305 1 c 0,20,21
 227 0 227 0 176.5 34 c 128,-1,22
 126 68 126 68 94.5 124 c 128,-1,23
 63 180 63 180 48.5 253 c 128,-1,24
 34 326 34 326 28.5 404 c 128,-1,25
 23 482 23 482 21 699 c 1,0,-1
EndSplineSet
Validated: 33
EndChar

StartChar: V
Encoding: 86 86 57
Width: 710
GlyphClass: 2
Flags: W
LayerCount: 2
Fore
SplineSet
11 675 m 1,0,-1
 71 700 l 1,1,-1
 314 117 l 1,2,-1
 585 701 l 1,3,-1
 662 664 l 1,4,-1
 334 -3 l 1,5,-1
 300 0 l 1,6,-1
 11 675 l 1,0,-1
EndSplineSet
Validated: 1
EndChar

StartChar: W
Encoding: 87 87 58
Width: 939
GlyphClass: 2
Flags: W
LayerCount: 2
Fore
SplineSet
714 48 m 1,0,-1
 682 49 l 1,1,-1
 534 407 l 1,2,-1
 356 6 l 1,3,-1
 315 0 l 1,4,-1
 30 667 l 1,5,-1
 108 700 l 1,6,-1
 340 115 l 1,7,-1
 523 526 l 1,8,-1
 548 532 l 1,9,-1
 682 196 l 1,10,-1
 818 671 l 1,11,-1
 898 650 l 1,12,-1
 714 48 l 1,0,-1
EndSplineSet
Validated: 1
EndChar

StartChar: X
Encoding: 88 88 59
Width: 720
GlyphClass: 2
Flags: W
LayerCount: 2
Fore
SplineSet
601 3 m 1,0,-1
 325 341 l 1,1,-1
 110 11 l 1,2,-1
 34 59 l 1,3,-1
 279 394 l 1,4,-1
 49 661 l 1,5,-1
 100 699 l 1,6,-1
 315 447 l 1,7,-1
 472 675 l 1,8,-1
 536 626 l 1,9,-1
 358 390 l 1,10,-1
 655 42 l 1,11,-1
 601 3 l 1,0,-1
EndSplineSet
Validated: 1
EndChar

StartChar: Y
Encoding: 89 89 60
Width: 620
GlyphClass: 2
Flags: W
LayerCount: 2
Fore
SplineSet
27 654 m 1,0,-1
 74 688 l 1,1,-1
 279 439 l 1,2,-1
 488 701 l 1,3,-1
 553 649 l 1,4,-1
 327 386 l 1,5,-1
 354 3 l 1,6,-1
 267 0 l 1,7,-1
 255 388 l 1,8,-1
 27 654 l 1,0,-1
EndSplineSet
Validated: 1
EndChar

StartChar: Z
Encoding: 90 90 61
Width: 638
GlyphClass: 2
Flags: W
LayerCount: 2
Fore
SplineSet
595 694 m 1,0,-1
 596 659 l 1,1,-1
 205 60 l 1,2,-1
 586 78 l 1,3,-1
 591 10 l 1,4,-1
 105 0 l 1,5,-1
 100 45 l 1,6,-1
 500 643 l 1,7,-1
 50 639 l 1,8,-1
 45 700 l 1,9,-1
 595 694 l 1,0,-1
EndSplineSet
Validated: 1
EndChar

StartChar: bracketleft
Encoding: 91 91 62
Width: 200
GlyphClass: 2
Flags: W
LayerCount: 2
Fore
SplineSet
128 700 m 1,0,-1
 128 628 l 1,1,-1
 62 628 l 1,2,-1
 72 37 l 1,3,-1
 140 45 l 1,4,-1
 147 9 l 1,5,-1
 35 0 l 1,6,-1
 2 688 l 1,7,-1
 128 700 l 1,0,-1
EndSplineSet
Validated: 1
EndChar

StartChar: backslash
Encoding: 92 92 63
Width: 369
GlyphClass: 2
Flags: W
LayerCount: 2
Fore
SplineSet
318 74 m 1,0,-1
 277 60 l 1,1,-1
 12 668 l 1,2,-1
 87 679 l 1,3,-1
 318 74 l 1,0,-1
EndSplineSet
Validated: 1
EndChar

StartChar: bracketright
Encoding: 93 93 64
Width: 216
GlyphClass: 2
Flags: W
LayerCount: 2
Fore
SplineSet
32 60 m 1,0,-1
 99 62 l 1,1,-1
 80 662 l 1,2,-1
 9 655 l 1,3,-1
 1 691 l 1,4,-1
 116 702 l 1,5,-1
 163 16 l 1,6,-1
 35 2 l 1,7,-1
 32 60 l 1,0,-1
EndSplineSet
Validated: 1
EndChar

StartChar: asciicircum
Encoding: 94 94 65
Width: 286
GlyphClass: 2
Flags: W
LayerCount: 2
Fore
SplineSet
133 753 m 1,0,-1
 236 583 l 1,1,-1
 206 576 l 1,2,-1
 131 711 l 1,3,-1
 43 569 l 1,4,-1
 0 594 l 1,5,-1
 133 753 l 1,0,-1
EndSplineSet
Validated: 1
EndChar

StartChar: underscore
Encoding: 95 95 66
Width: 445
GlyphClass: 2
Flags: W
LayerCount: 2
Fore
SplineSet
0 -64 m 1,0,-1
 445 -64 l 1,1,-1
 445 -104 l 1,2,-1
 0 -104 l 1,3,-1
 0 -64 l 1,0,-1
EndSplineSet
Validated: 1
EndChar

StartChar: grave
Encoding: 96 96 67
Width: 131
GlyphClass: 2
Flags: W
LayerCount: 2
Fore
SplineSet
0 705 m 1,0,-1
 38 750 l 1,1,-1
 131 640 l 1,2,-1
 117 619 l 1,3,-1
 0 705 l 1,0,-1
EndSplineSet
Validated: 1
EndChar

StartChar: a
Encoding: 97 97 68
Width: 637
GlyphClass: 2
Flags: W
LayerCount: 2
Fore
SplineSet
571 455 m 1,0,-1
 565 4 l 1,1,-1
 480 5 l 1,2,-1
 483 76 l 1,3,4
 446 42 446 42 397.5 25 c 128,-1,5
 349 8 349 8 294 7 c 0,6,7
 236 6 236 6 187 24.5 c 128,-1,8
 138 43 138 43 103 76.5 c 128,-1,9
 68 110 68 110 50.5 156 c 128,-1,10
 33 202 33 202 38 256 c 0,11,12
 43 309 43 309 67.5 349.5 c 128,-1,13
 92 390 92 390 129.5 417 c 128,-1,14
 167 444 167 444 215.5 458 c 128,-1,15
 264 472 264 472 318 472 c 0,16,17
 367 472 367 472 412.5 454.5 c 128,-1,18
 458 437 458 437 486 405 c 1,19,-1
 488 455 l 1,20,-1
 571 455 l 1,0,-1
279 53 m 0,21,22
 333 51 333 51 372 67.5 c 128,-1,23
 411 84 411 84 435.5 111 c 128,-1,24
 460 138 460 138 468.5 171.5 c 128,-1,25
 477 205 477 205 478 237 c 0,26,27
 479 271 479 271 472.5 304 c 128,-1,28
 466 337 466 337 444 363 c 128,-1,29
 422 389 422 389 387.5 405.5 c 128,-1,30
 353 422 353 422 307 423 c 0,31,32
 279 424 279 424 246.5 414.5 c 128,-1,33
 214 405 214 405 186 384 c 128,-1,34
 158 363 158 363 138.5 330.5 c 128,-1,35
 119 298 119 298 117 251 c 0,36,37
 116 230 116 230 118.5 207.5 c 128,-1,38
 121 185 121 185 129 163.5 c 128,-1,39
 137 142 137 142 149 122.5 c 128,-1,40
 161 103 161 103 179.5 88 c 128,-1,41
 198 73 198 73 222.5 63.5 c 128,-1,42
 247 54 247 54 279 53 c 0,21,22
EndSplineSet
Validated: 33
EndChar

StartChar: b
Encoding: 98 98 69
Width: 576
GlyphClass: 2
Flags: W
LayerCount: 2
Fore
SplineSet
72 693 m 1,0,-1
 73 408 l 1,1,2
 108 440 108 440 154.5 458 c 128,-1,3
 201 476 201 476 251 476 c 0,4,5
 307 476 307 476 355.5 463 c 128,-1,6
 404 450 404 450 441.5 423 c 128,-1,7
 479 396 479 396 502.5 355.5 c 128,-1,8
 526 315 526 315 532 261 c 0,9,10
 537 206 537 206 520 157.5 c 128,-1,11
 503 109 503 109 468.5 74 c 128,-1,12
 434 39 434 39 384.5 19 c 128,-1,13
 335 -1 335 -1 275 0 c 0,14,15
 220 1 220 1 170.5 18.5 c 128,-1,16
 121 36 121 36 83 70 c 1,17,-1
 85 -2 l 1,18,-1
 6 -3 l 1,19,-1
 0 693 l 1,20,-1
 72 693 l 1,0,-1
81 235 m 0,21,22
 82 203 82 203 94 168.5 c 128,-1,23
 106 134 106 134 131.5 106.5 c 128,-1,24
 157 79 157 79 196 62 c 128,-1,25
 235 45 235 45 291 47 c 0,26,27
 340 49 340 49 372.5 68.5 c 128,-1,28
 405 88 405 88 424.5 117.5 c 128,-1,29
 444 147 444 147 451.5 182 c 128,-1,30
 459 217 459 217 458 250 c 0,31,32
 455 297 455 297 435.5 331 c 128,-1,33
 416 365 416 365 387 386 c 128,-1,34
 358 407 358 407 324.5 416.5 c 128,-1,35
 291 426 291 426 262 426 c 0,36,37
 215 425 215 425 180 408 c 128,-1,38
 145 391 145 391 122.5 364 c 128,-1,39
 100 337 100 337 89.5 303.5 c 128,-1,40
 79 270 79 270 81 235 c 0,21,22
EndSplineSet
Validated: 33
EndChar

StartChar: c
Encoding: 99 99 70
Width: 471
GlyphClass: 2
Flags: W
LayerCount: 2
Fore
SplineSet
452 467 m 1,0,-1
 451 385 l 1,1,2
 364 422 364 422 271 417 c 0,3,4
 242 414 242 414 214 406 c 128,-1,5
 186 398 186 398 161.5 382.5 c 128,-1,6
 137 367 137 367 114 340.5 c 128,-1,7
 91 314 91 314 82 276 c 0,8,9
 75 241 75 241 78 221 c 128,-1,10
 81 201 81 201 88.5 174.5 c 128,-1,11
 96 148 96 148 122.5 119 c 128,-1,12
 149 90 149 90 186 70 c 128,-1,13
 223 50 223 50 272.5 49.5 c 128,-1,14
 322 49 322 49 399 74 c 1,15,16
 402 13 402 13 402 11 c 0,17,18
 363 -4 363 -4 313.5 -7 c 128,-1,19
 264 -10 264 -10 217.5 0 c 128,-1,20
 171 10 171 10 128 33.5 c 128,-1,21
 85 57 85 57 55.5 99 c 128,-1,22
 26 141 26 141 14.5 199 c 128,-1,23
 3 257 3 257 30 338 c 1,24,25
 49 380 49 380 73.5 408.5 c 128,-1,26
 98 437 98 437 128.5 455 c 128,-1,27
 159 473 159 473 193 481.5 c 128,-1,28
 227 490 227 490 261 494 c 0,29,30
 366 501 366 501 452 467 c 1,0,-1
EndSplineSet
Validated: 33
EndChar

StartChar: d
Encoding: 100 100 71
Width: 617
GlyphClass: 2
Flags: W
LayerCount: 2
Fore
SplineSet
592 693 m 1,0,-1
 586 -3 l 1,1,-1
 479 -2 l 1,2,-1
 481 70 l 1,3,4
 443 36 443 36 393.5 18.5 c 128,-1,5
 344 1 344 1 289 0 c 0,6,7
 229 -1 229 -1 178.5 18 c 128,-1,8
 128 37 128 37 92.5 71 c 128,-1,9
 57 105 57 105 39 152 c 128,-1,10
 21 199 21 199 26 254 c 256,11,12
 31 309 31 309 56 350.5 c 128,-1,13
 81 392 81 392 119.5 420 c 128,-1,14
 158 448 158 448 207.5 462 c 128,-1,15
 257 476 257 476 313 476 c 0,16,17
 363 476 363 476 409.5 458 c 128,-1,18
 456 440 456 440 491 408 c 1,19,-1
 492 693 l 1,20,-1
 592 693 l 1,0,-1
273 47 m 0,21,22
 329 45 329 45 368 62 c 128,-1,23
 407 79 407 79 432.5 106.5 c 128,-1,24
 458 134 458 134 470 168.5 c 128,-1,25
 482 203 482 203 483 235 c 0,26,27
 485 270 485 270 474.5 303.5 c 128,-1,28
 464 337 464 337 441.5 364 c 128,-1,29
 419 391 419 391 384 408 c 128,-1,30
 349 425 349 425 302 426 c 0,31,32
 282 426 282 426 260.5 422 c 128,-1,33
 239 418 239 418 218 409 c 128,-1,34
 197 400 197 400 177.5 386 c 128,-1,35
 158 372 158 372 143 352.5 c 128,-1,36
 128 333 128 333 118 307 c 128,-1,37
 108 281 108 281 107 250 c 0,38,39
 105 217 105 217 112.5 182 c 128,-1,40
 120 147 120 147 139.5 117.5 c 128,-1,41
 159 88 159 88 191.5 68.5 c 128,-1,42
 224 49 224 49 273 47 c 0,21,22
EndSplineSet
Validated: 33
EndChar

StartChar: e
Encoding: 101 101 72
Width: 598
GlyphClass: 2
Flags: W
LayerCount: 2
Fore
SplineSet
558 221 m 1,0,1
 564 220 564 220 547.5 220 c 128,-1,2
 531 220 531 220 500.5 220 c 128,-1,3
 470 220 470 220 429 220 c 128,-1,4
 388 220 388 220 344 220 c 128,-1,5
 300 220 300 220 257.5 220 c 128,-1,6
 215 220 215 220 181 220 c 128,-1,7
 147 220 147 220 125.5 220 c 128,-1,8
 104 220 104 220 102 219 c 0,9,10
 107 189 107 189 121 164.5 c 128,-1,11
 135 140 135 140 154.5 122 c 128,-1,12
 174 104 174 104 197.5 91.5 c 128,-1,13
 221 79 221 79 243 74 c 0,14,15
 257 71 257 71 276.5 69.5 c 128,-1,16
 296 68 296 68 322.5 69.5 c 128,-1,17
 349 71 349 71 381.5 78 c 128,-1,18
 414 85 414 85 453 100 c 1,19,-1
 468 20 l 1,20,21
 439 6 439 6 402 -1 c 128,-1,22
 365 -8 365 -8 327.5 -8.5 c 128,-1,23
 290 -9 290 -9 256.5 -4 c 128,-1,24
 223 1 223 1 201 12 c 0,25,26
 174 24 174 24 148 39.5 c 128,-1,27
 122 55 122 55 100 77.5 c 128,-1,28
 78 100 78 100 61.5 130 c 128,-1,29
 45 160 45 160 38 199 c 0,30,31
 30 247 30 247 37 287 c 128,-1,32
 44 327 44 327 62 360 c 128,-1,33
 80 393 80 393 107 418 c 128,-1,34
 134 443 134 443 166.5 459.5 c 128,-1,35
 199 476 199 476 234.5 483.5 c 128,-1,36
 270 491 270 491 304 491 c 0,37,38
 366 489 366 489 414.5 468.5 c 128,-1,39
 463 448 463 448 495.5 412.5 c 128,-1,40
 528 377 528 377 544 328.5 c 128,-1,41
 560 280 560 280 558 221 c 1,0,1
472 269 m 1,42,43
 464 306 464 306 452.5 334 c 128,-1,44
 441 362 441 362 417 382 c 128,-1,45
 393 402 393 402 365.5 414.5 c 128,-1,46
 338 427 338 427 308 431 c 0,47,48
 271 437 271 437 235 428 c 128,-1,49
 199 419 199 419 170.5 398.5 c 128,-1,50
 142 378 142 378 124.5 347.5 c 128,-1,51
 107 317 107 317 106 281 c 1,52,-1
 472 269 l 1,42,43
EndSplineSet
Validated: 33
EndChar

StartChar: f
Encoding: 102 102 73
Width: 357
GlyphClass: 2
Flags: W
LayerCount: 2
Fore
SplineSet
133 6 m 1,0,-1
 54 2 l 1,1,2
 51 141 51 141 49 243.5 c 128,-1,3
 47 346 47 346 49.5 420 c 128,-1,4
 52 494 52 494 60 543 c 128,-1,5
 68 592 68 592 83.5 623 c 128,-1,6
 99 654 99 654 123.5 670.5 c 128,-1,7
 148 687 148 687 183 696 c 0,8,9
 197 699 197 699 214 700.5 c 128,-1,10
 231 702 231 702 250 698.5 c 128,-1,11
 269 695 269 695 290.5 686 c 128,-1,12
 312 677 312 677 334 660 c 1,13,-1
 301 602 l 1,14,15
 289 611 289 611 277.5 618 c 128,-1,16
 266 625 266 625 255 629 c 128,-1,17
 244 633 244 633 231.5 634.5 c 128,-1,18
 219 636 219 636 206 637 c 0,19,20
 179 636 179 636 162 622.5 c 128,-1,21
 145 609 145 609 134.5 588 c 128,-1,22
 124 567 124 567 120 540.5 c 128,-1,23
 116 514 116 514 115 487 c 128,-1,24
 114 460 114 460 114.5 436.5 c 128,-1,25
 115 413 115 413 115 396 c 2,26,-1
 133 6 l 1,0,-1
114 460 m 1,27,-1
 235 457 l 1,28,-1
 235 404 l 1,29,-1
 115 405 l 1,30,-1
 114 460 l 1,27,-1
52 400 m 1,31,-1
 -43 401 l 1,32,-1
 -43 465 l 1,33,-1
 55 462 l 1,34,-1
 52 400 l 1,31,-1
EndSplineSet
Validated: 37
EndChar

StartChar: g
Encoding: 103 103 74
Width: 598
GlyphClass: 2
Flags: W
LayerCount: 2
Fore
SplineSet
255 65 m 0,0,1
 301 59 301 59 339 72.5 c 128,-1,2
 377 86 377 86 402 111.5 c 128,-1,3
 427 137 427 137 439 171 c 128,-1,4
 451 205 451 205 452 240 c 0,5,6
 453 279 453 279 446.5 314 c 128,-1,7
 440 349 440 349 419.5 375.5 c 128,-1,8
 399 402 399 402 365.5 419 c 128,-1,9
 332 436 332 436 285 437 c 0,10,11
 253 439 253 439 219 432 c 128,-1,12
 185 425 185 425 156 406 c 128,-1,13
 127 387 127 387 107 353.5 c 128,-1,14
 87 320 87 320 84 270 c 0,15,16
 81 236 81 236 89.5 202 c 128,-1,17
 98 168 98 168 119 139.5 c 128,-1,18
 140 111 140 111 173.5 91 c 128,-1,19
 207 71 207 71 255 65 c 0,0,1
306 497 m 0,20,21
 334 494 334 494 356.5 487.5 c 128,-1,22
 379 481 379 481 397 473 c 128,-1,23
 415 465 415 465 428 458 c 128,-1,24
 441 451 441 451 449 446 c 1,25,-1
 448 476 l 1,26,-1
 551 476 l 1,27,28
 548 337 548 337 545 231.5 c 128,-1,29
 542 126 542 126 535 48 c 128,-1,30
 528 -30 528 -30 517 -83 c 128,-1,31
 506 -136 506 -136 480.5 -169 c 128,-1,32
 455 -202 455 -202 418.5 -217.5 c 128,-1,33
 382 -233 382 -233 339 -236 c 0,34,35
 302 -238 302 -238 264 -223 c 128,-1,36
 226 -208 226 -208 196 -172 c 1,37,-1
 241 -125 l 1,38,39
 253 -140 253 -140 263.5 -149.5 c 128,-1,40
 274 -159 274 -159 284 -166 c 128,-1,41
 294 -173 294 -173 305 -176.5 c 128,-1,42
 316 -180 316 -180 330 -182 c 0,43,44
 355 -185 355 -185 373.5 -174.5 c 128,-1,45
 392 -164 392 -164 404.5 -144 c 128,-1,46
 417 -124 417 -124 424.5 -98 c 128,-1,47
 432 -72 432 -72 436 -44.5 c 128,-1,48
 440 -17 440 -17 441.5 9.5 c 128,-1,49
 443 36 443 36 444 57 c 1,50,51
 428 43 428 43 408 33.5 c 128,-1,52
 388 24 388 24 366 18.5 c 128,-1,53
 344 13 344 13 319.5 11 c 128,-1,54
 295 9 295 9 269 8 c 0,55,56
 229 8 229 8 192.5 17 c 128,-1,57
 156 26 156 26 125.5 43.5 c 128,-1,58
 95 61 95 61 70.5 85 c 128,-1,59
 46 109 46 109 31 139 c 128,-1,60
 16 169 16 169 9 203.5 c 128,-1,61
 2 238 2 238 7 275 c 0,62,63
 14 331 14 331 40.5 374.5 c 128,-1,64
 67 418 67 418 107.5 447.5 c 128,-1,65
 148 477 148 477 199 490 c 128,-1,66
 250 503 250 503 306 497 c 0,20,21
EndSplineSet
Validated: 33
EndChar

StartChar: h
Encoding: 104 104 75
Width: 523
GlyphClass: 2
Flags: W
LayerCount: 2
Fore
SplineSet
381 8 m 1,0,1
 380 33 380 33 381.5 65.5 c 128,-1,2
 383 98 383 98 384 133.5 c 128,-1,3
 385 169 385 169 384 205.5 c 128,-1,4
 383 242 383 242 378 275.5 c 128,-1,5
 373 309 373 309 363 338 c 128,-1,6
 353 367 353 367 335 388 c 128,-1,7
 317 409 317 409 290 420 c 128,-1,8
 263 431 263 431 225 427 c 0,9,10
 192 424 192 424 166.5 413 c 128,-1,11
 141 402 141 402 123 379 c 128,-1,12
 105 356 105 356 95.5 320 c 128,-1,13
 86 284 86 284 86 231 c 2,14,-1
 90 70 l 1,15,-1
 94 1 l 1,16,-1
 16 0 l 1,17,-1
 -6 701 l 1,18,-1
 66 702 l 1,19,-1
 78 410 l 1,20,21
 88 422 88 422 101.5 432.5 c 128,-1,22
 115 443 115 443 130.5 451 c 128,-1,23
 146 459 146 459 161.5 464.5 c 128,-1,24
 177 470 177 470 192 472 c 0,25,26
 256 483 256 483 301 476.5 c 128,-1,27
 346 470 346 470 376 446 c 128,-1,28
 406 422 406 422 423.5 382 c 128,-1,29
 441 342 441 342 450 286.5 c 128,-1,30
 459 231 459 231 461.5 161.5 c 128,-1,31
 464 92 464 92 465 8 c 1,32,-1
 381 8 l 1,0,1
EndSplineSet
Validated: 33
EndChar

StartChar: i
Encoding: 105 105 76
Width: 229
GlyphClass: 2
Flags: W
LayerCount: 2
Fore
SplineSet
59 449 m 1,0,-1
 43 1 l 1,1,-1
 150 0 l 1,2,-1
 159 450 l 1,3,-1
 59 449 l 1,0,-1
60 565 m 0,4,5
 60 574 60 574 63.5 581.5 c 128,-1,6
 67 589 67 589 73 595 c 128,-1,7
 79 601 79 601 87 604.5 c 128,-1,8
 95 608 95 608 103 608 c 0,9,10
 112 608 112 608 120 604.5 c 128,-1,11
 128 601 128 601 134 595 c 128,-1,12
 140 589 140 589 143.5 581.5 c 128,-1,13
 147 574 147 574 147 565 c 0,14,15
 147 547 147 547 134 534.5 c 128,-1,16
 121 522 121 522 103 522 c 0,17,18
 86 522 86 522 73 534.5 c 128,-1,19
 60 547 60 547 60 565 c 0,4,5
EndSplineSet
Validated: 9
EndChar

StartChar: j
Encoding: 106 106 77
Width: 362
GlyphClass: 2
Flags: W
LayerCount: 2
Fore
SplineSet
219 61 m 2,0,1
 219 40 219 40 217.5 13.5 c 128,-1,2
 216 -13 216 -13 212 -40.5 c 128,-1,3
 208 -68 208 -68 200 -94 c 128,-1,4
 192 -120 192 -120 179.5 -140 c 128,-1,5
 167 -160 167 -160 148.5 -170.5 c 128,-1,6
 130 -181 130 -181 105 -178 c 0,7,8
 91 -176 91 -176 80 -172.5 c 128,-1,9
 69 -169 69 -169 59 -162 c 128,-1,10
 49 -155 49 -155 39 -145.5 c 128,-1,11
 29 -136 29 -136 17 -122 c 1,12,-1
 -28 -168 l 1,13,14
 1 -206 1 -206 36.5 -221.5 c 128,-1,15
 72 -237 72 -237 114 -237 c 0,16,17
 162 -235 162 -235 192.5 -218 c 128,-1,18
 223 -201 223 -201 244 -166.5 c 128,-1,19
 265 -132 265 -132 278 -79 c 128,-1,20
 291 -26 291 -26 294.5 52 c 128,-1,21
 298 130 298 130 301 235.5 c 128,-1,22
 304 341 304 341 308 480 c 1,23,-1
 224 480 l 1,24,-1
 219 61 l 2,0,1
226 571 m 0,25,26
 226 580 226 580 229.5 588 c 128,-1,27
 233 596 233 596 239 601.5 c 128,-1,28
 245 607 245 607 252.5 610.5 c 128,-1,29
 260 614 260 614 269 614 c 256,30,31
 278 614 278 614 286 610.5 c 128,-1,32
 294 607 294 607 300 601.5 c 128,-1,33
 306 596 306 596 309 588 c 128,-1,34
 312 580 312 580 312 571 c 0,35,36
 312 553 312 553 299.5 540.5 c 128,-1,37
 287 528 287 528 269 528 c 256,38,39
 251 528 251 528 238.5 540.5 c 128,-1,40
 226 553 226 553 226 571 c 0,25,26
EndSplineSet
Validated: 41
EndChar

StartChar: k
Encoding: 107 107 78
Width: 501
GlyphClass: 2
Flags: W
LayerCount: 2
Fore
SplineSet
0 697 m 1,0,-1
 66 699 l 1,1,-1
 66 321 l 1,2,-1
 353 510 l 1,3,-1
 397 450 l 1,4,-1
 114 283 l 1,5,-1
 439 83 l 1,6,-1
 385 15 l 1,7,-1
 76 243 l 1,8,-1
 87 4 l 1,9,-1
 18 1 l 1,10,-1
 0 697 l 1,0,-1
EndSplineSet
Validated: 1
EndChar

StartChar: l
Encoding: 108 108 79
Width: 167
GlyphClass: 2
Flags: W
LayerCount: 2
Fore
SplineSet
28 711 m 1,0,-1
 128 712 l 1,1,-1
 129 0 l 1,2,-1
 36 0 l 1,3,-1
 28 711 l 1,0,-1
EndSplineSet
Validated: 1
EndChar

StartChar: m
Encoding: 109 109 80
Width: 879
GlyphClass: 2
Flags: W
LayerCount: 2
Fore
SplineSet
558 470 m 0,0,1
 634 482 634 482 680.5 458.5 c 128,-1,2
 727 435 727 435 752 377 c 128,-1,3
 777 319 777 319 783 226 c 128,-1,4
 789 133 789 133 783 5 c 1,5,-1
 691 5 l 1,6,7
 691 38 691 38 693.5 82.5 c 128,-1,8
 696 127 696 127 696.5 174.5 c 128,-1,9
 697 222 697 222 693 268 c 128,-1,10
 689 314 689 314 676 348.5 c 128,-1,11
 663 383 663 383 638 402.5 c 128,-1,12
 613 422 613 422 572 417 c 0,13,14
 537 412 537 412 514.5 390 c 128,-1,15
 492 368 492 368 479.5 335.5 c 128,-1,16
 467 303 467 303 461.5 264.5 c 128,-1,17
 456 226 456 226 455 188 c 0,18,19
 458 150 458 150 459 107.5 c 128,-1,20
 460 65 460 65 461 18 c 1,21,-1
 381 18 l 1,22,23
 381 50 381 50 382.5 95 c 128,-1,24
 384 140 384 140 382.5 187.5 c 128,-1,25
 381 235 381 235 373.5 281.5 c 128,-1,26
 366 328 366 328 348.5 364 c 128,-1,27
 331 400 331 400 300 420.5 c 128,-1,28
 269 441 269 441 221 437 c 0,29,30
 90 427 90 427 88 231 c 1,31,-1
 92 70 l 1,32,-1
 96 1 l 1,33,-1
 14 0 l 1,34,-1
 1 460 l 1,35,-1
 78 461 l 1,36,-1
 80 410 l 1,37,38
 97 436 97 436 124.5 454.5 c 128,-1,39
 152 473 152 473 189 481 c 0,40,41
 284 503 284 503 338.5 476.5 c 128,-1,42
 393 450 393 450 420 380 c 1,43,44
 427 389 427 389 440 403 c 128,-1,45
 453 417 453 417 471 431 c 128,-1,46
 489 445 489 445 511 456 c 128,-1,47
 533 467 533 467 558 470 c 0,0,1
EndSplineSet
Validated: 33
EndChar

StartChar: n
Encoding: 110 110 81
Width: 603
GlyphClass: 2
Flags: W
LayerCount: 2
Fore
SplineSet
434 18 m 1,0,1
 434 42 434 42 435 73.5 c 128,-1,2
 436 105 436 105 437 140 c 128,-1,3
 438 175 438 175 437.5 211.5 c 128,-1,4
 437 248 437 248 431.5 282 c 128,-1,5
 426 316 426 316 416 345.5 c 128,-1,6
 406 375 406 375 390.5 396.5 c 128,-1,7
 375 418 375 418 350.5 429 c 128,-1,8
 326 440 326 440 288 437 c 0,9,10
 255 434 255 434 225.5 419.5 c 128,-1,11
 196 405 196 405 173 379.5 c 128,-1,12
 150 354 150 354 136 316.5 c 128,-1,13
 122 279 122 279 121 231 c 2,14,-1
 125 70 l 1,15,-1
 129 1 l 1,16,-1
 51 0 l 1,17,-1
 38 460 l 1,18,-1
 111 461 l 1,19,-1
 113 410 l 1,20,21
 145 438 145 438 180.5 455 c 128,-1,22
 216 472 216 472 256 481 c 0,23,24
 319 496 319 496 366 491.5 c 128,-1,25
 413 487 413 487 448.5 462 c 128,-1,26
 484 437 484 437 506 396 c 128,-1,27
 528 355 528 355 534.5 299 c 128,-1,28
 541 243 541 243 544 172.5 c 128,-1,29
 547 102 547 102 547 18 c 1,30,-1
 434 18 l 1,0,1
EndSplineSet
Validated: 33
EndChar

StartChar: o
Encoding: 111 111 82
Width: 608
GlyphClass: 2
Flags: W
LayerCount: 2
Fore
SplineSet
558 241 m 0,0,1
 555 180 555 180 531.5 132.5 c 128,-1,2
 508 85 508 85 469 53 c 128,-1,3
 430 21 430 21 382 3.5 c 128,-1,4
 334 -14 334 -14 292 -14 c 0,5,6
 242 -15 242 -15 189 4.5 c 128,-1,7
 136 24 136 24 97.5 58 c 128,-1,8
 59 92 59 92 39 140 c 128,-1,9
 19 188 19 188 24 243 c 0,10,11
 30 298 30 298 54.5 341.5 c 128,-1,12
 79 385 79 385 118 414.5 c 128,-1,13
 157 444 157 444 208 461.5 c 128,-1,14
 259 479 259 479 307 478 c 0,15,16
 346 478 346 478 394.5 460 c 128,-1,17
 443 442 443 442 480 410.5 c 128,-1,18
 517 379 517 379 539 336 c 128,-1,19
 561 293 561 293 558 241 c 0,0,1
282 34 m 0,20,21
 309 33 309 33 333.5 41 c 128,-1,22
 358 49 358 49 382 63.5 c 128,-1,23
 406 78 406 78 423.5 98 c 128,-1,24
 441 118 441 118 452 140.5 c 128,-1,25
 463 163 463 163 467 186.5 c 128,-1,26
 471 210 471 210 472 233 c 0,27,28
 474 268 474 268 464 301.5 c 128,-1,29
 454 335 454 335 431.5 361.5 c 128,-1,30
 409 388 409 388 373.5 405.5 c 128,-1,31
 338 423 338 423 302 424 c 0,32,33
 278 426 278 426 243 415.5 c 128,-1,34
 208 405 208 405 178 382.5 c 128,-1,35
 148 360 148 360 127.5 324.5 c 128,-1,36
 107 289 107 289 106 240 c 0,37,38
 104 207 104 207 113.5 171.5 c 128,-1,39
 123 136 123 136 144.5 106 c 128,-1,40
 166 76 166 76 200 56 c 128,-1,41
 234 36 234 36 282 34 c 0,20,21
EndSplineSet
Validated: 33
EndChar

StartChar: p
Encoding: 112 112 83
Width: 585
GlyphClass: 2
Flags: W
LayerCount: 2
Fore
SplineSet
94 466 m 1,0,-1
 96 416 l 1,1,2
 129 448 129 448 172 463.5 c 128,-1,3
 215 479 215 479 264 481 c 0,4,5
 316 484 316 484 362 472.5 c 128,-1,6
 408 461 408 461 444 435 c 128,-1,7
 480 409 480 409 504 368 c 128,-1,8
 528 327 528 327 535 271 c 0,9,10
 540 216 540 216 523.5 168 c 128,-1,11
 507 120 507 120 476.5 81 c 128,-1,12
 446 42 446 42 396.5 17.5 c 128,-1,13
 347 -7 347 -7 290 -5 c 0,14,15
 264 -4 264 -4 238.5 0.5 c 128,-1,16
 213 5 213 5 188.5 14.5 c 128,-1,17
 164 24 164 24 141.5 37 c 128,-1,18
 119 50 119 50 99 64 c 1,19,-1
 100 -208 l 1,20,-1
 33 -209 l 1,21,-1
 28 466 l 1,22,-1
 94 466 l 1,0,-1
102 246 m 0,23,24
 102 209 102 209 113 173.5 c 128,-1,25
 124 138 124 138 148 111 c 128,-1,26
 172 84 172 84 211 69 c 128,-1,27
 250 54 250 54 304 60 c 0,28,29
 336 63 336 63 360 73.5 c 128,-1,30
 384 84 384 84 402 99 c 128,-1,31
 420 114 420 114 432.5 133 c 128,-1,32
 445 152 445 152 453 173 c 128,-1,33
 461 194 461 194 463.5 216 c 128,-1,34
 466 238 466 238 465 259 c 0,35,36
 463 306 463 306 444 339.5 c 128,-1,37
 425 373 425 373 397 394 c 128,-1,38
 369 415 369 415 337 424.5 c 128,-1,39
 305 434 305 434 277 434 c 0,40,41
 232 433 232 433 198.5 416 c 128,-1,42
 165 399 165 399 143 373 c 128,-1,43
 121 347 121 347 110.5 313.5 c 128,-1,44
 100 280 100 280 102 246 c 0,23,24
EndSplineSet
Validated: 33
EndChar

StartChar: q
Encoding: 113 113 84
Width: 580
GlyphClass: 2
Flags: W
LayerCount: 2
Fore
SplineSet
521 460 m 1,0,-1
 528 -230 l 1,1,-1
 452 -231 l 1,2,-1
 453 83 l 1,3,4
 417 48 417 48 369 30 c 128,-1,5
 321 12 321 12 266 10 c 0,6,7
 208 7 208 7 158.5 24.5 c 128,-1,8
 109 42 109 42 73.5 74.5 c 128,-1,9
 38 107 38 107 19.5 153 c 128,-1,10
 1 199 1 199 5 253 c 0,11,12
 9 306 9 306 32.5 347 c 128,-1,13
 56 388 56 388 93 416 c 128,-1,14
 130 444 130 444 178 459 c 128,-1,15
 226 474 226 474 280 475 c 0,16,17
 329 476 329 476 375 459.5 c 128,-1,18
 421 443 421 443 456 412 c 1,19,-1
 456 461 l 1,20,-1
 521 460 l 1,0,-1
250 55 m 0,21,22
 286 55 286 55 315 62.5 c 128,-1,23
 344 70 344 70 366.5 84 c 128,-1,24
 389 98 389 98 405 116.5 c 128,-1,25
 421 135 421 135 431 156 c 128,-1,26
 441 177 441 177 446 199.5 c 128,-1,27
 451 222 451 222 452 243 c 0,28,29
 453 277 453 277 442 310 c 128,-1,30
 431 343 431 343 408 368.5 c 128,-1,31
 385 394 385 394 350.5 410 c 128,-1,32
 316 426 316 426 271 426 c 0,33,34
 252 426 252 426 231 421.5 c 128,-1,35
 210 417 210 417 189.5 407.5 c 128,-1,36
 169 398 169 398 150 384 c 128,-1,37
 131 370 131 370 116.5 350.5 c 128,-1,38
 102 331 102 331 93.5 306 c 128,-1,39
 85 281 85 281 84 250 c 0,40,41
 83 218 83 218 91 184 c 128,-1,42
 99 150 99 150 118.5 121.5 c 128,-1,43
 138 93 138 93 170 74.5 c 128,-1,44
 202 56 202 56 250 55 c 0,21,22
EndSplineSet
Validated: 33
EndChar

StartChar: r
Encoding: 114 114 85
Width: 401
GlyphClass: 2
Flags: W
LayerCount: 2
Fore
SplineSet
103 4 m 1,0,-1
 28 0 l 1,1,-1
 25 459 l 1,2,-1
 95 461 l 1,3,-1
 96 382 l 1,4,5
 104 393 104 393 117 405.5 c 128,-1,6
 130 418 130 418 147 430 c 128,-1,7
 164 442 164 442 185.5 451.5 c 128,-1,8
 207 461 207 461 232.5 465 c 128,-1,9
 258 469 258 469 287.5 464.5 c 128,-1,10
 317 460 317 460 351 445 c 1,11,-1
 331 375 l 1,12,13
 304 390 304 390 276 396.5 c 128,-1,14
 248 403 248 403 220.5 400 c 128,-1,15
 193 397 193 397 169.5 384.5 c 128,-1,16
 146 372 146 372 128.5 347.5 c 128,-1,17
 111 323 111 323 102 287 c 128,-1,18
 93 251 93 251 95 202 c 2,19,-1
 103 4 l 1,0,-1
EndSplineSet
Validated: 33
EndChar

StartChar: s
Encoding: 115 115 86
Width: 435
GlyphClass: 2
Flags: W
LayerCount: 2
Fore
SplineSet
74 126 m 1,0,1
 117 76 117 76 173 56 c 128,-1,2
 229 36 229 36 246.5 69 c 128,-1,3
 264 102 264 102 219 138.5 c 128,-1,4
 174 175 174 175 122.5 212 c 128,-1,5
 71 249 71 249 47 279 c 128,-1,6
 23 309 23 309 18 345 c 128,-1,7
 13 381 13 381 33 424 c 1,8,9
 57 464 57 464 108.5 487.5 c 128,-1,10
 160 511 160 511 232 500 c 128,-1,11
 304 489 304 489 349 460 c 128,-1,12
 394 431 394 431 394 430 c 2,13,-1
 349 351 l 1,14,15
 293 410 293 410 243.5 425.5 c 128,-1,16
 194 441 194 441 151.5 429.5 c 128,-1,17
 109 418 109 418 91 381 c 1,18,19
 76 337 76 337 106.5 302.5 c 128,-1,20
 137 268 137 268 195.5 225 c 128,-1,21
 254 182 254 182 285.5 146.5 c 128,-1,22
 317 111 317 111 313 68.5 c 128,-1,23
 309 26 309 26 257 0 c 1,24,25
 215 -14 215 -14 176.5 -8 c 128,-1,26
 138 -2 138 -2 111 12 c 128,-1,27
 84 26 84 26 31 66 c 1,28,-1
 74 126 l 1,0,1
EndSplineSet
Validated: 33
EndChar

StartChar: t
Encoding: 116 116 87
Width: 350
GlyphClass: 1
Flags: W
LayerCount: 2
Fore
SplineSet
169 407 m 1,0,-1
 178 5 l 1,1,-1
 99 2 l 1,2,-1
 97 402 l 1,3,-1
 1 403 l 1,4,-1
 2 467 l 1,5,-1
 102 463 l 1,6,-1
 101 624 l 1,7,-1
 161 624 l 1,8,-1
 165 461 l 1,9,-1
 289 458 l 1,10,-1
 289 406 l 1,11,-1
 169 407 l 1,0,-1
EndSplineSet
EndChar

StartChar: u
Encoding: 117 117 88
Width: 555
GlyphClass: 2
Flags: W
LayerCount: 2
Fore
SplineSet
102 473 m 1,0,1
 101 450 101 450 98.5 419 c 128,-1,2
 96 388 96 388 93.5 353 c 128,-1,3
 91 318 91 318 91 281 c 128,-1,4
 91 244 91 244 95 209.5 c 128,-1,5
 99 175 99 175 108.5 144 c 128,-1,6
 118 113 118 113 135.5 90 c 128,-1,7
 153 67 153 67 179.5 54 c 128,-1,8
 206 41 206 41 245 42 c 0,9,10
 282 42 282 42 313 55.5 c 128,-1,11
 344 69 344 69 367 94 c 128,-1,12
 390 119 390 119 403.5 155.5 c 128,-1,13
 417 192 417 192 419 240 c 2,14,-1
 422 467 l 1,15,-1
 500 465 l 1,16,-1
 493 8 l 1,17,-1
 420 10 l 1,18,-1
 420 62 l 1,19,20
 387 34 387 34 351 16 c 128,-1,21
 315 -2 315 -2 274 -4 c 0,22,23
 211 -7 211 -7 166.5 4 c 128,-1,24
 122 15 122 15 93 40 c 128,-1,25
 64 65 64 65 48.5 105 c 128,-1,26
 33 145 33 145 25.5 199 c 128,-1,27
 18 253 18 253 18 322 c 128,-1,28
 18 391 18 391 19 476 c 1,29,-1
 102 473 l 1,0,1
EndSplineSet
Validated: 33
EndChar

StartChar: v
Encoding: 118 118 89
Width: 562
GlyphClass: 2
Flags: W
LayerCount: 2
Fore
SplineSet
1 457 m 1,0,-1
 62 487 l 1,1,-1
 257 106 l 1,2,-1
 448 489 l 1,3,-1
 525 451 l 1,4,-1
 281 -3 l 1,5,-1
 248 0 l 1,6,-1
 1 457 l 1,0,-1
EndSplineSet
Validated: 1
EndChar

StartChar: w
Encoding: 119 119 90
Width: 820
GlyphClass: 2
Flags: W
LayerCount: 2
Fore
SplineSet
606 47 m 1,0,-1
 570 49 l 1,1,-1
 407 382 l 1,2,-1
 245 6 l 1,3,-1
 203 0 l 1,4,-1
 1 451 l 1,5,-1
 79 484 l 1,6,-1
 233 115 l 1,7,-1
 393 495 l 1,8,-1
 427 496 l 1,9,-1
 574 177 l 1,10,-1
 684 493 l 1,11,-1
 758 473 l 1,12,-1
 606 47 l 1,0,-1
EndSplineSet
Validated: 1
EndChar

StartChar: x
Encoding: 120 120 91
Width: 527
GlyphClass: 2
Flags: W
LayerCount: 2
Fore
SplineSet
413 19 m 1,0,-1
 233 208 l 1,1,-1
 60 1 l 1,2,-1
 0 49 l 1,3,-1
 185 259 l 1,4,-1
 -6 456 l 1,5,-1
 44 505 l 1,6,-1
 229 312 l 1,7,-1
 381 492 l 1,8,-1
 431 448 l 1,9,-1
 272 266 l 1,10,-1
 463 74 l 1,11,-1
 413 19 l 1,0,-1
EndSplineSet
Validated: 1
EndChar

StartChar: y
Encoding: 121 121 92
Width: 549
GlyphClass: 2
Flags: W
LayerCount: 2
Fore
SplineSet
318 -36 m 1,0,1
 292 -98 292 -98 266.5 -137 c 128,-1,2
 241 -176 241 -176 214 -196.5 c 128,-1,3
 187 -217 187 -217 157.5 -221.5 c 128,-1,4
 128 -226 128 -226 92 -217 c 0,5,6
 81 -215 81 -215 68 -208 c 128,-1,7
 55 -201 55 -201 41.5 -189 c 128,-1,8
 28 -177 28 -177 16.5 -160.5 c 128,-1,9
 5 -144 5 -144 -2 -122 c 1,10,-1
 56 -94 l 1,11,12
 62 -111 62 -111 68 -122 c 128,-1,13
 74 -133 74 -133 79 -139.5 c 128,-1,14
 84 -146 84 -146 90 -150.5 c 128,-1,15
 96 -155 96 -155 104 -159 c 0,16,17
 123 -171 123 -171 142 -167 c 128,-1,18
 161 -163 161 -163 178 -147 c 128,-1,19
 195 -131 195 -131 210.5 -107 c 128,-1,20
 226 -83 226 -83 238 -55.5 c 128,-1,21
 250 -28 250 -28 259.5 -0.5 c 128,-1,22
 269 27 269 27 274 49 c 1,23,-1
 0 418 l 1,24,-1
 59 454 l 1,25,-1
 300 116 l 1,26,-1
 411 481 l 1,27,-1
 488 459 l 1,28,-1
 318 -36 l 1,0,1
EndSplineSet
Validated: 33
EndChar

StartChar: z
Encoding: 122 122 93
Width: 473
GlyphClass: 2
Flags: W
LayerCount: 2
Fore
SplineSet
400 472 m 1,0,-1
 401 432 l 1,1,-1
 130 61 l 1,2,-1
 417 62 l 1,3,-1
 414 -3 l 1,4,-1
 33 8 l 1,5,-1
 31 48 l 1,6,-1
 312 421 l 1,7,-1
 8 418 l 1,8,-1
 10 480 l 1,9,-1
 400 472 l 1,0,-1
EndSplineSet
Validated: 1
EndChar

StartChar: braceleft
Encoding: 123 123 94
Width: 266
GlyphClass: 2
Flags: W
LayerCount: 2
Fore
SplineSet
216 691 m 1,0,-1
 218 627 l 1,1,2
 185 632 185 632 158 628 c 0,3,4
 135 624 135 624 114 610 c 128,-1,5
 93 596 93 596 88 564 c 0,6,7
 82 532 82 532 87 501 c 128,-1,8
 92 470 92 470 99.5 443.5 c 128,-1,9
 107 417 107 417 113.5 396 c 128,-1,10
 120 375 120 375 117 362 c 0,11,12
 113 348 113 348 107 340 c 128,-1,13
 101 332 101 332 94.5 327 c 128,-1,14
 88 322 88 322 82.5 319.5 c 128,-1,15
 77 317 77 317 74 316 c 1,16,17
 75 313 75 313 78 311 c 128,-1,18
 81 309 81 309 84 304.5 c 128,-1,19
 87 300 87 300 89.5 290.5 c 128,-1,20
 92 281 92 281 92 263 c 0,21,22
 92 251 92 251 87.5 231 c 128,-1,23
 83 211 83 211 79.5 188.5 c 128,-1,24
 76 166 76 166 76.5 143.5 c 128,-1,25
 77 121 77 121 87 102.5 c 128,-1,26
 97 84 97 84 119.5 73 c 128,-1,27
 142 62 142 62 182 63 c 1,28,-1
 173 4 l 1,29,30
 135 1 135 1 103 12 c 0,31,32
 89 16 89 16 76 24 c 128,-1,33
 63 32 63 32 52.5 45 c 128,-1,34
 42 58 42 58 35 76 c 128,-1,35
 28 94 28 94 27 119 c 0,36,37
 28 154 28 154 36 182 c 128,-1,38
 44 210 44 210 46.5 234 c 128,-1,39
 49 258 49 258 40 280 c 128,-1,40
 31 302 31 302 -1 325 c 1,41,42
 29 327 29 327 43 344 c 128,-1,43
 57 361 57 361 61 386 c 128,-1,44
 65 411 65 411 61 441 c 128,-1,45
 57 471 57 471 51.5 499.5 c 128,-1,46
 46 528 46 528 41.5 552.5 c 128,-1,47
 37 577 37 577 40 590 c 0,48,49
 42 603 42 603 50.5 624.5 c 128,-1,50
 59 646 59 646 78.5 664.5 c 128,-1,51
 98 683 98 683 131 692.5 c 128,-1,52
 164 702 164 702 216 691 c 1,0,-1
EndSplineSet
Validated: 33
EndChar

StartChar: bar
Encoding: 124 124 95
Width: 151
GlyphClass: 2
Flags: W
LayerCount: 2
Fore
SplineSet
91 30 m 1,0,-1
 37 35 l 1,1,-1
 46 669 l 1,2,-1
 91 672 l 1,3,-1
 91 30 l 1,0,-1
EndSplineSet
Validated: 1
EndChar

StartChar: braceright
Encoding: 125 125 96
Width: 276
GlyphClass: 2
Flags: W
LayerCount: 2
Fore
SplineSet
68 2 m 1,0,-1
 56 67 l 1,1,2
 89 66 89 66 115 75 c 0,3,4
 137 83 137 83 155.5 100 c 128,-1,5
 174 117 174 117 175 150 c 0,6,7
 175 183 175 183 165.5 213 c 128,-1,8
 156 243 156 243 144 269 c 128,-1,9
 132 295 132 295 122.5 315 c 128,-1,10
 113 335 113 335 114 349 c 0,11,12
 116 362 116 362 120.5 370.5 c 128,-1,13
 125 379 125 379 130.5 385 c 128,-1,14
 136 391 136 391 141 394 c 128,-1,15
 146 397 146 397 149 400 c 0,16,17
 147 403 147 403 143.5 404.5 c 128,-1,18
 140 406 140 406 137 410 c 128,-1,19
 134 414 134 414 130.5 423 c 128,-1,20
 127 432 127 432 125 450 c 0,21,22
 123 462 123 462 124 482.5 c 128,-1,23
 125 503 125 503 125 526 c 128,-1,24
 125 549 125 549 121 571.5 c 128,-1,25
 117 594 117 594 104 610 c 128,-1,26
 91 626 91 626 67 633 c 128,-1,27
 43 640 43 640 3 633 c 1,28,-1
 2 694 l 1,29,30
 40 703 40 703 73 697 c 0,31,32
 101 692 101 692 127 671.5 c 128,-1,33
 153 651 153 651 164 604 c 1,34,35
 168 568 168 568 165 539 c 128,-1,36
 162 510 162 510 163.5 485.5 c 128,-1,37
 165 461 165 461 177.5 441 c 128,-1,38
 190 421 190 421 226 403 c 1,39,40
 196 395 196 395 184.5 376 c 128,-1,41
 173 357 173 357 173 331 c 128,-1,42
 173 305 173 305 182 275.5 c 128,-1,43
 191 246 191 246 201 218 c 128,-1,44
 211 190 211 190 219 166.5 c 128,-1,45
 227 143 227 143 226 130 c 0,46,47
 226 118 226 118 221.5 95.5 c 128,-1,48
 217 73 217 73 200.5 51.5 c 128,-1,49
 184 30 184 30 153 14.5 c 128,-1,50
 122 -1 122 -1 68 2 c 1,0,-1
EndSplineSet
Validated: 33
EndChar

StartChar: asciitilde
Encoding: 126 126 97
Width: 320
GlyphClass: 2
Flags: W
LayerCount: 2
Fore
SplineSet
-1 288 m 1,0,1
 19 315 19 315 39 338 c 0,2,3
 56 357 56 357 76.5 374 c 128,-1,4
 97 391 97 391 115 394 c 0,5,6
 133 396 133 396 145 382 c 128,-1,7
 157 368 157 368 166.5 351 c 128,-1,8
 176 334 176 334 184 320 c 128,-1,9
 192 306 192 306 203 308 c 0,10,11
 212 308 212 308 218 326 c 128,-1,12
 224 344 224 344 228 366 c 0,13,14
 232 392 232 392 235 424 c 1,15,-1
 269 416 l 1,16,17
 261 377 261 377 251 345 c 0,18,19
 243 318 243 318 231 295 c 128,-1,20
 219 272 219 272 206 270 c 0,21,22
 186 267 186 267 177 278 c 128,-1,23
 168 289 168 289 161.5 302.5 c 128,-1,24
 155 316 155 316 147.5 328 c 128,-1,25
 140 340 140 340 124 340 c 0,26,27
 107 342 107 342 90.5 329 c 128,-1,28
 74 316 74 316 60 300 c 0,29,30
 44 282 44 282 30 258 c 1,31,-1
 -1 288 l 1,0,1
EndSplineSet
Validated: 33
EndChar

StartChar: cent
Encoding: 162 162 100
Width: 299
GlyphClass: 2
Flags: W
LayerCount: 2
Fore
SplineSet
250 295 m 1,0,-1
 225 283 l 1,1,-1
 163 262 l 1,2,-1
 176 173 l 1,3,-1
 134 173 l 1,4,-1
 128 254 l 1,5,6
 105 250 105 250 84 250.5 c 128,-1,7
 63 251 63 251 46 258.5 c 128,-1,8
 29 266 29 266 18 282 c 128,-1,9
 7 298 7 298 4 326 c 0,10,11
 2 355 2 355 10.5 377 c 128,-1,12
 19 399 19 399 34 416 c 128,-1,13
 49 433 49 433 69 445 c 128,-1,14
 89 457 89 457 110 466 c 1,15,-1
 102 533 l 1,16,-1
 127 537 l 1,17,-1
 134 475 l 1,18,19
 165 484 165 484 189 487 c 0,20,21
 201 489 201 489 213 489 c 1,22,23
 215 452 215 452 215 453 c 128,-1,24
 215 454 215 454 214 454 c 2,25,26
 214 454 214 454 205.5 454.5 c 128,-1,27
 197 455 197 455 185 455 c 128,-1,28
 173 455 173 455 139 449 c 1,29,-1
 159 300 l 1,30,31
 178 307 178 307 187.5 311.5 c 128,-1,32
 197 316 197 316 212 330 c 2,33,-1
 227 342 l 1,34,-1
 250 295 l 1,0,-1
52 347 m 0,35,36
 52 307 52 307 73 293.5 c 128,-1,37
 94 280 94 280 123 288 c 1,38,-1
 111 440 l 1,39,40
 87 427 87 427 69.5 405 c 128,-1,41
 52 383 52 383 52 347 c 0,35,36
EndSplineSet
Validated: 37
EndChar

StartChar: sterling
Encoding: 163 163 101
Width: 380
GlyphClass: 2
Flags: W
LayerCount: 2
Fore
SplineSet
331 79 m 1,0,-1
 31 79 l 1,1,-1
 32 117 l 1,2,-1
 66 119 l 1,3,-1
 66 146 l 1,4,-1
 62 295 l 1,5,-1
 3 288 l 1,6,-1
 0 329 l 1,7,-1
 60 335 l 1,8,9
 54 408 54 408 61 454.5 c 128,-1,10
 68 501 68 501 84 531 c 128,-1,11
 100 561 100 561 122 577 c 128,-1,12
 144 593 144 593 168 599 c 0,13,14
 223 613 223 613 297 587 c 1,15,16
 271 530 271 530 272 531 c 1,17,18
 225 550 225 550 195 550 c 128,-1,19
 165 550 165 550 147.5 537.5 c 128,-1,20
 130 525 130 525 122.5 502 c 128,-1,21
 115 479 115 479 112.5 451.5 c 128,-1,22
 110 424 110 424 114 340 c 1,23,-1
 168 346 l 1,24,-1
 170 304 l 1,25,-1
 117 298 l 1,26,-1
 133 123 l 1,27,-1
 332 135 l 1,28,-1
 331 79 l 1,0,-1
EndSplineSet
Validated: 37
EndChar

StartChar: dieresis
Encoding: 168 168 102
Width: 173
GlyphClass: 2
Flags: W
LayerCount: 2
Fore
SplineSet
60 704 m 0,0,1
 52 694 52 694 40.5 693 c 128,-1,2
 29 692 29 692 18 697 c 0,3,4
 7 703 7 703 4.5 715 c 128,-1,5
 2 727 2 727 8 737 c 0,6,7
 18 749 18 749 30.5 749.5 c 128,-1,8
 43 750 43 750 53 743 c 0,9,10
 63 735 63 735 64.5 724.5 c 128,-1,11
 66 714 66 714 60 704 c 0,0,1
126 730 m 0,12,13
 135 738 135 738 146 737.5 c 128,-1,14
 157 737 157 737 162 733 c 0,15,16
 170 727 170 727 172.5 718 c 128,-1,17
 175 709 175 709 169 700 c 0,18,19
 162 692 162 692 151.5 690 c 128,-1,20
 141 688 141 688 131 694 c 0,21,22
 122 699 122 699 120 709.5 c 128,-1,23
 118 720 118 720 126 730 c 0,12,13
EndSplineSet
Validated: 1
EndChar

StartChar: copyright
Encoding: 169 169 103
Width: 600
GlyphClass: 2
Flags: W
LayerCount: 2
Fore
SplineSet
382 510 m 1,0,-1
 382 471 l 1,1,2
 329 487 329 487 286 482 c 0,3,4
 247 478 247 478 212 457.5 c 128,-1,5
 177 437 177 437 166 384 c 0,6,7
 161 363 161 363 162 334.5 c 128,-1,8
 163 306 163 306 182.5 282.5 c 128,-1,9
 202 259 202 259 243 245 c 128,-1,10
 284 231 284 231 359 238 c 1,11,12
 359 231 359 231 360 225 c 0,13,14
 360 220 360 220 361 219 c 128,-1,15
 362 218 362 218 362 215 c 2,16,-1
 362 211 l 1,17,18
 329 207 329 207 282 211 c 128,-1,19
 235 215 235 215 198 237 c 128,-1,20
 161 259 161 259 141.5 301.5 c 128,-1,21
 122 344 122 344 141 419 c 1,22,23
 159 471 159 471 198.5 491.5 c 128,-1,24
 238 512 238 512 278 517 c 0,25,26
 327 521 327 521 382 510 c 1,0,-1
287 596 m 0,27,28
 322 596 322 596 366 586.5 c 128,-1,29
 410 577 410 577 451.5 551.5 c 128,-1,30
 493 526 493 526 522.5 481 c 128,-1,31
 552 436 552 436 557 361 c 1,32,33
 554 295 554 295 528 249.5 c 128,-1,34
 502 204 502 204 461.5 176 c 128,-1,35
 421 148 421 148 372.5 135.5 c 128,-1,36
 324 123 324 123 278 123 c 0,37,38
 243 123 243 123 194 131 c 128,-1,39
 145 139 145 139 102.5 165 c 128,-1,40
 60 191 60 191 32.5 237 c 128,-1,41
 5 283 5 283 10 358 c 0,42,43
 14 433 14 433 45.5 479.5 c 128,-1,44
 77 526 77 526 120 551.5 c 128,-1,45
 163 577 163 577 209 586.5 c 128,-1,46
 255 596 255 596 287 596 c 0,27,28
276 150 m 0,47,48
 313 148 313 148 357 160 c 128,-1,49
 401 172 401 172 438.5 200.5 c 128,-1,50
 476 229 476 229 499.5 273.5 c 128,-1,51
 523 318 523 318 521 381 c 0,52,53
 519 439 519 439 490.5 478 c 128,-1,54
 462 517 462 517 425.5 539.5 c 128,-1,55
 389 562 389 562 354 570.5 c 128,-1,56
 319 579 319 579 304 579 c 0,57,58
 193 586 193 586 117 519.5 c 128,-1,59
 41 453 41 453 41 340 c 0,60,61
 41 289 41 289 63.5 252 c 128,-1,62
 86 215 86 215 121.5 192.5 c 128,-1,63
 157 170 157 170 197.5 160 c 128,-1,64
 238 150 238 150 276 150 c 0,47,48
EndSplineSet
Validated: 33
EndChar

StartChar: logicalnot
Encoding: 172 172 104
Width: 355
GlyphClass: 2
Flags: W
LayerCount: 2
Fore
SplineSet
0 313 m 1,0,-1
 285 310 l 1,1,-1
 306 218 l 1,2,-1
 262 215 l 1,3,-1
 259 281 l 1,4,-1
 3 269 l 1,5,-1
 0 313 l 1,0,-1
EndSplineSet
Validated: 1
EndChar

StartChar: registered
Encoding: 174 174 105
Width: 606
GlyphClass: 2
Flags: W
LayerCount: 2
Fore
SplineSet
183 513 m 1,0,1
 186 513 186 513 221.5 515.5 c 128,-1,2
 257 518 257 518 298 512 c 128,-1,3
 339 506 339 506 374 488 c 128,-1,4
 409 470 409 470 406 431 c 0,5,6
 404 395 404 395 380.5 376 c 128,-1,7
 357 357 357 357 329 347 c 0,8,9
 295 336 295 336 253 331 c 1,10,-1
 375 194 l 1,11,-1
 318 194 l 1,12,-1
 217 326 l 1,13,-1
 214 191 l 1,14,-1
 188 194 l 1,15,-1
 183 513 l 1,0,1
214 362 m 1,16,17
 255 357 255 357 288 364 c 0,18,19
 316 369 316 369 340.5 383 c 128,-1,20
 365 397 365 397 365 431 c 0,21,22
 365 459 365 459 340.5 473 c 128,-1,23
 316 487 316 487 288 492 c 0,24,25
 255 498 255 498 214 492 c 1,26,-1
 214 362 l 1,16,17
288 589 m 256,27,28
 321 589 321 589 367.5 579.5 c 128,-1,29
 414 570 414 570 456 544 c 128,-1,30
 498 518 498 518 527.5 471.5 c 128,-1,31
 557 425 557 425 562 350 c 1,32,33
 560 283 560 283 532.5 236 c 128,-1,34
 505 189 505 189 463.5 160.5 c 128,-1,35
 422 132 422 132 373 119 c 128,-1,36
 324 106 324 106 278 106 c 0,37,38
 243 106 243 106 192.5 115 c 128,-1,39
 142 124 142 124 99 149.5 c 128,-1,40
 56 175 56 175 27.5 222.5 c 128,-1,41
 -1 270 -1 270 4 347 c 0,42,43
 9 420 9 420 40.5 469 c 128,-1,44
 72 518 72 518 116 545 c 128,-1,45
 160 572 160 572 207.5 580.5 c 128,-1,46
 255 589 255 589 288 589 c 256,27,28
276 134 m 0,47,48
 313 132 313 132 358.5 143.5 c 128,-1,49
 404 155 404 155 441.5 184 c 128,-1,50
 479 213 479 213 502.5 259 c 128,-1,51
 526 305 526 305 524 369 c 0,52,53
 521 428 521 428 492 468 c 128,-1,54
 463 508 463 508 425.5 530.5 c 128,-1,55
 388 553 388 553 353 564 c 128,-1,56
 318 575 318 575 304 575 c 0,57,58
 188 579 188 579 111.5 511.5 c 128,-1,59
 35 444 35 444 35 329 c 0,60,61
 35 275 35 275 58.5 237.5 c 128,-1,62
 82 200 82 200 117 177.5 c 128,-1,63
 152 155 152 155 195 144.5 c 128,-1,64
 238 134 238 134 276 134 c 0,47,48
EndSplineSet
Validated: 33
EndChar

StartChar: acute
Encoding: 180 180 106
Width: 140
GlyphClass: 2
Flags: W
LayerCount: 2
Fore
SplineSet
18 615 m 1,0,-1
 3 637 l 1,1,-1
 97 749 l 1,2,-1
 137 703 l 1,3,-1
 18 615 l 1,0,-1
EndSplineSet
Validated: 1
EndChar

StartChar: cedilla
Encoding: 184 184 107
Width: 136
GlyphClass: 2
Flags: W
LayerCount: 2
Fore
SplineSet
23 59 m 1,0,-1
 76 59 l 1,1,2
 71 51 71 51 67 44 c 0,3,4
 64 38 64 38 63.5 31 c 128,-1,5
 63 24 63 24 68 19 c 0,6,7
 72 14 72 14 80.5 13 c 128,-1,8
 89 12 89 12 98 10.5 c 128,-1,9
 107 9 107 9 115.5 5 c 128,-1,10
 124 1 124 1 130 -10 c 256,11,12
 136 -21 136 -21 131 -33.5 c 128,-1,13
 126 -46 126 -46 111 -57 c 128,-1,14
 96 -68 96 -68 69.5 -75.5 c 128,-1,15
 43 -83 43 -83 5 -83 c 0,16,17
 4 -83 4 -83 5 -44 c 1,18,19
 32 -48 32 -48 53 -47 c 0,20,21
 71 -46 71 -46 86.5 -40.5 c 128,-1,22
 102 -35 102 -35 103 -18 c 0,23,24
 104 -5 104 -5 96 -2.5 c 128,-1,25
 88 0 88 0 76.5 -0.5 c 128,-1,26
 65 -1 65 -1 53 -1 c 128,-1,27
 41 -1 41 -1 35 6 c 0,28,29
 29 12 29 12 26.5 21.5 c 128,-1,30
 24 31 24 31 23 59 c 1,0,-1
EndSplineSet
Validated: 33
EndChar

StartChar: AE
Encoding: 198 198 115
Width: 666
GlyphClass: 2
Flags: W
LayerCount: 2
Fore
SplineSet
247 690 m 1,0,-1
 614 700 l 1,1,-1
 614 612 l 1,2,-1
 296 613 l 1,3,-1
 299 377 l 1,4,-1
 539 395 l 1,5,-1
 541 320 l 1,6,-1
 304 314 l 1,7,-1
 311 51 l 1,8,-1
 598 69 l 1,9,-1
 599 2 l 1,10,-1
 247 0 l 1,11,-1
 247 690 l 1,0,-1
4 2 m 1,12,-1
 235 690 l 1,13,-1
 299 691 l 1,14,-1
 304 0 l 1,15,-1
 241 0 l 1,16,-1
 241 560 l 1,17,-1
 172 363 l 1,18,-1
 347 377 l 1,19,-1
 353 315 l 1,20,-1
 157 317 l 1,21,-1
 49 -1 l 1,22,-1
 4 2 l 1,12,-1
EndSplineSet
Validated: 5
EndChar

StartChar: Eth
Encoding: 208 208 125
Width: 825
GlyphClass: 2
Flags: W
LayerCount: 2
Fore
SplineSet
77 684 m 1,0,1
 276 701 276 701 434 671 c 0,2,3
 501 658 501 658 565.5 633.5 c 128,-1,4
 630 609 630 609 680.5 568.5 c 128,-1,5
 731 528 731 528 762 469 c 128,-1,6
 793 410 793 410 794 328 c 1,7,8
 790 251 790 251 757.5 197 c 128,-1,9
 725 143 725 143 674 106.5 c 128,-1,10
 623 70 623 70 558.5 48.5 c 128,-1,11
 494 27 494 27 428 17 c 0,12,13
 272 -8 272 -8 77 11 c 1,14,-1
 77 284 l 1,15,-1
 3 284 l 1,16,-1
 0 346 l 1,17,-1
 78 349 l 1,18,-1
 77 684 l 1,0,1
140 65 m 1,19,20
 297 55 297 55 423 77 c 0,21,22
 476 86 476 86 527.5 103.5 c 128,-1,23
 579 121 579 121 620.5 149.5 c 128,-1,24
 662 178 662 178 688 220 c 128,-1,25
 714 262 714 262 716 320 c 0,26,27
 718 382 718 382 695 427 c 128,-1,28
 672 472 672 472 632.5 503 c 128,-1,29
 593 534 593 534 541.5 553 c 128,-1,30
 490 572 490 572 436 582 c 0,31,32
 309 606 309 606 147 595 c 1,33,-1
 144 352 l 1,34,-1
 277 358 l 1,35,-1
 273 285 l 1,36,-1
 143 284 l 1,37,-1
 140 65 l 1,19,20
EndSplineSet
Validated: 33
EndChar

StartChar: multiply
Encoding: 215 215 132
Width: 399
GlyphClass: 2
Flags: W
LayerCount: 2
Fore
SplineSet
306 177 m 1,0,-1
 173 304 l 1,1,-1
 66 182 l 1,2,-1
 7 182 l 1,3,-1
 144 330 l 1,4,-1
 0 454 l 1,5,-1
 57 455 l 1,6,-1
 164 355 l 1,7,-1
 246 445 l 1,8,-1
 296 443 l 1,9,-1
 190 328 l 1,10,-1
 355 178 l 1,11,-1
 306 177 l 1,0,-1
EndSplineSet
Validated: 1
EndChar

StartChar: Oslash
Encoding: 216 216 133
Width: 851
GlyphClass: 2
Flags: W
LayerCount: 2
Fore
SplineSet
660 632 m 1,0,1
 690 613 690 613 716 587.5 c 128,-1,2
 742 562 742 562 762 527.5 c 128,-1,3
 782 493 782 493 794.5 449.5 c 128,-1,4
 807 406 807 406 810 352 c 1,5,6
 808 255 808 255 768.5 188.5 c 128,-1,7
 729 122 729 122 669.5 80.5 c 128,-1,8
 610 39 610 39 538.5 21 c 128,-1,9
 467 3 467 3 401 3 c 0,10,11
 353 3 353 3 292 12 c 128,-1,12
 231 21 231 21 173 49 c 1,13,-1
 146 17 l 1,14,-1
 114 42 l 1,15,-1
 135 69 l 1,16,17
 105 88 105 88 79.5 113.5 c 128,-1,18
 54 139 54 139 36.5 173.5 c 128,-1,19
 19 208 19 208 10.5 251.5 c 128,-1,20
 2 295 2 295 6 349 c 0,21,22
 10 421 10 421 33.5 475 c 128,-1,23
 57 529 57 529 91.5 568 c 128,-1,24
 126 607 126 607 169 632.5 c 128,-1,25
 212 658 212 658 256 673 c 128,-1,26
 300 688 300 688 341.5 694 c 128,-1,27
 383 700 383 700 416 700 c 0,28,29
 453 699 453 699 500.5 692 c 128,-1,30
 548 685 548 685 597 665 c 1,31,-1
 629 706 l 1,32,-1
 681 657 l 1,33,-1
 660 632 l 1,0,1
86 315 m 0,34,35
 88 250 88 250 112 202 c 128,-1,36
 136 154 136 154 175 121 c 1,37,-1
 566 625 l 1,38,39
 528 642 528 642 495 648.5 c 128,-1,40
 462 655 462 655 444 655 c 0,41,42
 378 658 378 658 313 631.5 c 128,-1,43
 248 605 248 605 197 557.5 c 128,-1,44
 146 510 146 510 115 447 c 128,-1,45
 84 384 84 384 86 315 c 0,34,35
397 42 m 0,46,47
 453 40 453 40 512.5 58 c 128,-1,48
 572 76 572 76 620.5 117.5 c 128,-1,49
 669 159 669 159 699 224.5 c 128,-1,50
 729 290 729 290 725 383 c 0,51,52
 722 459 722 459 693 508.5 c 128,-1,53
 664 558 664 558 624 589 c 1,54,-1
 211 95 l 1,55,56
 253 69 253 69 300.5 56.5 c 128,-1,57
 348 44 348 44 397 42 c 0,46,47
EndSplineSet
Validated: 33
EndChar

StartChar: Thorn
Encoding: 222 222 139
Width: 470
GlyphClass: 2
Flags: W
LayerCount: 2
Fore
SplineSet
422 346 m 0,0,1
 423 302 423 302 407 269.5 c 128,-1,2
 391 237 391 237 365 214 c 128,-1,3
 339 191 339 191 305.5 176.5 c 128,-1,4
 272 162 272 162 236.5 153.5 c 128,-1,5
 201 145 201 145 166.5 141.5 c 128,-1,6
 132 138 132 138 104 137 c 1,7,-1
 108 0 l 1,8,-1
 42 0 l 1,9,-1
 0 701 l 1,10,-1
 87 701 l 1,11,-1
 92 528 l 1,12,13
 121 530 121 530 156 530 c 128,-1,14
 191 530 191 530 226.5 525 c 128,-1,15
 262 520 262 520 296 508 c 128,-1,16
 330 496 330 496 357.5 475 c 128,-1,17
 385 454 385 454 402 422.5 c 128,-1,18
 419 391 419 391 422 346 c 0,0,1
104 170 m 1,19,20
 122 170 122 170 148 172.5 c 128,-1,21
 174 175 174 175 201.5 181.5 c 128,-1,22
 229 188 229 188 256.5 199 c 128,-1,23
 284 210 284 210 305.5 228.5 c 128,-1,24
 327 247 327 247 340 273 c 128,-1,25
 353 299 353 299 352 335 c 0,26,27
 351 374 351 374 336.5 400.5 c 128,-1,28
 322 427 322 427 299 443.5 c 128,-1,29
 276 460 276 460 248 469 c 128,-1,30
 220 478 220 478 191.5 481 c 128,-1,31
 163 484 163 484 137 483.5 c 128,-1,32
 111 483 111 483 93 481 c 1,33,-1
 104 170 l 1,19,20
EndSplineSet
Validated: 33
EndChar

StartChar: germandbls
Encoding: 223 223 140
Width: 464
GlyphClass: 2
Flags: W
LayerCount: 2
Fore
SplineSet
0 -3 m 1,0,-1
 0 535 l 2,1,2
 0 569 0 569 6 601.5 c 128,-1,3
 12 634 12 634 34.5 658.5 c 128,-1,4
 57 683 57 683 107 693.5 c 128,-1,5
 157 704 157 704 193 698 c 0,6,7
 238 692 238 692 266.5 674 c 128,-1,8
 295 656 295 656 312 634 c 128,-1,9
 329 612 329 612 335 593.5 c 128,-1,10
 341 575 341 575 343 551 c 0,11,12
 344 506 344 506 326.5 479 c 128,-1,13
 309 452 309 452 289 439 c 128,-1,14
 269 426 269 426 242 419 c 1,15,16
 268 416 268 416 287 409 c 128,-1,17
 306 402 306 402 327 391 c 128,-1,18
 348 380 348 380 367 358 c 128,-1,19
 386 336 386 336 400.5 301 c 128,-1,20
 415 266 415 266 417 211 c 0,21,22
 415 141 415 141 390.5 97 c 128,-1,23
 366 53 366 53 327.5 30.5 c 128,-1,24
 289 8 289 8 244 7 c 128,-1,25
 199 6 199 6 168 29 c 0,26,27
 147 45 147 45 132.5 72.5 c 128,-1,28
 118 100 118 100 120 130 c 0,29,30
 119 131 119 131 194 129 c 1,31,32
 193 107 193 107 204 88 c 0,33,34
 219 64 219 64 251 68 c 1,35,36
 289 68 289 68 307.5 103.5 c 128,-1,37
 326 139 326 139 327 208 c 0,38,39
 327 245 327 245 320.5 272.5 c 128,-1,40
 314 300 314 300 300.5 324.5 c 128,-1,41
 287 349 287 349 255 369 c 1,42,43
 220 384 220 384 164 381 c 1,44,-1
 164 449 l 1,45,46
 182 450 182 450 207 454 c 0,47,48
 234 462 234 462 242.5 469.5 c 128,-1,49
 251 477 251 477 258.5 488.5 c 128,-1,50
 266 500 266 500 270.5 515 c 128,-1,51
 275 530 275 530 274 557 c 0,52,53
 272 589 272 589 254.5 614 c 128,-1,54
 237 639 237 639 205 647 c 128,-1,55
 173 655 173 655 144 649 c 128,-1,56
 115 643 115 643 97 624.5 c 128,-1,57
 79 606 79 606 79 568 c 2,58,-1
 104 3 l 1,59,-1
 0 -3 l 1,0,-1
EndSplineSet
Validated: 33
EndChar

StartChar: ae
Encoding: 230 230 147
Width: 1017
GlyphClass: 2
Flags: W
LayerCount: 2
Fore
SplineSet
532 455 m 1,0,-1
 526 4 l 1,1,-1
 449 5 l 1,2,-1
 452 76 l 1,3,4
 415 42 415 42 366.5 25 c 128,-1,5
 318 8 318 8 263 7 c 0,6,7
 205 6 205 6 156 24.5 c 128,-1,8
 107 43 107 43 72 76.5 c 128,-1,9
 37 110 37 110 19.5 156 c 128,-1,10
 2 202 2 202 7 256 c 0,11,12
 12 309 12 309 36.5 349.5 c 128,-1,13
 61 390 61 390 98.5 417 c 128,-1,14
 136 444 136 444 184.5 458 c 128,-1,15
 233 472 233 472 287 472 c 0,16,17
 336 472 336 472 381.5 454.5 c 128,-1,18
 427 437 427 437 461 405 c 1,19,-1
 463 455 l 1,20,-1
 532 455 l 1,0,-1
248 53 m 0,21,22
 302 51 302 51 341 67.5 c 128,-1,23
 380 84 380 84 404.5 111 c 128,-1,24
 429 138 429 138 441 171.5 c 128,-1,25
 453 205 453 205 454 237 c 0,26,27
 455 271 455 271 445 304 c 128,-1,28
 435 337 435 337 413 363 c 128,-1,29
 391 389 391 389 356.5 405.5 c 128,-1,30
 322 422 322 422 276 423 c 0,31,32
 248 424 248 424 215.5 414.5 c 128,-1,33
 183 405 183 405 155 384 c 128,-1,34
 127 363 127 363 107.5 330.5 c 128,-1,35
 88 298 88 298 86 251 c 0,36,37
 85 230 85 230 87.5 207.5 c 128,-1,38
 90 185 90 185 98 163.5 c 128,-1,39
 106 142 106 142 118 122.5 c 128,-1,40
 130 103 130 103 148.5 88 c 128,-1,41
 167 73 167 73 191.5 63.5 c 128,-1,42
 216 54 216 54 248 53 c 0,21,22
964 221 m 1,43,44
 970 220 970 220 954 219.5 c 128,-1,45
 938 219 938 219 908.5 219 c 128,-1,46
 879 219 879 219 839 219 c 128,-1,47
 799 219 799 219 757 219 c 128,-1,48
 715 219 715 219 673.5 219 c 128,-1,49
 632 219 632 219 599 219 c 128,-1,50
 566 219 566 219 545 219 c 128,-1,51
 524 219 524 219 523 218 c 0,52,53
 527 189 527 189 541 165.5 c 128,-1,54
 555 142 555 142 574 124.5 c 128,-1,55
 593 107 593 107 615.5 95 c 128,-1,56
 638 83 638 83 659 79 c 0,57,58
 672 75 672 75 691.5 73.5 c 128,-1,59
 711 72 711 72 736.5 73.5 c 128,-1,60
 762 75 762 75 793.5 81.5 c 128,-1,61
 825 88 825 88 862 103 c 1,62,-1
 878 26 l 1,63,64
 849 12 849 12 813 5.5 c 128,-1,65
 777 -1 777 -1 741 -1.5 c 128,-1,66
 705 -2 705 -2 672.5 2.5 c 128,-1,67
 640 7 640 7 618 18 c 0,68,69
 592 29 592 29 567 44.5 c 128,-1,70
 542 60 542 60 520.5 82 c 128,-1,71
 499 104 499 104 483 132.5 c 128,-1,72
 467 161 467 161 461 199 c 0,73,74
 453 246 453 246 459.5 284.5 c 128,-1,75
 466 323 466 323 483.5 355 c 128,-1,76
 501 387 501 387 527.5 411 c 128,-1,77
 554 435 554 435 585 451 c 128,-1,78
 616 467 616 467 650.5 474.5 c 128,-1,79
 685 482 685 482 718 481 c 0,80,81
 778 479 778 479 825 459.5 c 128,-1,82
 872 440 872 440 903.5 405.5 c 128,-1,83
 935 371 935 371 950.5 324 c 128,-1,84
 966 277 966 277 964 221 c 1,43,44
876 267 m 1,85,86
 873 303 873 303 859.5 330 c 128,-1,87
 846 357 846 357 825.5 376.5 c 128,-1,88
 805 396 805 396 778 407.5 c 128,-1,89
 751 419 751 419 722 424 c 0,90,91
 686 429 686 429 651 420.5 c 128,-1,92
 616 412 616 412 589 392 c 128,-1,93
 562 372 562 372 544.5 342.5 c 128,-1,94
 527 313 527 313 526 278 c 1,95,-1
 876 267 l 1,85,86
EndSplineSet
Validated: 37
EndChar

StartChar: igrave
Encoding: 236 236 153
Width: 219
GlyphClass: 2
Flags: W
LayerCount: 2
Fore
SplineSet
53 450 m 1,0,-1
 39 1 l 1,1,-1
 116 0 l 1,2,-1
 123 450 l 1,3,-1
 53 450 l 1,0,-1
3 561 m 1,4,-1
 38 602 l 1,5,-1
 123 500 l 1,6,-1
 110 481 l 1,7,-1
 3 561 l 1,4,-1
EndSplineSet
Validated: 9
EndChar

StartChar: iacute
Encoding: 237 237 154
Width: 218
GlyphClass: 2
Flags: W
LayerCount: 2
Fore
SplineSet
45 450 m 1,0,-1
 31 1 l 1,1,-1
 108 0 l 1,2,-1
 115 450 l 1,3,-1
 45 450 l 1,0,-1
63 470 m 1,4,-1
 48 492 l 1,5,-1
 142 604 l 1,6,-1
 182 558 l 1,7,-1
 63 470 l 1,4,-1
EndSplineSet
Validated: 9
EndChar

StartChar: icircumflex
Encoding: 238 238 155
Width: 219
GlyphClass: 2
Flags: W
LayerCount: 2
Fore
SplineSet
49 450 m 1,0,-1
 36 1 l 1,1,-1
 113 0 l 1,2,-1
 120 450 l 1,3,-1
 49 450 l 1,0,-1
77 607 m 1,4,-1
 159 536 l 1,5,-1
 138 515 l 1,6,-1
 80 576 l 1,7,-1
 43 497 l 1,8,-1
 21 507 l 1,9,-1
 77 607 l 1,4,-1
EndSplineSet
Validated: 9
EndChar

StartChar: idieresis
Encoding: 239 239 156
Width: 219
GlyphClass: 2
Flags: W
LayerCount: 2
Fore
SplineSet
52 450 m 1,0,-1
 38 1 l 1,1,-1
 115 0 l 1,2,-1
 122 450 l 1,3,-1
 52 450 l 1,0,-1
71 510 m 0,4,5
 64 501 64 501 55 500.5 c 128,-1,6
 46 500 46 500 37 504 c 0,7,8
 27 509 27 509 25 519 c 128,-1,9
 23 529 23 529 28 537 c 0,10,11
 37 547 37 547 47.5 547.5 c 128,-1,12
 58 548 58 548 65 542 c 0,13,14
 74 535 74 535 75 526.5 c 128,-1,15
 76 518 76 518 71 510 c 0,4,5
126 531 m 0,16,17
 133 538 133 538 142 537.5 c 128,-1,18
 151 537 151 537 156 534 c 0,19,20
 163 529 163 529 165 521.5 c 128,-1,21
 167 514 167 514 162 507 c 0,22,23
 156 500 156 500 147.5 498.5 c 128,-1,24
 139 497 139 497 130 501 c 0,25,26
 123 506 123 506 121.5 514.5 c 128,-1,27
 120 523 120 523 126 531 c 0,16,17
EndSplineSet
Validated: 9
EndChar

StartChar: eth
Encoding: 240 240 157
Width: 585
GlyphClass: 2
Flags: W
LayerCount: 2
Fore
SplineSet
385 619 m 1,0,1
 434 572 434 572 467 526.5 c 128,-1,2
 500 481 500 481 519.5 435 c 128,-1,3
 539 389 539 389 546.5 342 c 128,-1,4
 554 295 554 295 552 246 c 0,5,6
 550 185 550 185 527 137.5 c 128,-1,7
 504 90 504 90 466.5 58 c 128,-1,8
 429 26 429 26 380.5 9.5 c 128,-1,9
 332 -7 332 -7 280 -8 c 0,10,11
 220 -9 220 -9 167.5 8.5 c 128,-1,12
 115 26 115 26 77 58.5 c 128,-1,13
 39 91 39 91 18.5 136 c 128,-1,14
 -2 181 -2 181 2 234 c 0,15,16
 6 289 6 289 31 333.5 c 128,-1,17
 56 378 56 378 95 409.5 c 128,-1,18
 134 441 134 441 185.5 457.5 c 128,-1,19
 237 474 237 474 296 474 c 0,20,21
 334 473 334 473 371.5 463 c 128,-1,22
 409 453 409 453 442 434 c 1,23,24
 432 451 432 451 424.5 466 c 128,-1,25
 417 481 417 481 406.5 497 c 128,-1,26
 396 513 396 513 380 532 c 128,-1,27
 364 551 364 551 338 576 c 1,28,-1
 287 527 l 1,29,-1
 248 565 l 1,30,-1
 303 617 l 1,31,32
 290 631 290 631 273 644.5 c 128,-1,33
 256 658 256 658 239 672 c 1,34,-1
 283 714 l 1,35,36
 298 700 298 700 316.5 685 c 128,-1,37
 335 670 335 670 348 656 c 1,38,-1
 389 695 l 1,39,-1
 429 660 l 1,40,-1
 385 619 l 1,0,1
475 224 m 0,41,42
 477 259 477 259 465.5 291.5 c 128,-1,43
 454 324 454 324 430.5 350 c 128,-1,44
 407 376 407 376 372 392.5 c 128,-1,45
 337 409 337 409 290 411 c 0,46,47
 256 413 256 413 221 403 c 128,-1,48
 186 393 186 393 156 371 c 128,-1,49
 126 349 126 349 106 314.5 c 128,-1,50
 86 280 86 280 84 231 c 0,51,52
 82 198 82 198 91.5 165 c 128,-1,53
 101 132 101 132 122.5 105 c 128,-1,54
 144 78 144 78 178 60 c 128,-1,55
 212 42 212 42 260 41 c 0,56,57
 315 39 315 39 355 54.5 c 128,-1,58
 395 70 395 70 421 96.5 c 128,-1,59
 447 123 447 123 460.5 156.5 c 128,-1,60
 474 190 474 190 475 224 c 0,41,42
EndSplineSet
Validated: 33
EndChar

StartChar: oslash
Encoding: 248 248 165
Width: 585
GlyphClass: 2
Flags: W
LayerCount: 2
Fore
SplineSet
482 422 m 1,0,1
 517 391 517 391 538 349.5 c 128,-1,2
 559 308 559 308 556 256 c 0,3,4
 553 195 553 195 530 147.5 c 128,-1,5
 507 100 507 100 469.5 68 c 128,-1,6
 432 36 432 36 384 18.5 c 128,-1,7
 336 1 336 1 284 1 c 0,8,9
 238 0 238 0 197 11 c 128,-1,10
 156 22 156 22 121 42 c 1,11,-1
 88 7 l 1,12,-1
 53 35 l 1,13,-1
 83 70 l 1,14,15
 43 105 43 105 22 153 c 128,-1,16
 1 201 1 201 6 258 c 0,17,18
 12 313 12 313 36.5 356.5 c 128,-1,19
 61 400 61 400 100 429.5 c 128,-1,20
 139 459 139 459 190 474.5 c 128,-1,21
 241 490 241 490 299 489 c 0,22,23
 331 489 331 489 362 481.5 c 128,-1,24
 393 474 393 474 422 461 c 1,25,-1
 441 483 l 1,26,-1
 499 440 l 1,27,-1
 482 422 l 1,0,1
88 255 m 0,28,29
 86 222 86 222 95.5 186.5 c 128,-1,30
 105 151 105 151 127 121 c 1,31,-1
 383 417 l 1,32,33
 364 426 364 426 342 432 c 128,-1,34
 320 438 320 438 294 439 c 0,35,36
 260 441 260 441 225 430.5 c 128,-1,37
 190 420 190 420 160 397.5 c 128,-1,38
 130 375 130 375 109.5 339.5 c 128,-1,39
 89 304 89 304 88 255 c 0,28,29
479 248 m 0,40,41
 481 282 481 282 470.5 315 c 128,-1,42
 460 348 460 348 437 375 c 1,43,-1
 161 84 l 1,44,45
 182 69 182 69 207.5 59.5 c 128,-1,46
 233 50 233 50 264 49 c 0,47,48
 301 48 301 48 330.5 56 c 128,-1,49
 360 64 360 64 384 78.5 c 128,-1,50
 408 93 408 93 425 113 c 128,-1,51
 442 133 442 133 454 155.5 c 128,-1,52
 466 178 466 178 472 201.5 c 128,-1,53
 478 225 478 225 479 248 c 0,40,41
EndSplineSet
Validated: 33
EndChar

StartChar: thorn
Encoding: 254 254 171
Width: 470
GlyphClass: 2
Flags: W
LayerCount: 2
Fore
SplineSet
422 346 m 0,0,1
 423 302 423 302 407 269.5 c 128,-1,2
 391 237 391 237 365 214 c 128,-1,3
 339 191 339 191 305.5 176.5 c 128,-1,4
 272 162 272 162 236.5 153.5 c 128,-1,5
 201 145 201 145 166.5 141.5 c 128,-1,6
 132 138 132 138 104 137 c 1,7,-1
 108 0 l 1,8,-1
 42 0 l 1,9,-1
 0 701 l 1,10,-1
 87 701 l 1,11,-1
 92 528 l 1,12,13
 121 530 121 530 156 530 c 128,-1,14
 191 530 191 530 226.5 525 c 128,-1,15
 262 520 262 520 296 508 c 128,-1,16
 330 496 330 496 357.5 475 c 128,-1,17
 385 454 385 454 402 422.5 c 128,-1,18
 419 391 419 391 422 346 c 0,0,1
104 170 m 1,19,20
 122 170 122 170 148 172.5 c 128,-1,21
 174 175 174 175 201.5 181.5 c 128,-1,22
 229 188 229 188 256.5 199 c 128,-1,23
 284 210 284 210 305.5 228.5 c 128,-1,24
 327 247 327 247 340 273 c 128,-1,25
 353 299 353 299 352 335 c 0,26,27
 351 374 351 374 336.5 400.5 c 128,-1,28
 322 427 322 427 299 443.5 c 128,-1,29
 276 460 276 460 248 469 c 128,-1,30
 220 478 220 478 191.5 481 c 128,-1,31
 163 484 163 484 137 483.5 c 128,-1,32
 111 483 111 483 93 481 c 1,33,-1
 104 170 l 1,19,20
EndSplineSet
Validated: 33
EndChar

StartChar: Aogonek
Encoding: 260 260 173
Width: 630
GlyphClass: 2
Flags: W
LayerCount: 2
Fore
SplineSet
545 16 m 5,0,1
 532 0 532 0 532 -14 c 4,2,3
 531 -33 531 -33 537 -47.5 c 132,-1,4
 543 -62 543 -62 553.5 -69.5 c 132,-1,5
 564 -77 564 -77 574 -79 c 4,6,7
 589 -82 589 -82 597 -79 c 5,8,-1
 597 -123 l 6,9,10
 597 -124 597 -124 588.5 -124.5 c 132,-1,11
 580 -125 580 -125 564 -120.5 c 132,-1,12
 548 -116 548 -116 530 -100 c 4,13,14
 515 -84 515 -84 511 -63.5 c 132,-1,15
 507 -43 507 -43 509 -21 c 132,-1,16
 511 1 511 1 514 13 c 5,17,-1
 545 16 l 5,0,1
5 19 m 1,18,-1
 232 695 l 1,19,-1
 282 697 l 1,20,-1
 591 35 l 1,21,-1
 513 4 l 5,22,-1
 250 600 l 1,23,-1
 168 329 l 1,24,-1
 379 332 l 1,25,-1
 396 289 l 1,26,-1
 159 288 l 1,27,-1
 64 0 l 1,28,-1
 5 19 l 1,18,-1
EndSplineSet
Validated: 37
EndChar

StartChar: aogonek
Encoding: 261 261 174
Width: 632
GlyphClass: 2
Flags: W
LayerCount: 2
Fore
SplineSet
508 5 m 1,0,1
 492 -9 492 -9 490 -23 c 0,2,3
 486 -42 486 -42 489.5 -58 c 128,-1,4
 493 -74 493 -74 502.5 -83.5 c 128,-1,5
 512 -93 512 -93 522 -96 c 0,6,7
 537 -102 537 -102 546 -100 c 1,8,-1
 538 -145 l 2,9,10
 538 -146 538 -146 529 -145 c 128,-1,11
 520 -144 520 -144 504.5 -137 c 128,-1,12
 489 -130 489 -130 473 -110 c 0,13,14
 461 -91 461 -91 460 -69.5 c 128,-1,15
 459 -48 459 -48 465 -26 c 128,-1,16
 471 -4 471 -4 476 7 c 1,17,-1
 508 5 l 1,0,1
566 455 m 1,18,-1
 560 4 l 1,19,-1
 475 5 l 1,20,-1
 478 76 l 1,21,22
 441 42 441 42 392.5 25 c 128,-1,23
 344 8 344 8 289 7 c 0,24,25
 231 6 231 6 182 24.5 c 128,-1,26
 133 43 133 43 98 76.5 c 128,-1,27
 63 110 63 110 45.5 156 c 128,-1,28
 28 202 28 202 33 256 c 0,29,30
 38 309 38 309 62.5 349.5 c 128,-1,31
 87 390 87 390 124.5 417 c 128,-1,32
 162 444 162 444 210.5 458 c 128,-1,33
 259 472 259 472 313 472 c 0,34,35
 362 472 362 472 407.5 454.5 c 128,-1,36
 453 437 453 437 481 405 c 1,37,-1
 483 455 l 1,38,-1
 566 455 l 1,18,-1
274 53 m 0,39,40
 328 51 328 51 367 67.5 c 128,-1,41
 406 84 406 84 430.5 111 c 128,-1,42
 455 138 455 138 463.5 171.5 c 128,-1,43
 472 205 472 205 473 237 c 0,44,45
 474 271 474 271 467.5 304 c 128,-1,46
 461 337 461 337 439 363 c 128,-1,47
 417 389 417 389 382.5 405.5 c 128,-1,48
 348 422 348 422 302 423 c 0,49,50
 274 424 274 424 241.5 414.5 c 128,-1,51
 209 405 209 405 181 384 c 128,-1,52
 153 363 153 363 133.5 330.5 c 128,-1,53
 114 298 114 298 112 251 c 0,54,55
 111 230 111 230 113.5 207.5 c 128,-1,56
 116 185 116 185 124 163.5 c 128,-1,57
 132 142 132 142 144 122.5 c 128,-1,58
 156 103 156 103 174.5 88 c 128,-1,59
 193 73 193 73 217.5 63.5 c 128,-1,60
 242 54 242 54 274 53 c 0,39,40
EndSplineSet
Validated: 37
EndChar

StartChar: Cacute
Encoding: 262 262 175
Width: 619
GlyphClass: 2
Flags: W
LayerCount: 2
Fore
SplineSet
581 681 m 1,0,-1
 581 593 l 1,1,2
 461 620 461 620 361 611 c 0,3,4
 318 607 318 607 275 595 c 128,-1,5
 232 583 232 583 195 558.5 c 128,-1,6
 158 534 158 534 129.5 495 c 128,-1,7
 101 456 101 456 88 398 c 0,8,9
 81 365 81 365 79.5 325 c 128,-1,10
 78 285 78 285 89.5 245 c 128,-1,11
 101 205 101 205 128.5 169 c 128,-1,12
 156 133 156 133 207 107 c 128,-1,13
 258 81 258 81 335 69.5 c 128,-1,14
 412 58 412 58 522 68 c 1,15,-1
 528 40 l 2,16,17
 530 29 530 29 531.5 20 c 128,-1,18
 533 11 533 11 532 10 c 0,19,20
 479 4 479 4 414 5.5 c 128,-1,21
 349 7 349 7 284 22 c 128,-1,22
 219 37 219 37 160.5 68 c 128,-1,23
 102 99 102 99 64 153 c 128,-1,24
 26 207 26 207 15 287 c 128,-1,25
 4 367 4 367 32 479 c 1,26,27
 51 537 51 537 85 576 c 128,-1,28
 119 615 119 615 161 640 c 128,-1,29
 203 665 203 665 250.5 677.5 c 128,-1,30
 298 690 298 690 345 695 c 0,31,32
 454 706 454 706 581 681 c 1,0,-1
310 724 m 5,33,-1
 295 746 l 5,34,-1
 389 858 l 5,35,-1
 429 812 l 5,36,-1
 310 724 l 5,33,-1
EndSplineSet
Validated: 33
EndChar

StartChar: Eogonek
Encoding: 280 280 177
Width: 437
GlyphClass: 2
Flags: W
LayerCount: 2
Fore
SplineSet
396 1 m 1,0,1
 383 -15 383 -15 383 -29 c 0,2,3
 382 -48 382 -48 388 -62.5 c 128,-1,4
 394 -77 394 -77 404.5 -84.5 c 128,-1,5
 415 -92 415 -92 425 -94 c 0,6,7
 440 -97 440 -97 448 -94 c 1,8,-1
 448 -138 l 2,9,10
 448 -139 448 -139 439.5 -139.5 c 128,-1,11
 431 -140 431 -140 415 -135.5 c 128,-1,12
 399 -131 399 -131 381 -115 c 0,13,14
 366 -99 366 -99 362 -78.5 c 128,-1,15
 358 -58 358 -58 360 -34 c 128,-1,16
 362 -10 362 -10 365 2 c 1,17,-1
 396 1 l 1,0,1
0 690 m 1,18,-1
 411 699 l 1,19,-1
 411 612 l 1,20,-1
 58 615 l 1,21,-1
 61 376 l 1,22,-1
 351 393 l 1,23,-1
 352 318 l 1,24,-1
 65 313 l 1,25,-1
 68 52 l 1,26,-1
 394 67 l 1,27,-1
 396 0 l 1,28,-1
 0 0 l 1,29,-1
 0 690 l 1,18,-1
EndSplineSet
Validated: 37
EndChar

StartChar: eogonek
Encoding: 281 281 178
Width: 598
GlyphClass: 2
Flags: W
LayerCount: 2
Fore
SplineSet
463 18 m 1,0,1
 450 2 450 2 450 -12 c 0,2,3
 449 -31 449 -31 455.5 -45.5 c 128,-1,4
 462 -60 462 -60 472.5 -67.5 c 128,-1,5
 483 -75 483 -75 493 -76 c 0,6,7
 508 -79 508 -79 516 -76 c 1,8,-1
 517 -120 l 2,9,10
 517 -121 517 -121 508.5 -121.5 c 128,-1,11
 500 -122 500 -122 483.5 -118 c 128,-1,12
 467 -114 467 -114 449 -98 c 0,13,14
 434 -82 434 -82 429.5 -61.5 c 128,-1,15
 425 -41 425 -41 427 -19 c 128,-1,16
 429 3 429 3 432 15 c 1,17,-1
 463 18 l 1,0,1
558 221 m 1,18,19
 564 220 564 220 547.5 220 c 128,-1,20
 531 220 531 220 500.5 220 c 128,-1,21
 470 220 470 220 429 220 c 128,-1,22
 388 220 388 220 344 220 c 128,-1,23
 300 220 300 220 257.5 220 c 128,-1,24
 215 220 215 220 181 220 c 128,-1,25
 147 220 147 220 125.5 220 c 128,-1,26
 104 220 104 220 102 219 c 0,27,28
 107 189 107 189 121 164.5 c 128,-1,29
 135 140 135 140 154.5 122 c 128,-1,30
 174 104 174 104 197.5 91.5 c 128,-1,31
 221 79 221 79 243 74 c 0,32,33
 257 71 257 71 276.5 69.5 c 128,-1,34
 296 68 296 68 322.5 69.5 c 128,-1,35
 349 71 349 71 381.5 78 c 128,-1,36
 414 85 414 85 453 100 c 1,37,-1
 468 20 l 1,38,39
 439 6 439 6 402 -1 c 128,-1,40
 365 -8 365 -8 327.5 -8.5 c 128,-1,41
 290 -9 290 -9 256.5 -4 c 128,-1,42
 223 1 223 1 201 12 c 0,43,44
 174 24 174 24 148 39.5 c 128,-1,45
 122 55 122 55 100 77.5 c 128,-1,46
 78 100 78 100 61.5 130 c 128,-1,47
 45 160 45 160 38 199 c 0,48,49
 30 247 30 247 37 287 c 128,-1,50
 44 327 44 327 62 360 c 128,-1,51
 80 393 80 393 107 418 c 128,-1,52
 134 443 134 443 166.5 459.5 c 128,-1,53
 199 476 199 476 234.5 483.5 c 128,-1,54
 270 491 270 491 304 491 c 0,55,56
 366 489 366 489 414.5 468.5 c 128,-1,57
 463 448 463 448 495.5 412.5 c 128,-1,58
 528 377 528 377 544 328.5 c 128,-1,59
 560 280 560 280 558 221 c 1,18,19
472 269 m 1,60,61
 464 306 464 306 452.5 334 c 128,-1,62
 441 362 441 362 417 382 c 128,-1,63
 393 402 393 402 365.5 414.5 c 128,-1,64
 338 427 338 427 308 431 c 0,65,66
 271 437 271 437 235 428 c 128,-1,67
 199 419 199 419 170.5 398.5 c 128,-1,68
 142 378 142 378 124.5 347.5 c 128,-1,69
 107 317 107 317 106 281 c 1,70,-1
 472 269 l 1,60,61
EndSplineSet
Validated: 37
EndChar

StartChar: Lslash
Encoding: 321 321 179
Width: 552
GlyphClass: 2
Flags: W
LayerCount: 2
Fore
SplineSet
-53 294 m 1,0,-1
 -81 335 l 1,1,-1
 328 482 l 1,2,-1
 340 456 l 1,3,-1
 -53 294 l 1,0,-1
20 698 m 1,4,-1
 93 694 l 1,5,-1
 90 67 l 1,6,-1
 495 97 l 1,7,-1
 493 3 l 1,8,-1
 21 0 l 1,9,-1
 20 698 l 1,4,-1
EndSplineSet
Validated: 5
EndChar

StartChar: lslash
Encoding: 322 322 180
Width: 167
GlyphClass: 2
Flags: W
LayerCount: 2
Fore
SplineSet
-58 344 m 1,0,-1
 -75 388 l 1,1,-1
 241 495 l 1,2,-1
 248 468 l 1,3,-1
 -58 344 l 1,0,-1
28 711 m 1,4,-1
 128 712 l 1,5,-1
 129 0 l 1,6,-1
 36 0 l 1,7,-1
 28 711 l 1,4,-1
EndSplineSet
Validated: 5
EndChar

StartChar: Nacute
Encoding: 323 323 181
Width: 749
GlyphClass: 2
Flags: W
LayerCount: 2
Fore
SplineSet
20 0 m 1,0,-1
 20 700 l 1,1,-1
 65 700 l 1,2,-1
 629 115 l 1,3,-1
 623 694 l 1,4,-1
 695 691 l 1,5,-1
 692 10 l 1,6,-1
 635 9 l 1,7,-1
 79 572 l 1,8,-1
 87 0 l 1,9,-1
 20 0 l 1,0,-1
391 681 m 1,10,-1
 374 704 l 1,11,-1
 480 821 l 1,12,-1
 524 773 l 1,13,-1
 391 681 l 1,10,-1
EndSplineSet
Validated: 1
EndChar

StartChar: nacute
Encoding: 324 324 182
Width: 603
GlyphClass: 2
Flags: W
LayerCount: 2
Fore
SplineSet
434 18 m 1,0,1
 434 42 434 42 435 73.5 c 128,-1,2
 436 105 436 105 437 140 c 128,-1,3
 438 175 438 175 437.5 211.5 c 128,-1,4
 437 248 437 248 431.5 282 c 128,-1,5
 426 316 426 316 416 345.5 c 128,-1,6
 406 375 406 375 390.5 396.5 c 128,-1,7
 375 418 375 418 350.5 429 c 128,-1,8
 326 440 326 440 288 437 c 0,9,10
 255 434 255 434 225.5 419.5 c 128,-1,11
 196 405 196 405 173 379.5 c 128,-1,12
 150 354 150 354 136 316.5 c 128,-1,13
 122 279 122 279 121 231 c 2,14,-1
 125 70 l 1,15,-1
 129 1 l 1,16,-1
 51 0 l 1,17,-1
 38 460 l 1,18,-1
 111 461 l 1,19,-1
 113 410 l 1,20,21
 145 438 145 438 180.5 455 c 128,-1,22
 216 472 216 472 256 481 c 0,23,24
 319 496 319 496 366 491.5 c 128,-1,25
 413 487 413 487 448.5 462 c 128,-1,26
 484 437 484 437 506 396 c 128,-1,27
 528 355 528 355 534.5 299 c 128,-1,28
 541 243 541 243 544 172.5 c 128,-1,29
 547 102 547 102 547 18 c 1,30,-1
 434 18 l 1,0,1
287 540 m 1,31,-1
 272 562 l 1,32,-1
 366 674 l 1,33,-1
 406 628 l 1,34,-1
 287 540 l 1,31,-1
EndSplineSet
Validated: 33
EndChar

StartChar: OE
Encoding: 338 338 183
Width: 772
GlyphClass: 2
Flags: W
LayerCount: 2
Fore
SplineSet
307 615 m 2,0,1
 305 615 305 615 301 616 c 0,2,3
 298 616 298 616 293 616.5 c 128,-1,4
 288 617 288 617 283 617 c 0,5,6
 268 617 268 617 245.5 614 c 128,-1,7
 223 611 223 611 198 600 c 128,-1,8
 173 589 173 589 148.5 569.5 c 128,-1,9
 124 550 124 550 104 517 c 128,-1,10
 84 484 84 484 71.5 435.5 c 128,-1,11
 59 387 59 387 59 320 c 0,12,13
 59 275 59 275 69.5 229 c 128,-1,14
 80 183 80 183 108 145 c 128,-1,15
 136 107 136 107 184.5 80.5 c 128,-1,16
 233 54 233 54 310 48 c 1,17,18
 310 31 310 31 310.5 21 c 128,-1,19
 311 11 311 11 312 6.5 c 128,-1,20
 313 2 313 2 313 1 c 128,-1,21
 313 0 313 0 311 0 c 0,22,23
 288 -1 288 -1 256.5 3.5 c 128,-1,24
 225 8 225 8 191 21.5 c 128,-1,25
 157 35 157 35 123 59 c 128,-1,26
 89 83 89 83 62 120.5 c 128,-1,27
 35 158 35 158 18.5 211 c 128,-1,28
 2 264 2 264 2 336 c 0,29,30
 2 419 2 419 17.5 476.5 c 128,-1,31
 33 534 33 534 58.5 573 c 128,-1,32
 84 612 84 612 117 634.5 c 128,-1,33
 150 657 150 657 184.5 668.5 c 128,-1,34
 219 680 219 680 252 684.5 c 128,-1,35
 285 689 285 689 311 691 c 1,36,-1
 307 615 l 2,0,1
307 690 m 1,37,-1
 718 699 l 1,38,-1
 718 612 l 1,39,-1
 360 615 l 1,40,-1
 363 376 l 1,41,-1
 658 393 l 1,42,-1
 659 318 l 1,43,-1
 367 313 l 1,44,-1
 370 52 l 1,45,-1
 701 67 l 1,46,-1
 703 0 l 1,47,-1
 307 0 l 1,48,-1
 307 690 l 1,37,-1
EndSplineSet
Validated: 37
EndChar

StartChar: oe
Encoding: 339 339 184
Width: 861
GlyphClass: 2
Flags: W
LayerCount: 2
Fore
SplineSet
452 467 m 1,0,-1
 406 397 l 1,1,2
 364 422 364 422 271 417 c 0,3,4
 242 414 242 414 214 406 c 128,-1,5
 186 398 186 398 161.5 382.5 c 128,-1,6
 137 367 137 367 114 340.5 c 128,-1,7
 91 314 91 314 82 276 c 0,8,9
 75 241 75 241 78 221 c 128,-1,10
 81 201 81 201 88.5 174.5 c 128,-1,11
 96 148 96 148 122.5 119 c 128,-1,12
 149 90 149 90 186 70 c 128,-1,13
 223 50 223 50 277 47.5 c 128,-1,14
 331 45 331 45 399 74 c 1,15,-1
 452 26 l 1,16,17
 382 -8 382 -8 323 -9 c 128,-1,18
 264 -10 264 -10 217.5 0 c 128,-1,19
 171 10 171 10 128 33.5 c 128,-1,20
 85 57 85 57 55.5 99 c 128,-1,21
 26 141 26 141 14.5 199 c 128,-1,22
 3 257 3 257 30 338 c 1,23,24
 49 380 49 380 73.5 408.5 c 128,-1,25
 98 437 98 437 128.5 455 c 128,-1,26
 159 473 159 473 193 481.5 c 128,-1,27
 227 490 227 490 261 494 c 0,28,29
 366 501 366 501 452 467 c 1,0,-1
811 228 m 1,30,31
 817 227 817 227 800.5 226.5 c 128,-1,32
 784 226 784 226 753.5 226 c 128,-1,33
 723 226 723 226 682 226 c 128,-1,34
 641 226 641 226 597 226 c 128,-1,35
 553 226 553 226 510.5 226 c 128,-1,36
 468 226 468 226 434 226 c 128,-1,37
 400 226 400 226 378.5 226 c 128,-1,38
 357 226 357 226 355 225 c 0,39,40
 360 195 360 195 374 170.5 c 128,-1,41
 388 146 388 146 408 128 c 128,-1,42
 428 110 428 110 451 97.5 c 128,-1,43
 474 85 474 85 496 81 c 0,44,45
 510 77 510 77 529.5 75.5 c 128,-1,46
 549 74 549 74 575.5 75.5 c 128,-1,47
 602 77 602 77 634.5 84 c 128,-1,48
 667 91 667 91 706 106 c 1,49,-1
 721 26 l 1,50,51
 692 12 692 12 655 5 c 128,-1,52
 618 -2 618 -2 580.5 -2.5 c 128,-1,53
 543 -3 543 -3 509.5 2 c 128,-1,54
 476 7 476 7 454 18 c 0,55,56
 427 30 427 30 401 46 c 128,-1,57
 375 62 375 62 353 84 c 128,-1,58
 331 106 331 106 314.5 136 c 128,-1,59
 298 166 298 166 291 205 c 0,60,61
 283 253 283 253 290 293 c 128,-1,62
 297 333 297 333 315 366 c 128,-1,63
 333 399 333 399 360 424 c 128,-1,64
 387 449 387 449 419.5 465.5 c 128,-1,65
 452 482 452 482 487.5 490 c 128,-1,66
 523 498 523 498 557 497 c 0,67,68
 619 495 619 495 667.5 474.5 c 128,-1,69
 716 454 716 454 748.5 418.5 c 128,-1,70
 781 383 781 383 797 334.5 c 128,-1,71
 813 286 813 286 811 228 c 1,30,31
719 275 m 1,72,73
 717 312 717 312 703 340 c 128,-1,74
 689 368 689 368 667.5 388 c 128,-1,75
 646 408 646 408 618.5 420.5 c 128,-1,76
 591 433 591 433 561 437 c 0,77,78
 524 443 524 443 488 434 c 128,-1,79
 452 425 452 425 423.5 404.5 c 128,-1,80
 395 384 395 384 377.5 353.5 c 128,-1,81
 360 323 360 323 359 287 c 1,82,-1
 719 275 l 1,72,73
EndSplineSet
Validated: 37
EndChar

StartChar: Sacute
Encoding: 346 346 185
Width: 431
GlyphClass: 2
Flags: W
LayerCount: 2
Fore
SplineSet
72 139 m 1,0,1
 78 132 78 132 92 120.5 c 128,-1,2
 106 109 106 109 124 97.5 c 128,-1,3
 142 86 142 86 163.5 76.5 c 128,-1,4
 185 67 185 67 206.5 63.5 c 128,-1,5
 228 60 228 60 247.5 64.5 c 128,-1,6
 267 69 267 69 282 86 c 0,7,8
 300 107 300 107 294.5 131 c 128,-1,9
 289 155 289 155 269.5 183 c 128,-1,10
 250 211 250 211 219.5 242 c 128,-1,11
 189 273 189 273 156 307 c 128,-1,12
 123 341 123 341 91.5 378 c 128,-1,13
 60 415 60 415 39 454.5 c 128,-1,14
 18 494 18 494 10.5 535.5 c 128,-1,15
 3 577 3 577 18 621 c 0,16,17
 29 654 29 654 61 671.5 c 128,-1,18
 93 689 93 689 133.5 695 c 128,-1,19
 174 701 174 701 218.5 699 c 128,-1,20
 263 697 263 697 300 692 c 128,-1,21
 337 687 337 687 360.5 681 c 128,-1,22
 384 675 384 675 384 674 c 2,23,-1
 381 604 l 2,24,25
 381 603 381 603 364 610 c 128,-1,26
 347 617 347 617 320.5 625 c 128,-1,27
 294 633 294 633 261.5 639 c 128,-1,28
 229 645 229 645 197.5 643 c 128,-1,29
 166 641 166 641 140 628.5 c 128,-1,30
 114 616 114 616 100 586 c 0,31,32
 83 549 83 549 92.5 511 c 128,-1,33
 102 473 102 473 126.5 434.5 c 128,-1,34
 151 396 151 396 186.5 357.5 c 128,-1,35
 222 319 222 319 257 282.5 c 128,-1,36
 292 246 292 246 321.5 211.5 c 128,-1,37
 351 177 351 177 364.5 145.5 c 128,-1,38
 378 114 378 114 370.5 87 c 128,-1,39
 363 60 363 60 324 38 c 0,40,41
 292 20 292 20 258.5 16.5 c 128,-1,42
 225 13 225 13 192.5 18.5 c 128,-1,43
 160 24 160 24 131.5 35.5 c 128,-1,44
 103 47 103 47 81 59 c 128,-1,45
 59 71 59 71 46.5 79.5 c 128,-1,46
 34 88 34 88 34 89 c 2,47,-1
 72 139 l 1,0,1
174 738 m 1,48,-1
 159 760 l 1,49,-1
 253 872 l 1,50,-1
 293 826 l 1,51,-1
 174 738 l 1,48,-1
EndSplineSet
Validated: 33
EndChar

StartChar: sacute
Encoding: 347 347 186
Width: 435
GlyphClass: 2
Flags: W
LayerCount: 2
Fore
SplineSet
74 126 m 1,0,1
 117 76 117 76 173 56 c 128,-1,2
 229 36 229 36 246.5 69 c 128,-1,3
 264 102 264 102 219 138.5 c 128,-1,4
 174 175 174 175 122.5 212 c 128,-1,5
 71 249 71 249 47 279 c 128,-1,6
 23 309 23 309 18 345 c 128,-1,7
 13 381 13 381 33 424 c 1,8,9
 57 464 57 464 108.5 487.5 c 128,-1,10
 160 511 160 511 232 500 c 128,-1,11
 304 489 304 489 349 460 c 128,-1,12
 394 431 394 431 394 430 c 2,13,-1
 349 351 l 1,14,15
 293 410 293 410 243.5 425.5 c 128,-1,16
 194 441 194 441 151.5 429.5 c 128,-1,17
 109 418 109 418 91 381 c 1,18,19
 76 337 76 337 106.5 302.5 c 128,-1,20
 137 268 137 268 195.5 225 c 128,-1,21
 254 182 254 182 285.5 146.5 c 128,-1,22
 317 111 317 111 313 68.5 c 128,-1,23
 309 26 309 26 257 0 c 1,24,25
 215 -14 215 -14 176.5 -8 c 128,-1,26
 138 -2 138 -2 111 12 c 128,-1,27
 84 26 84 26 31 66 c 1,28,-1
 74 126 l 1,0,1
194 553 m 1,29,-1
 179 575 l 1,30,-1
 273 687 l 1,31,-1
 313 641 l 1,32,-1
 194 553 l 1,29,-1
EndSplineSet
Validated: 33
EndChar

StartChar: Zacute
Encoding: 377 377 190
Width: 638
GlyphClass: 2
Flags: W
LayerCount: 2
Fore
SplineSet
595 694 m 1,0,-1
 596 659 l 1,1,-1
 205 60 l 1,2,-1
 586 78 l 1,3,-1
 591 10 l 1,4,-1
 105 0 l 1,5,-1
 100 45 l 1,6,-1
 500 643 l 1,7,-1
 50 639 l 1,8,-1
 45 700 l 1,9,-1
 595 694 l 1,0,-1
329 754 m 1,10,-1
 314 776 l 1,11,-1
 408 888 l 1,12,-1
 448 842 l 1,13,-1
 329 754 l 1,10,-1
EndSplineSet
Validated: 1
EndChar

StartChar: zacute
Encoding: 378 378 191
Width: 473
GlyphClass: 2
Flags: W
LayerCount: 2
Fore
SplineSet
400 472 m 1,0,-1
 401 432 l 1,1,-1
 130 61 l 1,2,-1
 417 62 l 1,3,-1
 414 -3 l 1,4,-1
 33 8 l 1,5,-1
 31 48 l 1,6,-1
 312 421 l 1,7,-1
 8 418 l 1,8,-1
 10 480 l 1,9,-1
 400 472 l 1,0,-1
185 528 m 1,10,-1
 170 550 l 1,11,-1
 264 662 l 1,12,-1
 304 616 l 1,13,-1
 185 528 l 1,10,-1
EndSplineSet
Validated: 1
EndChar

StartChar: Zdotaccent
Encoding: 379 379 192
Width: 638
GlyphClass: 2
Flags: W
LayerCount: 2
Fore
SplineSet
368 820 m 0,0,1
 382 810 382 810 384.5 795 c 128,-1,2
 387 780 387 780 379 766 c 0,3,4
 370 753 370 753 353 750.5 c 128,-1,5
 336 748 336 748 320 757 c 0,6,7
 306 766 306 766 303.5 781 c 128,-1,8
 301 796 301 796 310 810 c 0,9,10
 319 822 319 822 336 825 c 128,-1,11
 353 828 353 828 368 820 c 0,0,1
595 694 m 1,12,-1
 596 659 l 1,13,-1
 205 60 l 1,14,-1
 586 78 l 1,15,-1
 591 10 l 1,16,-1
 105 0 l 1,17,-1
 100 45 l 1,18,-1
 500 643 l 1,19,-1
 50 639 l 1,20,-1
 45 700 l 1,21,-1
 595 694 l 1,12,-1
EndSplineSet
Validated: 33
EndChar

StartChar: zdotaccent
Encoding: 380 380 193
Width: 473
GlyphClass: 2
Flags: W
LayerCount: 2
Fore
SplineSet
242 591 m 0,0,1
 256 581 256 581 258.5 566 c 128,-1,2
 261 551 261 551 253 537 c 0,3,4
 244 525 244 525 227 522.5 c 128,-1,5
 210 520 210 520 194 528 c 0,6,7
 181 537 181 537 178 552 c 128,-1,8
 175 567 175 567 184 581 c 0,9,10
 193 594 193 594 210 596.5 c 128,-1,11
 227 599 227 599 242 591 c 0,0,1
400 472 m 1,12,-1
 401 432 l 1,13,-1
 130 61 l 1,14,-1
 417 62 l 1,15,-1
 414 -3 l 1,16,-1
 33 8 l 1,17,-1
 31 48 l 1,18,-1
 312 421 l 1,19,-1
 8 418 l 1,20,-1
 10 480 l 1,21,-1
 400 472 l 1,12,-1
EndSplineSet
Validated: 33
EndChar

StartChar: circumflex
Encoding: 710 710 194
Width: 206
GlyphClass: 2
Flags: W
LayerCount: 2
Fore
SplineSet
82 750 m 1,0,-1
 203 645 l 1,1,-1
 172 614 l 1,2,-1
 87 704 l 1,3,-1
 32 586 l 1,4,-1
 0 601 l 1,5,-1
 82 750 l 1,0,-1
EndSplineSet
Validated: 1
EndChar

StartChar: caron
Encoding: 711 711 195
Width: 207
GlyphClass: 2
Flags: W
LayerCount: 2
Fore
SplineSet
0 735 m 1,0,-1
 32 750 l 1,1,-1
 87 632 l 1,2,-1
 172 722 l 1,3,-1
 203 691 l 1,4,-1
 82 586 l 1,5,-1
 0 735 l 1,0,-1
EndSplineSet
Validated: 1
EndChar

StartChar: ring
Encoding: 730 730 196
Width: 140
GlyphClass: 2
Flags: W
LayerCount: 2
Fore
SplineSet
71 687 m 0,0,1
 65 687 65 687 58.5 688 c 128,-1,2
 52 689 52 689 45 691.5 c 128,-1,3
 38 694 38 694 31.5 698.5 c 128,-1,4
 25 703 25 703 19 709.5 c 128,-1,5
 13 716 13 716 8.5 725 c 128,-1,6
 4 734 4 734 4 746 c 0,7,8
 4 759 4 759 6.5 767 c 128,-1,9
 9 775 9 775 14.5 781.5 c 128,-1,10
 20 788 20 788 26.5 793 c 128,-1,11
 33 798 33 798 40.5 801 c 128,-1,12
 48 804 48 804 55 805 c 128,-1,13
 62 806 62 806 72 806 c 0,14,15
 83 805 83 805 93 801.5 c 128,-1,16
 103 798 103 798 112 791 c 128,-1,17
 121 784 121 784 127.5 773 c 128,-1,18
 134 762 134 762 134 746 c 0,19,20
 134 733 134 733 130.5 724 c 128,-1,21
 127 715 127 715 121.5 708.5 c 128,-1,22
 116 702 116 702 109.5 698 c 128,-1,23
 103 694 103 694 96.5 691.5 c 128,-1,24
 90 689 90 689 82.5 688 c 128,-1,25
 75 687 75 687 71 687 c 0,0,1
68 790 m 0,26,27
 60 790 60 790 52 787 c 128,-1,28
 44 784 44 784 38.5 779 c 128,-1,29
 33 774 33 774 30 767.5 c 128,-1,30
 27 761 27 761 26 750 c 0,31,32
 26 739 26 739 29.5 729 c 128,-1,33
 33 719 33 719 39.5 712 c 128,-1,34
 46 705 46 705 53.5 702.5 c 128,-1,35
 61 700 61 700 73 700 c 0,36,37
 83 701 83 701 87.5 703 c 128,-1,38
 92 705 92 705 96 708 c 128,-1,39
 100 711 100 711 103.5 715.5 c 128,-1,40
 107 720 107 720 109.5 726 c 128,-1,41
 112 732 112 732 113 739 c 0,42,43
 114 755 114 755 109.5 764.5 c 128,-1,44
 105 774 105 774 99 779.5 c 128,-1,45
 93 785 93 785 87 787.5 c 128,-1,46
 81 790 81 790 68 790 c 0,26,27
EndSplineSet
Validated: 1
EndChar

StartChar: tilde
Encoding: 732 732 197
Width: 246
GlyphClass: 2
Flags: W
LayerCount: 2
Fore
SplineSet
1 639 m 1,0,1
 19 661 19 661 37 679 c 0,2,3
 53 694 53 694 71 708 c 128,-1,4
 89 722 89 722 105 724 c 0,5,6
 121 725 121 725 132 714 c 128,-1,7
 143 703 143 703 151.5 689 c 128,-1,8
 160 675 160 675 168 663.5 c 128,-1,9
 176 652 176 652 185 654 c 0,10,11
 193 654 193 654 198.5 668.5 c 128,-1,12
 204 683 204 683 207 701 c 0,13,14
 211 722 211 722 213 749 c 1,15,-1
 244 743 l 1,16,17
 237 711 237 711 228 685 c 0,18,19
 220 663 220 663 209.5 644.5 c 128,-1,20
 199 626 199 626 188 624 c 0,21,22
 170 622 170 622 161.5 630.5 c 128,-1,23
 153 639 153 639 147 650 c 128,-1,24
 141 661 141 661 134.5 671 c 128,-1,25
 128 681 128 681 114 681 c 0,26,27
 98 682 98 682 83 672 c 128,-1,28
 68 662 68 662 56 649 c 0,29,30
 42 634 42 634 29 614 c 1,31,-1
 1 639 l 1,0,1
EndSplineSet
Validated: 33
EndChar

StartChar: afii10023
Encoding: 1025 1025 198
Width: 437
GlyphClass: 2
Flags: W
LayerCount: 2
Fore
SplineSet
0 690 m 1,0,-1
 411 699 l 1,1,-1
 411 612 l 1,2,-1
 58 615 l 1,3,-1
 61 376 l 1,4,-1
 351 393 l 1,5,-1
 352 318 l 1,6,-1
 65 313 l 1,7,-1
 68 52 l 1,8,-1
 394 67 l 1,9,-1
 396 0 l 1,10,-1
 0 0 l 1,11,-1
 0 690 l 1,0,-1
172 757 m 0,12,13
 161 743 161 743 145 741.5 c 128,-1,14
 129 740 129 740 113 748 c 0,15,16
 98 756 98 756 94.5 773 c 128,-1,17
 91 790 91 790 99 804 c 0,18,19
 113 821 113 821 131 821.5 c 128,-1,20
 149 822 149 822 163 812 c 0,21,22
 177 801 177 801 179 786 c 128,-1,23
 181 771 181 771 172 757 c 0,12,13
267 794 m 0,24,25
 279 805 279 805 294.5 804.5 c 128,-1,26
 310 804 310 804 317 798 c 0,27,28
 329 790 329 790 332 777 c 128,-1,29
 335 764 335 764 327 751 c 0,30,31
 317 740 317 740 302 737 c 128,-1,32
 287 734 287 734 273 743 c 0,33,34
 260 750 260 750 257.5 765 c 128,-1,35
 255 780 255 780 267 794 c 0,24,25
EndSplineSet
Validated: 33
EndChar

StartChar: afii10017
Encoding: 1040 1040 199
Width: 616
GlyphClass: 2
Flags: W
LayerCount: 2
Fore
SplineSet
5 19 m 1,0,-1
 232 695 l 1,1,-1
 282 697 l 1,2,-1
 591 35 l 1,3,-1
 513 4 l 1,4,-1
 250 600 l 1,5,-1
 168 329 l 1,6,-1
 379 332 l 1,7,-1
 396 289 l 1,8,-1
 159 288 l 1,9,-1
 64 0 l 1,10,-1
 5 19 l 1,0,-1
EndSplineSet
Validated: 5
EndChar

StartChar: afii10018
Encoding: 1041 1041 200
Width: 531
GlyphClass: 2
Flags: W
LayerCount: 2
Fore
SplineSet
87 95 m 1,0,1
 108 93 108 93 145.5 92.5 c 128,-1,2
 183 92 183 92 220.5 96.5 c 128,-1,3
 258 101 258 101 294.5 112 c 128,-1,4
 331 123 331 123 357.5 143 c 128,-1,5
 384 163 384 163 398.5 194.5 c 128,-1,6
 413 226 413 226 408 271 c 0,7,8
 401 307 401 307 376 328.5 c 128,-1,9
 351 350 351 350 313.5 361 c 128,-1,10
 276 372 276 372 234.5 375 c 128,-1,11
 193 378 193 378 157.5 377 c 128,-1,12
 122 376 122 376 102 373.5 c 128,-1,13
 82 371 82 371 87 95 c 1,0,1
480 231 m 0,14,15
 481 184 481 184 462.5 150 c 128,-1,16
 444 116 444 116 412 92 c 128,-1,17
 380 68 380 68 338.5 52 c 128,-1,18
 297 36 297 36 254 27 c 0,19,20
 152 5 152 5 21 8 c 1,21,-1
 21 685 l 1,22,-1
 22 685 l 1,23,-1
 21 704 l 1,24,-1
 374 702 l 1,25,-1
 374 640 l 1,26,-1
 84 651 l 1,27,-1
 84 646 l 1,28,29
 75 575 75 575 84 432 c 1,30,31
 114 431 114 431 144.5 429.5 c 128,-1,32
 175 428 175 428 217 425 c 0,33,34
 241 422 241 422 262.5 419.5 c 128,-1,35
 284 417 284 417 302 411 c 0,36,37
 351 403 351 403 390 381 c 0,38,39
 405 372 405 372 421 358.5 c 128,-1,40
 437 345 437 345 450 326.5 c 128,-1,41
 463 308 463 308 471 284.5 c 128,-1,42
 479 261 479 261 480 231 c 0,14,15
EndSplineSet
Validated: 33
EndChar

StartChar: afii10019
Encoding: 1042 1042 201
Width: 526
GlyphClass: 2
Flags: W
LayerCount: 2
Fore
SplineSet
475 231 m 0,0,1
 476 184 476 184 457.5 150 c 128,-1,2
 439 116 439 116 407 92 c 128,-1,3
 375 68 375 68 333.5 52 c 128,-1,4
 292 36 292 36 249 27 c 0,5,6
 147 5 147 5 16 8 c 1,7,-1
 16 685 l 1,8,9
 21 688 21 688 52.5 692.5 c 128,-1,10
 84 697 84 697 127 699.5 c 128,-1,11
 170 702 170 702 219.5 697.5 c 128,-1,12
 269 693 269 693 311 675.5 c 128,-1,13
 353 658 353 658 381 628 c 128,-1,14
 409 598 409 598 410 550 c 0,15,16
 410 502 410 502 392 474 c 128,-1,17
 374 446 374 446 353 432 c 0,18,19
 328 415 328 415 297 411 c 1,20,21
 345 403 345 403 384 381 c 0,22,23
 400 372 400 372 416 358.5 c 128,-1,24
 432 345 432 345 445 326.5 c 128,-1,25
 458 308 458 308 466 284.5 c 128,-1,26
 474 261 474 261 475 231 c 0,0,1
330 550 m 0,27,28
 333 588 333 588 315 609 c 128,-1,29
 297 630 297 630 268 640.5 c 128,-1,30
 239 651 239 651 205 653 c 128,-1,31
 171 655 171 655 141 652.5 c 128,-1,32
 111 650 111 650 93.5 646.5 c 128,-1,33
 76 643 76 643 75 642 c 2,34,-1
 78 431 l 1,35,36
 141 425 141 425 196 436 c 0,37,38
 220 440 220 440 243 448.5 c 128,-1,39
 266 457 266 457 284.5 470.5 c 128,-1,40
 303 484 303 484 315.5 503.5 c 128,-1,41
 328 523 328 523 330 550 c 0,27,28
82 95 m 1,42,43
 103 93 103 93 140 92.5 c 128,-1,44
 177 92 177 92 215 96.5 c 128,-1,45
 253 101 253 101 289 112 c 128,-1,46
 325 123 325 123 352 143 c 128,-1,47
 379 163 379 163 393 194.5 c 128,-1,48
 407 226 407 226 402 271 c 0,49,50
 396 307 396 307 370.5 328.5 c 128,-1,51
 345 350 345 350 308 361 c 128,-1,52
 271 372 271 372 229.5 375 c 128,-1,53
 188 378 188 378 152 377 c 128,-1,54
 116 376 116 376 96 373.5 c 128,-1,55
 76 371 76 371 82 95 c 1,42,43
EndSplineSet
Validated: 33
EndChar

StartChar: afii10020
Encoding: 1043 1043 202
Width: 401
GlyphClass: 2
Flags: W
LayerCount: 2
Fore
SplineSet
0 9 m 1,0,-1
 9 699 l 1,1,-1
 361 697 l 1,2,-1
 361 635 l 1,3,-1
 60 646 l 1,4,-1
 84 -1 l 1,5,-1
 1 2 l 1,6,-1
 0 9 l 1,0,-1
EndSplineSet
Validated: 1
EndChar

StartChar: afii10021
Encoding: 1044 1044 203
Width: 901
GlyphClass: 2
Flags: W
LayerCount: 2
Fore
SplineSet
185 64 m 1,0,-1
 397 695 l 1,1,-1
 448 697 l 1,2,-1
 742 65 l 1,3,-1
 883 65 l 1,4,-1
 882 -204 l 1,5,-1
 816 -204 l 1,6,-1
 826 1 l 1,7,-1
 679 4 l 1,8,-1
 229 0 l 1,9,-1
 81 -1 l 1,10,-1
 90 -206 l 1,11,-1
 24 -206 l 1,12,-1
 23 63 l 1,13,-1
 164 63 l 1,14,-1
 185 64 l 1,0,-1
250 65 m 1,15,-1
 652 65 l 1,16,-1
 415 600 l 1,17,-1
 250 65 l 1,15,-1
EndSplineSet
Validated: 1
EndChar

StartChar: afii10022
Encoding: 1045 1045 204
Width: 437
GlyphClass: 2
Flags: W
LayerCount: 2
Fore
SplineSet
0 690 m 1,0,-1
 411 699 l 1,1,-1
 411 612 l 1,2,-1
 58 615 l 1,3,-1
 61 376 l 1,4,-1
 351 393 l 1,5,-1
 352 318 l 1,6,-1
 65 313 l 1,7,-1
 68 52 l 1,8,-1
 394 67 l 1,9,-1
 396 0 l 1,10,-1
 0 0 l 1,11,-1
 0 690 l 1,0,-1
EndSplineSet
Validated: 1
EndChar

StartChar: afii10024
Encoding: 1046 1046 205
Width: 951
GlyphClass: 2
Flags: W
LayerCount: 2
Fore
SplineSet
421 696 m 1,0,-1
 488 699 l 1,1,-1
 488 411 l 1,2,-1
 805 690 l 1,3,-1
 861 627 l 1,4,-1
 531 372 l 1,5,-1
 909 102 l 1,6,-1
 860 25 l 1,7,-1
 495 333 l 1,8,-1
 500 3 l 1,9,-1
 439 0 l 1,10,-1
 431 327 l 1,11,-1
 72 14 l 1,12,-1
 21 88 l 1,13,-1
 391 369 l 1,14,-1
 54 615 l 1,15,-1
 108 680 l 1,16,-1
 429 413 l 1,17,-1
 421 696 l 1,0,-1
EndSplineSet
Validated: 1
EndChar

StartChar: afii10025
Encoding: 1047 1047 206
Width: 431
GlyphClass: 2
Flags: W
LayerCount: 2
Fore
SplineSet
65 139 m 1,0,1
 71 131 71 131 85 119.5 c 128,-1,2
 99 108 99 108 117 96.5 c 128,-1,3
 135 85 135 85 156.5 75.5 c 128,-1,4
 178 66 178 66 199.5 63 c 128,-1,5
 221 60 221 60 240.5 64 c 128,-1,6
 260 68 260 68 275 85 c 0,7,8
 293 106 293 106 287.5 130 c 128,-1,9
 282 154 282 154 262.5 182 c 128,-1,10
 243 210 243 210 217 237 c 128,-1,11
 191 264 191 264 149 293 c 1,12,13
 145 307 145 307 144 322 c 1,14,15
 174 336 174 336 187 349 c 0,16,17
 189 353 189 353 193 357 c 0,18,19
 229 396 229 396 253.5 434.5 c 128,-1,20
 278 473 278 473 287.5 511 c 128,-1,21
 297 549 297 549 280 586 c 0,22,23
 266 616 266 616 240 628.5 c 128,-1,24
 214 641 214 641 182.5 643 c 128,-1,25
 151 645 151 645 118.5 639 c 128,-1,26
 86 633 86 633 59.5 625 c 128,-1,27
 33 617 33 617 16 610 c 128,-1,28
 -1 603 -1 603 -1 604 c 2,29,-1
 -4 674 l 2,30,31
 -4 675 -4 675 19.5 681 c 128,-1,32
 43 687 43 687 80 692 c 128,-1,33
 117 697 117 697 161.5 699 c 128,-1,34
 206 701 206 701 246.5 695 c 128,-1,35
 287 689 287 689 319 671.5 c 128,-1,36
 351 654 351 654 362 621 c 0,37,38
 377 577 377 577 369.5 535.5 c 128,-1,39
 362 494 362 494 341 454.5 c 128,-1,40
 320 415 320 415 288 378 c 0,41,42
 266 351 266 351 225 308 c 1,43,-1
 252 280 l 2,44,45
 285 246 285 246 314.5 211 c 128,-1,46
 344 176 344 176 357.5 144.5 c 128,-1,47
 371 113 371 113 363.5 86.5 c 128,-1,48
 356 60 356 60 317 38 c 0,49,50
 285 20 285 20 251.5 16.5 c 128,-1,51
 218 13 218 13 185.5 18 c 128,-1,52
 153 23 153 23 124.5 34.5 c 128,-1,53
 96 46 96 46 74 58 c 128,-1,54
 52 70 52 70 39.5 78.5 c 128,-1,55
 27 87 27 87 27 88 c 2,56,-1
 65 139 l 1,0,1
EndSplineSet
Validated: 37
EndChar

StartChar: afii10026
Encoding: 1048 1048 207
Width: 749
GlyphClass: 2
Flags: W
LayerCount: 2
Fore
SplineSet
628 0 m 1,0,-1
 636 572 l 1,1,-1
 80 9 l 1,2,-1
 23 10 l 1,3,-1
 20 691 l 1,4,-1
 92 694 l 1,5,-1
 86 115 l 1,6,-1
 650 700 l 1,7,-1
 695 700 l 1,8,-1
 695 0 l 1,9,-1
 628 0 l 1,0,-1
EndSplineSet
Validated: 1
EndChar

StartChar: afii10027
Encoding: 1049 1049 208
Width: 749
GlyphClass: 2
Flags: W
LayerCount: 2
Fore
SplineSet
517 855 m 1,0,1
 498 825 498 825 477 799 c 0,2,3
 459 778 459 778 434 760.5 c 128,-1,4
 409 743 409 743 377 743 c 0,5,6
 337 743 337 743 312.5 760.5 c 128,-1,7
 288 778 288 778 274 799 c 0,8,9
 257 825 257 825 248 855 c 1,10,-1
 285 860 l 1,11,12
 292 839 292 839 304 820 c 0,13,14
 316 804 316 804 331 788.5 c 128,-1,15
 346 773 346 773 372 769 c 0,16,17
 395 764 395 764 415 779 c 128,-1,18
 435 794 435 794 447 813 c 0,19,20
 461 834 461 834 473 862 c 1,21,-1
 517 855 l 1,22,-1
 517 855 l 1,0,1
695 0 m 1,23,-1
 695 700 l 1,24,-1
 650 700 l 1,25,-1
 86 115 l 1,26,-1
 92 694 l 1,27,-1
 20 691 l 1,28,-1
 23 10 l 1,29,-1
 80 9 l 1,30,-1
 636 572 l 1,31,-1
 628 0 l 1,32,-1
 695 0 l 1,23,-1
EndSplineSet
EndChar

StartChar: afii10028
Encoding: 1050 1050 209
Width: 542
GlyphClass: 2
Flags: W
LayerCount: 2
Fore
SplineSet
13 697 m 1,0,-1
 80 699 l 1,1,-1
 80 411 l 1,2,-1
 397 691 l 1,3,-1
 453 628 l 1,4,-1
 123 372 l 1,5,-1
 501 102 l 1,6,-1
 452 26 l 1,7,-1
 86 333 l 1,8,-1
 92 4 l 1,9,-1
 31 1 l 1,10,-1
 13 697 l 1,0,-1
EndSplineSet
Validated: 1
EndChar

StartChar: afii10029
Encoding: 1051 1051 210
Width: 710
GlyphClass: 2
Flags: W
LayerCount: 2
Fore
SplineSet
300 698 m 1,0,-1
 334 701 l 1,1,-1
 662 34 l 1,2,-1
 585 -3 l 1,3,-1
 314 581 l 1,4,-1
 71 -2 l 1,5,-1
 11 23 l 1,6,-1
 300 698 l 1,0,-1
EndSplineSet
Validated: 1
EndChar

StartChar: afii10030
Encoding: 1052 1052 211
Width: 763
GlyphClass: 2
Flags: W
LayerCount: 2
Fore
SplineSet
20 0 m 1,0,-1
 20 700 l 1,1,-1
 65 700 l 1,2,-1
 356 112 l 1,3,-1
 609 696 l 1,4,-1
 682 696 l 1,5,-1
 705 8 l 1,6,-1
 614 8 l 1,7,-1
 611 564 l 1,8,-1
 367 -3 l 1,9,-1
 331 5 l 1,10,-1
 72 543 l 1,11,-1
 90 -1 l 1,12,-1
 20 0 l 1,0,-1
EndSplineSet
Validated: 1
EndChar

StartChar: afii10031
Encoding: 1053 1053 212
Width: 680
GlyphClass: 2
Flags: W
LayerCount: 2
Fore
SplineSet
0 700 m 1,0,-1
 76 696 l 1,1,-1
 83 275 l 1,2,-1
 526 284 l 1,3,-1
 522 694 l 1,4,-1
 581 694 l 1,5,-1
 600 13 l 1,6,-1
 529 12 l 1,7,-1
 526 213 l 1,8,-1
 85 211 l 1,9,-1
 88 0 l 1,10,-1
 0 0 l 1,11,-1
 0 700 l 1,0,-1
EndSplineSet
Validated: 1
EndChar

StartChar: afii10032
Encoding: 1054 1054 213
Width: 850
GlyphClass: 2
Flags: W
LayerCount: 2
Fore
SplineSet
415 707 m 0,0,1
 447 707 447 707 486.5 701.5 c 128,-1,2
 526 696 526 696 568.5 681.5 c 128,-1,3
 611 667 611 667 649.5 642.5 c 128,-1,4
 688 618 688 618 723 579 c 128,-1,5
 758 540 758 540 780.5 483.5 c 128,-1,6
 803 427 803 427 804 352 c 0,7,8
 801 249 801 249 762 181 c 128,-1,9
 723 113 723 113 664.5 70.5 c 128,-1,10
 606 28 606 28 535.5 9.5 c 128,-1,11
 465 -9 465 -9 400 -9 c 0,12,13
 365 -9 365 -9 321 -4 c 128,-1,14
 277 1 277 1 232 17 c 128,-1,15
 187 33 187 33 146.5 61 c 128,-1,16
 106 89 106 89 73 128.5 c 128,-1,17
 40 168 40 168 22 218.5 c 128,-1,18
 4 269 4 269 8 349 c 0,19,20
 13 423 13 423 37 478.5 c 128,-1,21
 61 534 61 534 97 574 c 128,-1,22
 133 614 133 614 173.5 639.5 c 128,-1,23
 214 665 214 665 257.5 681 c 128,-1,24
 301 697 301 697 341.5 702.5 c 128,-1,25
 382 708 382 708 415 707 c 0,0,1
396 39 m 0,26,27
 452 38 452 38 511.5 55.5 c 128,-1,28
 571 73 571 73 614 110.5 c 128,-1,29
 657 148 657 148 689.5 216 c 128,-1,30
 722 284 722 284 719 384 c 0,31,32
 714 442 714 442 694 488 c 128,-1,33
 674 534 674 534 652.5 561.5 c 128,-1,34
 631 589 631 589 599.5 609.5 c 128,-1,35
 568 630 568 630 538 642 c 128,-1,36
 508 654 508 654 443 661 c 1,37,38
 377 664 377 664 313.5 646 c 128,-1,39
 250 628 250 628 199.5 579 c 128,-1,40
 149 530 149 530 123.5 457.5 c 128,-1,41
 98 385 98 385 100 309 c 0,42,43
 102 239 102 239 130 188 c 128,-1,44
 158 137 158 137 195.5 105 c 128,-1,45
 233 73 233 73 287 57 c 128,-1,46
 341 41 341 41 396 39 c 0,26,27
EndSplineSet
Validated: 33
EndChar

StartChar: afii10033
Encoding: 1055 1055 214
Width: 680
GlyphClass: 2
Flags: W
LayerCount: 2
Fore
SplineSet
0 700 m 1,0,-1
 581 694 l 1,1,-1
 600 13 l 1,2,-1
 529 12 l 1,3,-1
 526 623 l 1,4,-1
 85 621 l 1,5,-1
 88 0 l 1,6,-1
 0 0 l 1,7,-1
 0 700 l 1,0,-1
EndSplineSet
Validated: 1
EndChar

StartChar: afii10034
Encoding: 1056 1056 215
Width: 528
GlyphClass: 2
Flags: W
LayerCount: 2
Fore
SplineSet
486 526 m 0,0,1
 490 467 490 467 465 426.5 c 128,-1,2
 440 386 440 386 403 359 c 128,-1,3
 366 332 366 332 320.5 317 c 128,-1,4
 275 302 275 302 231.5 294 c 128,-1,5
 188 286 188 286 150.5 284.5 c 128,-1,6
 113 283 113 283 93 283 c 1,7,-1
 92 0 l 1,8,-1
 27 0 l 1,9,-1
 8 694 l 1,10,11
 38 695 38 695 84.5 697.5 c 128,-1,12
 131 700 131 700 183.5 698.5 c 128,-1,13
 236 697 236 697 288.5 689.5 c 128,-1,14
 341 682 341 682 383.5 663 c 128,-1,15
 426 644 426 644 454 610 c 128,-1,16
 482 576 482 576 486 526 c 0,0,1
93 350 m 1,17,18
 187 347 187 347 261 362 c 0,19,20
 292 368 292 368 314.5 378.5 c 128,-1,21
 337 389 337 389 355 405.5 c 128,-1,22
 373 422 373 422 387 445.5 c 128,-1,23
 401 469 401 469 401 501 c 0,24,25
 401 535 401 535 387.5 558.5 c 128,-1,26
 374 582 374 582 355 597.5 c 128,-1,27
 336 613 336 613 313.5 621.5 c 128,-1,28
 291 630 291 630 258 634 c 0,29,30
 181 643 181 643 85 631 c 1,31,-1
 93 350 l 1,17,18
EndSplineSet
Validated: 33
EndChar

StartChar: afii10035
Encoding: 1057 1057 216
Width: 619
GlyphClass: 2
Flags: W
LayerCount: 2
Fore
SplineSet
581 681 m 1,0,-1
 581 593 l 1,1,2
 461 620 461 620 361 611 c 0,3,4
 318 607 318 607 275 595 c 128,-1,5
 232 583 232 583 195 558.5 c 128,-1,6
 158 534 158 534 129.5 495 c 128,-1,7
 101 456 101 456 88 398 c 0,8,9
 81 365 81 365 79.5 325 c 128,-1,10
 78 285 78 285 89.5 245 c 128,-1,11
 101 205 101 205 128.5 169 c 128,-1,12
 156 133 156 133 207 107 c 128,-1,13
 258 81 258 81 335 69.5 c 128,-1,14
 412 58 412 58 522 68 c 1,15,-1
 528 40 l 2,16,17
 530 29 530 29 531.5 20 c 128,-1,18
 533 11 533 11 532 10 c 0,19,20
 479 4 479 4 414 5.5 c 128,-1,21
 349 7 349 7 284 22 c 128,-1,22
 219 37 219 37 160.5 68 c 128,-1,23
 102 99 102 99 64 153 c 128,-1,24
 26 207 26 207 15 287 c 128,-1,25
 4 367 4 367 32 479 c 1,26,27
 51 537 51 537 85 576 c 128,-1,28
 119 615 119 615 161 640 c 128,-1,29
 203 665 203 665 250.5 677.5 c 128,-1,30
 298 690 298 690 345 695 c 0,31,32
 454 706 454 706 581 681 c 1,0,-1
EndSplineSet
Validated: 33
EndChar

StartChar: afii10036
Encoding: 1058 1058 217
Width: 629
GlyphClass: 2
Flags: W
LayerCount: 2
Fore
SplineSet
0 698 m 1,0,-1
 598 691 l 1,1,-1
 592 632 l 1,2,-1
 312 638 l 1,3,-1
 365 7 l 1,4,-1
 266 0 l 1,5,-1
 250 642 l 1,6,-1
 3 647 l 1,7,-1
 0 698 l 1,0,-1
EndSplineSet
Validated: 1
EndChar

StartChar: afii10037
Encoding: 1059 1059 218
Width: 620
GlyphClass: 2
Flags: W
LayerCount: 2
Fore
SplineSet
27 654 m 1,0,-1
 74 688 l 1,1,-1
 337 368 l 1,2,-1
 488 701 l 1,3,-1
 553 649 l 1,4,-1
 256 3 l 1,5,-1
 169 0 l 1,6,-1
 313 317 l 1,7,-1
 27 654 l 1,0,-1
EndSplineSet
Validated: 1
EndChar

StartChar: afii10038
Encoding: 1060 1060 219
Width: 850
GlyphClass: 2
Flags: W
LayerCount: 2
Fore
SplineSet
415 703 m 0,0,1
 448 703 448 703 488 697.5 c 128,-1,2
 528 692 528 692 571 679 c 128,-1,3
 614 666 614 666 653 644 c 128,-1,4
 692 622 692 622 728 586 c 128,-1,5
 764 550 764 550 786.5 498.5 c 128,-1,6
 809 447 809 447 810 379 c 0,7,8
 807 285 807 285 768 223 c 128,-1,9
 729 161 729 161 669 122 c 128,-1,10
 609 83 609 83 545 68 c 128,-1,11
 481 53 481 53 427 50 c 1,12,13
 427 26 427 26 425 2 c 1,14,15
 388 3 388 3 360 3 c 1,16,17
 360 36 360 36 360 51 c 1,18,19
 341 52 341 52 308 55.5 c 128,-1,20
 275 59 275 59 229.5 73.5 c 128,-1,21
 184 88 184 88 142.5 113.5 c 128,-1,22
 101 139 101 139 67.5 175 c 128,-1,23
 34 211 34 211 16 257 c 128,-1,24
 -2 303 -2 303 2 376 c 0,25,26
 6 443 6 443 31 494 c 128,-1,27
 56 545 56 545 92.5 581 c 128,-1,28
 129 617 129 617 170 640.5 c 128,-1,29
 211 664 211 664 255 678.5 c 128,-1,30
 299 693 299 693 340 698 c 128,-1,31
 381 703 381 703 415 703 c 0,0,1
431 95 m 1,32,33
 460 96 460 96 486.5 101.5 c 128,-1,34
 513 107 513 107 544 118 c 0,35,36
 580 129 580 129 613.5 156 c 128,-1,37
 647 183 647 183 673 220 c 0,38,39
 698 256 698 256 712 299 c 128,-1,40
 726 342 726 342 724 396 c 0,41,42
 723 427 723 427 716.5 453 c 128,-1,43
 710 479 710 479 700 502 c 128,-1,44
 690 525 690 525 676 544.5 c 128,-1,45
 662 564 662 564 647 582 c 1,46,47
 619 605 619 605 593.5 619.5 c 128,-1,48
 568 634 568 634 545 642 c 128,-1,49
 522 650 522 650 501 653 c 128,-1,50
 480 656 480 656 459 657 c 1,51,-1
 431 95 l 1,32,33
380 659 m 1,52,53
 325 656 325 656 282 639 c 128,-1,54
 239 622 239 622 204 592 c 0,55,56
 180 574 180 574 164 554.5 c 128,-1,57
 148 535 148 535 137 515.5 c 128,-1,58
 126 496 126 496 118.5 476 c 128,-1,59
 111 456 111 456 107 436 c 0,60,61
 91 379 91 379 96.5 327 c 128,-1,62
 102 275 102 275 126 225 c 1,63,64
 151 189 151 189 180 163 c 128,-1,65
 209 137 209 137 244 125 c 0,66,67
 272 113 272 113 302 106 c 128,-1,68
 332 99 332 99 363 95 c 1,69,-1
 380 659 l 1,52,53
EndSplineSet
Validated: 33
EndChar

StartChar: afii10039
Encoding: 1061 1061 220
Width: 720
GlyphClass: 2
Flags: W
LayerCount: 2
Fore
SplineSet
601 3 m 1,0,-1
 325 341 l 1,1,-1
 110 11 l 1,2,-1
 34 59 l 1,3,-1
 279 394 l 1,4,-1
 49 661 l 1,5,-1
 100 699 l 1,6,-1
 315 447 l 1,7,-1
 472 675 l 1,8,-1
 536 626 l 1,9,-1
 358 390 l 1,10,-1
 655 42 l 1,11,-1
 601 3 l 1,0,-1
EndSplineSet
Validated: 1
EndChar

StartChar: afii10040
Encoding: 1062 1062 221
Width: 714
GlyphClass: 2
Flags: W
LayerCount: 2
Fore
SplineSet
101 697 m 1,0,-1
 96 70 l 1,1,-1
 479 68 l 1,2,-1
 513 691 l 1,3,-1
 575 689 l 1,4,-1
 555 67 l 1,5,-1
 693 67 l 1,6,-1
 693 -202 l 1,7,-1
 625 -203 l 1,8,-1
 637 3 l 1,9,-1
 72 -3 l 1,10,-1
 27 -3 l 1,11,-1
 27 697 l 1,12,-1
 101 697 l 1,0,-1
EndSplineSet
Validated: 1
EndChar

StartChar: afii10041
Encoding: 1063 1063 222
Width: 528
GlyphClass: 2
Flags: W
LayerCount: 2
Fore
SplineSet
89 695 m 1,0,-1
 93 551 l 2,1,2
 94 533 94 533 96 518.5 c 128,-1,3
 98 504 98 504 101.5 492 c 128,-1,4
 105 480 105 480 109.5 469 c 128,-1,5
 114 458 114 458 119 447 c 0,6,7
 130 431 130 431 143.5 416.5 c 128,-1,8
 157 402 157 402 173.5 390.5 c 128,-1,9
 190 379 190 379 210.5 371 c 128,-1,10
 231 363 231 363 256 359 c 0,11,12
 294 353 294 353 333 350.5 c 128,-1,13
 372 348 372 348 414 351 c 1,14,-1
 425 697 l 1,15,16
 415 698 415 698 443 696.5 c 128,-1,17
 471 695 471 695 501 694 c 1,18,-1
 482 0 l 1,19,-1
 417 0 l 1,20,-1
 416 283 l 1,21,22
 396 283 396 283 358.5 284.5 c 128,-1,23
 321 286 321 286 277.5 294 c 128,-1,24
 234 302 234 302 188.5 317 c 128,-1,25
 143 332 143 332 106 359 c 128,-1,26
 69 386 69 386 43.5 427 c 128,-1,27
 18 468 18 468 29 696 c 1,28,-1
 89 695 l 1,0,-1
EndSplineSet
Validated: 33
EndChar

StartChar: afii10042
Encoding: 1064 1064 223
Width: 763
GlyphClass: 2
Flags: W
LayerCount: 2
Fore
SplineSet
94 697 m 1,0,-1
 89 70 l 1,1,-1
 313 69 l 1,2,-1
 313 697 l 1,3,-1
 367 691 l 1,4,-1
 392 69 l 1,5,-1
 609 68 l 1,6,-1
 643 691 l 1,7,-1
 705 689 l 1,8,-1
 682 1 l 1,9,-1
 609 1 l 1,10,-1
 65 -3 l 1,11,-1
 20 -3 l 1,12,-1
 20 697 l 1,13,-1
 94 697 l 1,0,-1
EndSplineSet
Validated: 1
EndChar

StartChar: afii10043
Encoding: 1065 1065 224
Width: 844
GlyphClass: 2
Flags: W
LayerCount: 2
Fore
SplineSet
94 697 m 1,0,-1
 89 70 l 1,1,-1
 313 69 l 1,2,-1
 313 697 l 1,3,-1
 367 691 l 1,4,-1
 392 69 l 1,5,-1
 609 68 l 1,6,-1
 643 691 l 1,7,-1
 705 689 l 1,8,-1
 685 67 l 1,9,-1
 823 67 l 1,10,-1
 823 -202 l 1,11,-1
 755 -203 l 1,12,-1
 767 3 l 1,13,-1
 65 -3 l 1,14,-1
 20 -3 l 1,15,-1
 20 697 l 1,16,-1
 94 697 l 1,0,-1
EndSplineSet
Validated: 1
EndChar

StartChar: afii10044
Encoding: 1066 1066 225
Width: 676
GlyphClass: 2
Flags: W
LayerCount: 2
Fore
SplineSet
634 174 m 0,0,1
 630 124 630 124 602 90 c 128,-1,2
 574 56 574 56 531.5 37 c 128,-1,3
 489 18 489 18 436.5 10.5 c 128,-1,4
 384 3 384 3 331.5 1.5 c 128,-1,5
 279 0 279 0 232.5 2.5 c 128,-1,6
 186 5 186 5 156 6 c 1,7,-1
 173 646 l 1,8,-1
 70 643 l 1,9,-1
 83 433 l 1,10,-1
 14 437 l 1,11,-1
 15 700 l 1,12,-1
 240 700 l 1,13,-1
 241 417 l 1,14,15
 261 417 261 417 298.5 415.5 c 128,-1,16
 336 414 336 414 379.5 406 c 128,-1,17
 423 398 423 398 468.5 383 c 128,-1,18
 514 368 514 368 551 341 c 128,-1,19
 588 314 588 314 613 273.5 c 128,-1,20
 638 233 638 233 634 174 c 0,0,1
233 69 m 1,21,22
 329 57 329 57 406 66 c 0,23,24
 439 70 439 70 461.5 78.5 c 128,-1,25
 484 87 484 87 503 102.5 c 128,-1,26
 522 118 522 118 535.5 141.5 c 128,-1,27
 549 165 549 165 549 199 c 0,28,29
 549 231 549 231 535 254.5 c 128,-1,30
 521 278 521 278 503 294.5 c 128,-1,31
 485 311 485 311 462.5 321.5 c 128,-1,32
 440 332 440 332 409 338 c 0,33,34
 335 353 335 353 241 350 c 1,35,-1
 233 69 l 1,21,22
EndSplineSet
Validated: 33
EndChar

StartChar: afii10045
Encoding: 1067 1067 226
Width: 668
GlyphClass: 2
Flags: W
LayerCount: 2
Fore
SplineSet
486 174 m 0,0,1
 490 233 490 233 465 273.5 c 128,-1,2
 440 314 440 314 403 341 c 128,-1,3
 366 368 366 368 320.5 383 c 128,-1,4
 275 398 275 398 231.5 406 c 128,-1,5
 188 414 188 414 150.5 415.5 c 128,-1,6
 113 417 113 417 93 417 c 1,7,-1
 92 700 l 1,8,-1
 27 700 l 1,9,-1
 8 6 l 1,10,11
 38 5 38 5 84.5 2.5 c 128,-1,12
 131 0 131 0 183.5 1.5 c 128,-1,13
 236 3 236 3 288.5 10.5 c 128,-1,14
 341 18 341 18 383.5 37 c 128,-1,15
 426 56 426 56 454 90 c 128,-1,16
 482 124 482 124 486 174 c 0,0,1
93 350 m 1,17,18
 187 353 187 353 261 338 c 0,19,20
 292 332 292 332 314.5 321.5 c 128,-1,21
 337 311 337 311 355 294.5 c 128,-1,22
 373 278 373 278 387 254.5 c 128,-1,23
 401 231 401 231 401 199 c 0,24,25
 401 165 401 165 387.5 141.5 c 128,-1,26
 374 118 374 118 355 102.5 c 128,-1,27
 336 87 336 87 313.5 78.5 c 128,-1,28
 291 70 291 70 258 66 c 0,29,30
 181 57 181 57 85 69 c 1,31,-1
 93 350 l 1,17,18
542 703 m 1,32,-1
 623 702 l 1,33,-1
 586 2 l 1,34,-1
 521 3 l 1,35,-1
 542 703 l 1,32,-1
EndSplineSet
Validated: 41
EndChar

StartChar: afii10046
Encoding: 1068 1068 227
Width: 528
GlyphClass: 2
Flags: W
LayerCount: 2
Fore
SplineSet
85 69 m 1,0,1
 181 57 181 57 258 66 c 0,2,3
 291 70 291 70 313.5 78.5 c 128,-1,4
 336 87 336 87 355 102.5 c 128,-1,5
 374 118 374 118 387.5 141.5 c 128,-1,6
 401 165 401 165 401 199 c 0,7,8
 401 231 401 231 387 254.5 c 128,-1,9
 373 278 373 278 355 294.5 c 128,-1,10
 337 311 337 311 314.5 321.5 c 128,-1,11
 292 332 292 332 261 338 c 0,12,13
 187 353 187 353 93 350 c 1,14,-1
 85 69 l 1,0,1
486 174 m 0,15,16
 482 124 482 124 454 90 c 128,-1,17
 426 56 426 56 383.5 37 c 128,-1,18
 341 18 341 18 288.5 10.5 c 128,-1,19
 236 3 236 3 183.5 1.5 c 128,-1,20
 131 0 131 0 84.5 2.5 c 128,-1,21
 38 5 38 5 8 6 c 1,22,-1
 27 700 l 1,23,-1
 92 700 l 1,24,-1
 93 417 l 1,25,26
 113 417 113 417 150.5 415.5 c 128,-1,27
 188 414 188 414 231.5 406 c 128,-1,28
 275 398 275 398 320.5 383 c 128,-1,29
 366 368 366 368 403 341 c 128,-1,30
 440 314 440 314 465 273.5 c 128,-1,31
 490 233 490 233 486 174 c 0,15,16
EndSplineSet
Validated: 33
EndChar

StartChar: afii10047
Encoding: 1069 1069 228
Width: 629
GlyphClass: 2
Flags: W
LayerCount: 2
Fore
SplineSet
249 399 m 1,0,-1
 532 380 l 1,1,2
 530 389 530 389 528 398 c 0,3,4
 516 456 516 456 487 495 c 128,-1,5
 458 534 458 534 421 558.5 c 128,-1,6
 384 583 384 583 341 595 c 128,-1,7
 298 607 298 607 255 611 c 0,8,9
 155 620 155 620 36 593 c 1,10,-1
 36 681 l 1,11,12
 163 706 163 706 271 695 c 0,13,14
 318 690 318 690 366 677.5 c 128,-1,15
 414 665 414 665 456 640 c 128,-1,16
 498 615 498 615 531.5 576 c 128,-1,17
 565 537 565 537 584 479 c 1,18,19
 612 367 612 367 601 287 c 128,-1,20
 590 207 590 207 552.5 153 c 128,-1,21
 515 99 515 99 456 68 c 128,-1,22
 397 37 397 37 332.5 22 c 128,-1,23
 268 7 268 7 203 5.5 c 128,-1,24
 138 4 138 4 84 10 c 0,25,26
 83 11 83 11 84.5 20 c 128,-1,27
 86 29 86 29 88 40 c 2,28,-1
 94 68 l 1,29,30
 205 58 205 58 281.5 69.5 c 128,-1,31
 358 81 358 81 409 107 c 128,-1,32
 460 133 460 133 488 169 c 128,-1,33
 516 205 516 205 527 245 c 0,34,35
 538 281 538 281 537 318 c 1,36,-1
 251 313 l 1,37,-1
 249 399 l 1,0,-1
EndSplineSet
Validated: 33
EndChar

StartChar: afii10048
Encoding: 1070 1070 229
Width: 1094
GlyphClass: 2
Flags: W
LayerCount: 2
Fore
SplineSet
636 39 m 0,0,1
 692 38 692 38 751.5 55.5 c 128,-1,2
 811 73 811 73 854 110.5 c 128,-1,3
 897 148 897 148 929.5 216 c 128,-1,4
 962 284 962 284 959 384 c 0,5,6
 954 442 954 442 934 488 c 128,-1,7
 914 534 914 534 892.5 561.5 c 128,-1,8
 871 589 871 589 839.5 609.5 c 128,-1,9
 808 630 808 630 778 642 c 128,-1,10
 748 654 748 654 683 661 c 1,11,12
 617 664 617 664 553.5 646 c 128,-1,13
 490 628 490 628 439.5 579 c 128,-1,14
 389 530 389 530 363.5 457.5 c 128,-1,15
 338 385 338 385 340 309 c 0,16,17
 342 239 342 239 370 188 c 128,-1,18
 398 137 398 137 435.5 105 c 128,-1,19
 473 73 473 73 527 57 c 128,-1,20
 581 41 581 41 636 39 c 0,0,1
25 11 m 1,21,-1
 34 701 l 1,22,-1
 84 702 l 1,23,-1
 91 428 l 1,24,-1
 262 435 l 1,25,26
 268 458 268 458 277 479 c 0,27,28
 301 534 301 534 337 574 c 128,-1,29
 373 614 373 614 413.5 639.5 c 128,-1,30
 454 665 454 665 497.5 681 c 128,-1,31
 541 697 541 697 581.5 702.5 c 128,-1,32
 622 708 622 708 655 707 c 0,33,34
 687 707 687 707 726.5 701.5 c 128,-1,35
 766 696 766 696 808.5 681.5 c 128,-1,36
 851 667 851 667 889.5 642.5 c 128,-1,37
 928 618 928 618 963 579 c 128,-1,38
 998 540 998 540 1020.5 483.5 c 128,-1,39
 1043 427 1043 427 1044 352 c 0,40,41
 1041 249 1041 249 1002 181 c 128,-1,42
 963 113 963 113 904.5 70.5 c 128,-1,43
 846 28 846 28 775.5 9.5 c 128,-1,44
 705 -9 705 -9 640 -9 c 0,45,46
 605 -9 605 -9 561 -4 c 128,-1,47
 517 1 517 1 472 17 c 128,-1,48
 427 33 427 33 386.5 61 c 128,-1,49
 346 89 346 89 313 128.5 c 128,-1,50
 280 168 280 168 262 218.5 c 128,-1,51
 244 269 244 269 248 349 c 0,52,53
 248 353 248 353 249 355 c 1,54,-1
 97 361 l 1,55,-1
 109 1 l 1,56,-1
 26 4 l 1,57,-1
 25 11 l 1,21,-1
EndSplineSet
Validated: 33
EndChar

StartChar: afii10049
Encoding: 1071 1071 230
Width: 550
GlyphClass: 2
Flags: W
LayerCount: 2
Fore
SplineSet
431 650 m 1,0,1
 340 656 340 656 271 645 c 0,2,3
 241 640 241 640 212.5 631 c 128,-1,4
 184 622 184 622 161.5 607 c 128,-1,5
 139 592 139 592 124.5 570 c 128,-1,6
 110 548 110 548 110 517 c 0,7,8
 110 482 110 482 124 457.5 c 128,-1,9
 138 433 138 433 160.5 415.5 c 128,-1,10
 183 398 183 398 211.5 388 c 128,-1,11
 240 378 240 378 270 372 c 0,12,13
 339 359 339 359 431 366 c 1,14,-1
 431 650 l 1,0,1
489 6 m 1,15,-1
 422 4 l 1,16,-1
 429 298 l 1,17,-1
 204 2 l 1,18,-1
 137 49 l 1,19,-1
 365 305 l 1,20,21
 271 309 271 309 195 333 c 0,22,23
 164 343 164 343 133.5 358.5 c 128,-1,24
 103 374 103 374 78.5 396.5 c 128,-1,25
 54 419 54 419 38 449 c 128,-1,26
 22 479 22 479 22 518 c 0,27,28
 21 560 21 560 40.5 589.5 c 128,-1,29
 60 619 60 619 92.5 639.5 c 128,-1,30
 125 660 125 660 167 672 c 128,-1,31
 209 684 209 684 253.5 690 c 128,-1,32
 298 696 298 696 341.5 697.5 c 128,-1,33
 385 699 385 699 419.5 698 c 128,-1,34
 454 697 454 697 476 695.5 c 128,-1,35
 498 694 498 694 500 694 c 1,36,-1
 489 6 l 1,15,-1
EndSplineSet
Validated: 33
EndChar

StartChar: afii10065
Encoding: 1072 1072 231
Width: 637
GlyphClass: 2
Flags: W
LayerCount: 2
Fore
SplineSet
571 455 m 1,0,-1
 565 4 l 1,1,-1
 480 5 l 1,2,-1
 483 76 l 1,3,4
 446 42 446 42 397.5 25 c 128,-1,5
 349 8 349 8 294 7 c 0,6,7
 236 6 236 6 187 24.5 c 128,-1,8
 138 43 138 43 103 76.5 c 128,-1,9
 68 110 68 110 50.5 156 c 128,-1,10
 33 202 33 202 38 256 c 0,11,12
 43 309 43 309 67.5 349.5 c 128,-1,13
 92 390 92 390 129.5 417 c 128,-1,14
 167 444 167 444 215.5 458 c 128,-1,15
 264 472 264 472 318 472 c 0,16,17
 367 472 367 472 412.5 454.5 c 128,-1,18
 458 437 458 437 486 405 c 1,19,-1
 488 455 l 1,20,-1
 571 455 l 1,0,-1
279 53 m 0,21,22
 333 51 333 51 372 67.5 c 128,-1,23
 411 84 411 84 435.5 111 c 128,-1,24
 460 138 460 138 468.5 171.5 c 128,-1,25
 477 205 477 205 478 237 c 0,26,27
 479 271 479 271 472.5 304 c 128,-1,28
 466 337 466 337 444 363 c 128,-1,29
 422 389 422 389 387.5 405.5 c 128,-1,30
 353 422 353 422 307 423 c 0,31,32
 279 424 279 424 246.5 414.5 c 128,-1,33
 214 405 214 405 186 384 c 128,-1,34
 158 363 158 363 138.5 330.5 c 128,-1,35
 119 298 119 298 117 251 c 0,36,37
 116 230 116 230 118.5 207.5 c 128,-1,38
 121 185 121 185 129 163.5 c 128,-1,39
 137 142 137 142 149 122.5 c 128,-1,40
 161 103 161 103 179.5 88 c 128,-1,41
 198 73 198 73 222.5 63.5 c 128,-1,42
 247 54 247 54 279 53 c 0,21,22
EndSplineSet
Validated: 33
EndChar

StartChar: afii10066
Encoding: 1073 1073 232
Width: 575
GlyphClass: 2
Flags: W
LayerCount: 2
Fore
SplineSet
28 13 m 1,0,-1
 36 482 l 1,1,-1
 424 511 l 1,2,-1
 451 445 l 1,3,-1
 120 420 l 1,4,-1
 116 295 l 1,5,6
 153 321 153 321 201.5 334 c 128,-1,7
 250 347 250 347 266 348 c 0,8,9
 324 348 324 348 373 334 c 128,-1,10
 422 320 422 320 457 295.5 c 128,-1,11
 492 271 492 271 509.5 236 c 128,-1,12
 527 201 527 201 521 162 c 0,13,14
 517 122 517 122 492.5 91.5 c 128,-1,15
 468 61 468 61 430.5 41 c 128,-1,16
 393 21 393 21 344.5 10.5 c 128,-1,17
 296 0 296 0 281 0 c 0,18,19
 232 0 232 0 186.5 13 c 128,-1,20
 141 26 141 26 113 50 c 1,21,-1
 111 13 l 1,22,-1
 28 13 l 1,0,-1
281 296 m 0,23,24
 266 298 266 298 227 287.5 c 128,-1,25
 188 277 188 277 163.5 259.5 c 128,-1,26
 139 242 139 242 130.5 220.5 c 128,-1,27
 122 199 122 199 121 178 c 256,28,29
 120 157 120 157 126.5 135.5 c 128,-1,30
 133 114 133 114 155 97.5 c 128,-1,31
 177 81 177 81 211.5 70.5 c 128,-1,32
 246 60 246 60 253 59 c 0,33,34
 281 58 281 58 313.5 64 c 128,-1,35
 346 70 346 70 374 83.5 c 128,-1,36
 402 97 402 97 421.5 118 c 128,-1,37
 441 139 441 139 443 169 c 0,38,39
 444 183 444 183 441 197.5 c 128,-1,40
 438 212 438 212 430.5 225.5 c 128,-1,41
 423 239 423 239 411 251.5 c 128,-1,42
 399 264 399 264 380.5 274 c 128,-1,43
 362 284 362 284 337 289.5 c 128,-1,44
 312 295 312 295 281 296 c 0,23,24
EndSplineSet
Validated: 33
EndChar

StartChar: afii10067
Encoding: 1074 1074 233
Width: 521
GlyphClass: 2
Flags: W
LayerCount: 2
Fore
SplineSet
114 44 m 1,0,-1
 112 44 l 1,1,-1
 111 13 l 1,2,-1
 28 13 l 1,3,-1
 36 453 l 1,4,-1
 36 453 l 1,5,-1
 36 476 l 1,6,-1
 109 480 l 2,7,8
 166 482 166 482 198.5 482.5 c 128,-1,9
 231 483 231 483 263 479.5 c 128,-1,10
 295 476 295 476 337 458 c 0,11,12
 376 439 376 439 398.5 414.5 c 128,-1,13
 421 390 421 390 421 365 c 0,14,15
 418 315 418 315 408.5 307.5 c 128,-1,16
 399 300 399 300 426 285.5 c 128,-1,17
 453 271 453 271 470.5 236 c 128,-1,18
 488 201 488 201 482 162 c 0,19,20
 478 122 478 122 453.5 91.5 c 128,-1,21
 429 61 429 61 395 39.5 c 128,-1,22
 361 18 361 18 330.5 9.5 c 128,-1,23
 300 1 300 1 242 0 c 0,24,25
 232 0 232 0 186 13 c 0,26,27
 142 26 142 26 114 49 c 1,28,-1
 114 44 l 1,0,-1
110 306 m 2,29,30
 110 305 110 305 122.5 304.5 c 128,-1,31
 135 304 135 304 157 304.5 c 128,-1,32
 179 305 179 305 209.5 305.5 c 128,-1,33
 240 306 240 306 276 308 c 0,34,35
 298 308 298 308 312.5 310 c 128,-1,36
 327 312 327 312 336 317 c 128,-1,37
 345 322 345 322 348.5 330 c 128,-1,38
 352 338 352 338 351 350 c 0,39,40
 351 364 351 364 345 374 c 128,-1,41
 339 384 339 384 328.5 391.5 c 128,-1,42
 318 399 318 399 304.5 403.5 c 128,-1,43
 291 408 291 408 274 411 c 0,44,45
 247 416 247 416 226 417.5 c 128,-1,46
 205 419 205 419 186 418 c 128,-1,47
 167 417 167 417 148.5 415 c 128,-1,48
 130 413 130 413 109 410 c 1,49,-1
 110 306 l 2,29,30
223 62 m 0,50,51
 234 58 234 58 249.5 57.5 c 128,-1,52
 265 57 265 57 280.5 59.5 c 128,-1,53
 296 62 296 62 311 66 c 128,-1,54
 326 70 326 70 336 75 c 0,55,56
 351 82 351 82 363.5 92.5 c 128,-1,57
 376 103 376 103 386 115.5 c 128,-1,58
 396 128 396 128 401.5 142.5 c 128,-1,59
 407 157 407 157 407 172 c 0,60,61
 407 185 407 185 404 194.5 c 128,-1,62
 401 204 401 204 393 219 c 1,63,64
 378 231 378 231 362 237.5 c 128,-1,65
 346 244 346 244 328.5 247 c 128,-1,66
 311 250 311 250 293 250 c 256,67,68
 275 250 275 250 259 249 c 0,69,70
 249 249 249 249 234.5 248.5 c 128,-1,71
 220 248 220 248 204 247.5 c 128,-1,72
 188 247 188 247 172 246.5 c 128,-1,73
 156 246 156 246 143.5 245 c 128,-1,74
 131 244 131 244 123 243 c 128,-1,75
 115 242 115 242 115 240 c 2,76,-1
 115 110 l 1,77,78
 138 95 138 95 164 81.5 c 128,-1,79
 190 68 190 68 223 62 c 0,50,51
EndSplineSet
Validated: 37
EndChar

StartChar: afii10068
Encoding: 1075 1075 234
Width: 342
GlyphClass: 2
Flags: W
LayerCount: 2
Fore
SplineSet
85 407 m 1,0,-1
 95 5 l 1,1,-1
 16 2 l 1,2,-1
 16 472 l 1,3,-1
 303 463 l 1,4,-1
 303 406 l 1,5,-1
 85 407 l 1,0,-1
EndSplineSet
Validated: 1
EndChar

StartChar: afii10069
Encoding: 1076 1076 235
Width: 598
GlyphClass: 2
Flags: W
LayerCount: 2
Fore
SplineSet
255 65 m 0,0,1
 301 59 301 59 339 72.5 c 128,-1,2
 377 86 377 86 402 111.5 c 128,-1,3
 427 137 427 137 439 171 c 128,-1,4
 451 205 451 205 452 240 c 0,5,6
 453 279 453 279 446.5 314 c 128,-1,7
 440 349 440 349 419.5 375.5 c 128,-1,8
 399 402 399 402 365.5 419 c 128,-1,9
 332 436 332 436 285 437 c 0,10,11
 253 439 253 439 219 432 c 128,-1,12
 185 425 185 425 156 406 c 128,-1,13
 127 387 127 387 107 353.5 c 128,-1,14
 87 320 87 320 84 270 c 0,15,16
 81 236 81 236 89.5 202 c 128,-1,17
 98 168 98 168 119 139.5 c 128,-1,18
 140 111 140 111 173.5 91 c 128,-1,19
 207 71 207 71 255 65 c 0,0,1
306 497 m 0,20,21
 334 494 334 494 356.5 487.5 c 128,-1,22
 379 481 379 481 397 473 c 128,-1,23
 415 465 415 465 428 458 c 128,-1,24
 441 451 441 451 449 446 c 1,25,-1
 448 476 l 1,26,-1
 551 476 l 1,27,28
 548 337 548 337 545 231.5 c 128,-1,29
 542 126 542 126 535 48 c 128,-1,30
 528 -30 528 -30 517 -83 c 128,-1,31
 506 -136 506 -136 480.5 -169 c 128,-1,32
 455 -202 455 -202 418.5 -217.5 c 128,-1,33
 382 -233 382 -233 339 -236 c 0,34,35
 302 -238 302 -238 264 -223 c 128,-1,36
 226 -208 226 -208 196 -172 c 1,37,-1
 241 -125 l 1,38,39
 253 -140 253 -140 263.5 -149.5 c 128,-1,40
 274 -159 274 -159 284 -166 c 128,-1,41
 294 -173 294 -173 305 -176.5 c 128,-1,42
 316 -180 316 -180 330 -182 c 0,43,44
 355 -185 355 -185 373.5 -174.5 c 128,-1,45
 392 -164 392 -164 404.5 -144 c 128,-1,46
 417 -124 417 -124 424.5 -98 c 128,-1,47
 432 -72 432 -72 436 -44.5 c 128,-1,48
 440 -17 440 -17 441.5 9.5 c 128,-1,49
 443 36 443 36 444 57 c 1,50,51
 428 43 428 43 408 33.5 c 128,-1,52
 388 24 388 24 366 18.5 c 128,-1,53
 344 13 344 13 319.5 11 c 128,-1,54
 295 9 295 9 269 8 c 0,55,56
 229 8 229 8 192.5 17 c 128,-1,57
 156 26 156 26 125.5 43.5 c 128,-1,58
 95 61 95 61 70.5 85 c 128,-1,59
 46 109 46 109 31 139 c 128,-1,60
 16 169 16 169 9 203.5 c 128,-1,61
 2 238 2 238 7 275 c 0,62,63
 14 331 14 331 40.5 374.5 c 128,-1,64
 67 418 67 418 107.5 447.5 c 128,-1,65
 148 477 148 477 199 490 c 128,-1,66
 250 503 250 503 306 497 c 0,20,21
EndSplineSet
Validated: 33
EndChar

StartChar: afii10070
Encoding: 1077 1077 236
Width: 598
GlyphClass: 2
Flags: W
LayerCount: 2
Fore
SplineSet
558 221 m 1,0,1
 564 220 564 220 547.5 220 c 128,-1,2
 531 220 531 220 500.5 220 c 128,-1,3
 470 220 470 220 429 220 c 128,-1,4
 388 220 388 220 344 220 c 128,-1,5
 300 220 300 220 257.5 220 c 128,-1,6
 215 220 215 220 181 220 c 128,-1,7
 147 220 147 220 125.5 220 c 128,-1,8
 104 220 104 220 102 219 c 0,9,10
 107 189 107 189 121 164.5 c 128,-1,11
 135 140 135 140 154.5 122 c 128,-1,12
 174 104 174 104 197.5 91.5 c 128,-1,13
 221 79 221 79 243 74 c 0,14,15
 257 71 257 71 276.5 69.5 c 128,-1,16
 296 68 296 68 322.5 69.5 c 128,-1,17
 349 71 349 71 381.5 78 c 128,-1,18
 414 85 414 85 453 100 c 1,19,-1
 468 20 l 1,20,21
 439 6 439 6 402 -1 c 128,-1,22
 365 -8 365 -8 327.5 -8.5 c 128,-1,23
 290 -9 290 -9 256.5 -4 c 128,-1,24
 223 1 223 1 201 12 c 0,25,26
 174 24 174 24 148 39.5 c 128,-1,27
 122 55 122 55 100 77.5 c 128,-1,28
 78 100 78 100 61.5 130 c 128,-1,29
 45 160 45 160 38 199 c 0,30,31
 30 247 30 247 37 287 c 128,-1,32
 44 327 44 327 62 360 c 128,-1,33
 80 393 80 393 107 418 c 128,-1,34
 134 443 134 443 166.5 459.5 c 128,-1,35
 199 476 199 476 234.5 483.5 c 128,-1,36
 270 491 270 491 304 491 c 0,37,38
 366 489 366 489 414.5 468.5 c 128,-1,39
 463 448 463 448 495.5 412.5 c 128,-1,40
 528 377 528 377 544 328.5 c 128,-1,41
 560 280 560 280 558 221 c 1,0,1
472 269 m 1,42,43
 464 306 464 306 452.5 334 c 128,-1,44
 441 362 441 362 417 382 c 128,-1,45
 393 402 393 402 365.5 414.5 c 128,-1,46
 338 427 338 427 308 431 c 0,47,48
 271 437 271 437 235 428 c 128,-1,49
 199 419 199 419 170.5 398.5 c 128,-1,50
 142 378 142 378 124.5 347.5 c 128,-1,51
 107 317 107 317 106 281 c 1,52,-1
 472 269 l 1,42,43
EndSplineSet
Validated: 33
EndChar

StartChar: afii10072
Encoding: 1078 1078 237
Width: 902
GlyphClass: 2
Flags: W
LayerCount: 2
Fore
SplineSet
401 501 m 1,0,-1
 467 503 l 1,1,-1
 467 320 l 1,2,-1
 754 509 l 1,3,-1
 798 450 l 1,4,-1
 515 283 l 1,5,-1
 840 83 l 1,6,-1
 786 15 l 1,7,-1
 477 243 l 1,8,-1
 488 3 l 1,9,-1
 419 0 l 1,10,-1
 410 244 l 1,11,-1
 98 15 l 1,12,-1
 44 83 l 1,13,-1
 369 283 l 1,14,-1
 86 450 l 1,15,-1
 130 510 l 1,16,-1
 407 327 l 1,17,-1
 401 501 l 1,0,-1
EndSplineSet
Validated: 1
EndChar

StartChar: afii10073
Encoding: 1079 1079 238
Width: 435
GlyphClass: 2
Flags: W
LayerCount: 2
Fore
SplineSet
69 126 m 1,0,1
 112 76 112 76 168.5 56 c 128,-1,2
 225 36 225 36 242 69 c 128,-1,3
 259 102 259 102 218 134 c 128,-1,4
 177 166 177 166 163 172 c 1,5,-1
 159 202 l 1,6,7
 172 204 172 204 183 211 c 128,-1,8
 194 218 194 218 206 225 c 0,9,10
 265 268 265 268 295.5 302.5 c 128,-1,11
 326 337 326 337 311 381 c 1,12,13
 292 418 292 418 250 429.5 c 128,-1,14
 208 441 208 441 158 425.5 c 128,-1,15
 108 410 108 410 52 351 c 1,16,-1
 7 430 l 2,17,18
 7 431 7 431 52.5 460 c 128,-1,19
 98 489 98 489 170 500 c 128,-1,20
 242 511 242 511 293.5 487.5 c 128,-1,21
 345 464 345 464 369 424 c 1,22,23
 389 381 389 381 383.5 345 c 128,-1,24
 378 309 378 309 354 279 c 0,25,26
 332 251 332 251 242 186 c 1,27,28
 261 169 261 169 281 146 c 0,29,30
 312 111 312 111 308.5 68.5 c 128,-1,31
 305 26 305 26 252 0 c 1,32,33
 210 -14 210 -14 171.5 -8 c 128,-1,34
 133 -2 133 -2 106.5 12 c 128,-1,35
 80 26 80 26 26 66 c 1,36,-1
 69 126 l 1,0,1
EndSplineSet
Validated: 33
EndChar

StartChar: afii10074
Encoding: 1080 1080 239
Width: 568
GlyphClass: 2
Flags: W
LayerCount: 2
Fore
SplineSet
115 473 m 1,0,1
 114 450 114 450 111.5 419 c 128,-1,2
 109 388 109 388 106.5 353 c 128,-1,3
 104 318 104 318 104 281 c 128,-1,4
 104 244 104 244 108 209.5 c 128,-1,5
 112 175 112 175 121.5 144 c 128,-1,6
 131 113 131 113 148.5 90 c 128,-1,7
 166 67 166 67 192.5 54 c 128,-1,8
 219 41 219 41 258 42 c 0,9,10
 295 42 295 42 326 55.5 c 128,-1,11
 357 69 357 69 380 94 c 128,-1,12
 403 119 403 119 416.5 155.5 c 128,-1,13
 430 192 430 192 432 240 c 2,14,-1
 435 467 l 1,15,-1
 513 465 l 1,16,-1
 506 8 l 1,17,-1
 433 10 l 1,18,-1
 433 62 l 1,19,20
 400 34 400 34 364 16 c 128,-1,21
 328 -2 328 -2 287 -4 c 0,22,23
 224 -7 224 -7 179.5 4 c 128,-1,24
 135 15 135 15 106 40 c 128,-1,25
 77 65 77 65 61.5 105 c 128,-1,26
 46 145 46 145 38.5 199 c 128,-1,27
 31 253 31 253 31 322 c 128,-1,28
 31 391 31 391 32 476 c 1,29,-1
 115 473 l 1,0,1
EndSplineSet
Validated: 33
EndChar

StartChar: afii10075
Encoding: 1081 1081 240
Width: 555
GlyphClass: 2
Flags: W
LayerCount: 2
Fore
SplineSet
388 637.5 m 5,0,1
 369 607.5 369 607.5 348 581.5 c 4,2,3
 330 560.5 330 560.5 305 543 c 132,-1,4
 280 525.5 280 525.5 248 525.5 c 4,5,6
 208 525.5 208 525.5 183.5 543 c 132,-1,7
 159 560.5 159 560.5 145 581.5 c 4,8,9
 128 607.5 128 607.5 119 637.5 c 5,10,-1
 156 642.5 l 5,11,12
 163 621.5 163 621.5 175 602.5 c 4,13,14
 187 586.5 187 586.5 202 571 c 132,-1,15
 217 555.5 217 555.5 243 551.5 c 4,16,17
 266 546.5 266 546.5 286 561.5 c 132,-1,18
 306 576.5 306 576.5 318 595.5 c 4,19,20
 332 616.5 332 616.5 344 644.5 c 5,21,-1
 388 637.5 l 5,22,-1
 388 637.5 l 5,0,1
102 473 m 1,23,24
 101 450 101 450 98.5 419 c 128,-1,25
 96 388 96 388 93.5 353 c 128,-1,26
 91 318 91 318 91 281 c 128,-1,27
 91 244 91 244 95 209.5 c 128,-1,28
 99 175 99 175 108.5 144 c 128,-1,29
 118 113 118 113 135.5 90 c 128,-1,30
 153 67 153 67 179.5 54 c 128,-1,31
 206 41 206 41 245 42 c 0,32,33
 282 42 282 42 313 55.5 c 128,-1,34
 344 69 344 69 367 94 c 128,-1,35
 390 119 390 119 403.5 155.5 c 128,-1,36
 417 192 417 192 419 240 c 2,37,-1
 422 467 l 1,38,-1
 500 465 l 1,39,-1
 493 8 l 1,40,-1
 420 10 l 1,41,-1
 420 62 l 1,42,43
 387 34 387 34 351 16 c 128,-1,44
 315 -2 315 -2 274 -4 c 0,45,46
 211 -7 211 -7 166.5 4 c 128,-1,47
 122 15 122 15 93 40 c 128,-1,48
 64 65 64 65 48.5 105 c 128,-1,49
 33 145 33 145 25.5 199 c 128,-1,50
 18 253 18 253 18 322 c 128,-1,51
 18 391 18 391 19 476 c 1,52,-1
 102 473 l 1,23,24
EndSplineSet
EndChar

StartChar: afii10076
Encoding: 1082 1082 241
Width: 531
GlyphClass: 2
Flags: W
LayerCount: 2
Fore
SplineSet
58 501 m 1,0,-1
 124 504 l 1,1,-1
 124 321 l 1,2,-1
 411 510 l 1,3,-1
 455 450 l 1,4,-1
 172 283 l 1,5,-1
 497 83 l 1,6,-1
 443 15 l 1,7,-1
 134 243 l 1,8,-1
 145 4 l 1,9,-1
 76 1 l 1,10,-1
 58 501 l 1,0,-1
EndSplineSet
Validated: 1
EndChar

StartChar: afii10077
Encoding: 1083 1083 242
Width: 562
GlyphClass: 2
Flags: W
LayerCount: 2
Fore
SplineSet
248 485 m 1,0,-1
 281 488 l 1,1,-1
 525 34 l 1,2,-1
 448 -3 l 1,3,-1
 257 379 l 1,4,-1
 62 -1 l 1,5,-1
 1 28 l 1,6,-1
 248 485 l 1,0,-1
EndSplineSet
Validated: 1
EndChar

StartChar: afii10078
Encoding: 1084 1084 243
Width: 820
GlyphClass: 2
Flags: W
LayerCount: 2
Fore
SplineSet
758 23 m 1,0,-1
 684 3 l 1,1,-1
 574 319 l 1,2,-1
 427 0 l 1,3,-1
 393 1 l 1,4,-1
 233 381 l 1,5,-1
 79 12 l 1,6,-1
 1 45 l 1,7,-1
 203 496 l 1,8,-1
 245 490 l 1,9,-1
 407 114 l 1,10,-1
 570 447 l 1,11,-1
 606 449 l 1,12,-1
 758 23 l 1,0,-1
EndSplineSet
Validated: 1
EndChar

StartChar: afii10079
Encoding: 1085 1085 244
Width: 603
GlyphClass: 2
Flags: W
LayerCount: 2
Fore
SplineSet
531 469 m 1,0,-1
 522 4 l 1,1,-1
 439 5 l 1,2,-1
 447 216 l 1,3,-1
 122 205 l 1,4,-1
 125 70 l 1,5,-1
 129 1 l 1,6,-1
 51 0 l 1,7,-1
 38 475 l 1,8,-1
 111 476 l 1,9,-1
 113 410 l 1,10,-1
 119 276 l 1,11,-1
 449 283 l 1,12,-1
 456 468 l 1,13,-1
 531 469 l 1,0,-1
EndSplineSet
Validated: 1
EndChar

StartChar: afii10080
Encoding: 1086 1086 245
Width: 608
GlyphClass: 2
Flags: W
LayerCount: 2
Fore
SplineSet
558 241 m 0,0,1
 555 180 555 180 531.5 132.5 c 128,-1,2
 508 85 508 85 469 53 c 128,-1,3
 430 21 430 21 382 3.5 c 128,-1,4
 334 -14 334 -14 292 -14 c 0,5,6
 242 -15 242 -15 189 4.5 c 128,-1,7
 136 24 136 24 97.5 58 c 128,-1,8
 59 92 59 92 39 140 c 128,-1,9
 19 188 19 188 24 243 c 0,10,11
 30 298 30 298 54.5 341.5 c 128,-1,12
 79 385 79 385 118 414.5 c 128,-1,13
 157 444 157 444 208 461.5 c 128,-1,14
 259 479 259 479 307 478 c 0,15,16
 346 478 346 478 394.5 460 c 128,-1,17
 443 442 443 442 480 410.5 c 128,-1,18
 517 379 517 379 539 336 c 128,-1,19
 561 293 561 293 558 241 c 0,0,1
282 34 m 0,20,21
 309 33 309 33 333.5 41 c 128,-1,22
 358 49 358 49 382 63.5 c 128,-1,23
 406 78 406 78 423.5 98 c 128,-1,24
 441 118 441 118 452 140.5 c 128,-1,25
 463 163 463 163 467 186.5 c 128,-1,26
 471 210 471 210 472 233 c 0,27,28
 474 268 474 268 464 301.5 c 128,-1,29
 454 335 454 335 431.5 361.5 c 128,-1,30
 409 388 409 388 373.5 405.5 c 128,-1,31
 338 423 338 423 302 424 c 0,32,33
 278 426 278 426 243 415.5 c 128,-1,34
 208 405 208 405 178 382.5 c 128,-1,35
 148 360 148 360 127.5 324.5 c 128,-1,36
 107 289 107 289 106 240 c 0,37,38
 104 207 104 207 113.5 171.5 c 128,-1,39
 123 136 123 136 144.5 106 c 128,-1,40
 166 76 166 76 200 56 c 128,-1,41
 234 36 234 36 282 34 c 0,20,21
EndSplineSet
Validated: 33
EndChar

StartChar: afii10081
Encoding: 1087 1087 246
Width: 603
GlyphClass: 2
Flags: W
LayerCount: 2
Fore
SplineSet
531 469 m 1,0,-1
 522 4 l 1,1,-1
 439 5 l 1,2,-1
 448 405 l 1,3,-1
 122 400 l 1,4,-1
 125 70 l 1,5,-1
 129 1 l 1,6,-1
 51 0 l 1,7,-1
 38 475 l 1,8,-1
 531 469 l 1,0,-1
EndSplineSet
Validated: 1
EndChar

StartChar: afii10082
Encoding: 1088 1088 247
Width: 585
GlyphClass: 2
Flags: W
LayerCount: 2
Fore
SplineSet
94 466 m 1,0,-1
 96 416 l 1,1,2
 129 448 129 448 172 463.5 c 128,-1,3
 215 479 215 479 264 481 c 0,4,5
 316 484 316 484 362 472.5 c 128,-1,6
 408 461 408 461 444 435 c 128,-1,7
 480 409 480 409 504 368 c 128,-1,8
 528 327 528 327 535 271 c 0,9,10
 540 216 540 216 523.5 168 c 128,-1,11
 507 120 507 120 476.5 81 c 128,-1,12
 446 42 446 42 396.5 17.5 c 128,-1,13
 347 -7 347 -7 290 -5 c 0,14,15
 264 -4 264 -4 238.5 0.5 c 128,-1,16
 213 5 213 5 188.5 14.5 c 128,-1,17
 164 24 164 24 141.5 37 c 128,-1,18
 119 50 119 50 99 64 c 1,19,-1
 100 -208 l 1,20,-1
 33 -209 l 1,21,-1
 28 466 l 1,22,-1
 94 466 l 1,0,-1
102 246 m 0,23,24
 102 209 102 209 113 173.5 c 128,-1,25
 124 138 124 138 148 111 c 128,-1,26
 172 84 172 84 211 69 c 128,-1,27
 250 54 250 54 304 60 c 0,28,29
 336 63 336 63 360 73.5 c 128,-1,30
 384 84 384 84 402 99 c 128,-1,31
 420 114 420 114 432.5 133 c 128,-1,32
 445 152 445 152 453 173 c 128,-1,33
 461 194 461 194 463.5 216 c 128,-1,34
 466 238 466 238 465 259 c 0,35,36
 463 306 463 306 444 339.5 c 128,-1,37
 425 373 425 373 397 394 c 128,-1,38
 369 415 369 415 337 424.5 c 128,-1,39
 305 434 305 434 277 434 c 0,40,41
 232 433 232 433 198.5 416 c 128,-1,42
 165 399 165 399 143 373 c 128,-1,43
 121 347 121 347 110.5 313.5 c 128,-1,44
 100 280 100 280 102 246 c 0,23,24
EndSplineSet
Validated: 33
EndChar

StartChar: afii10083
Encoding: 1089 1089 248
Width: 471
GlyphClass: 2
Flags: W
LayerCount: 2
Fore
SplineSet
452 467 m 1,0,-1
 451 385 l 1,1,2
 364 422 364 422 271 417 c 0,3,4
 242 414 242 414 214 406 c 128,-1,5
 186 398 186 398 161.5 382.5 c 128,-1,6
 137 367 137 367 114 340.5 c 128,-1,7
 91 314 91 314 82 276 c 0,8,9
 75 241 75 241 78 221 c 128,-1,10
 81 201 81 201 88.5 174.5 c 128,-1,11
 96 148 96 148 122.5 119 c 128,-1,12
 149 90 149 90 186 70 c 128,-1,13
 223 50 223 50 272.5 49.5 c 128,-1,14
 322 49 322 49 399 74 c 1,15,16
 402 13 402 13 402 11 c 0,17,18
 363 -4 363 -4 313.5 -7 c 128,-1,19
 264 -10 264 -10 217.5 0 c 128,-1,20
 171 10 171 10 128 33.5 c 128,-1,21
 85 57 85 57 55.5 99 c 128,-1,22
 26 141 26 141 14.5 199 c 128,-1,23
 3 257 3 257 30 338 c 1,24,25
 49 380 49 380 73.5 408.5 c 128,-1,26
 98 437 98 437 128.5 455 c 128,-1,27
 159 473 159 473 193 481.5 c 128,-1,28
 227 490 227 490 261 494 c 0,29,30
 366 501 366 501 452 467 c 1,0,-1
EndSplineSet
Validated: 33
EndChar

StartChar: afii10084
Encoding: 1090 1090 249
Width: 438
GlyphClass: 2
Flags: W
LayerCount: 2
Fore
SplineSet
241 407 m 1,0,-1
 250 5 l 1,1,-1
 171 2 l 1,2,-1
 169 402 l 1,3,-1
 24 403 l 1,4,-1
 25 472 l 1,5,-1
 410 463 l 1,6,-1
 410 406 l 1,7,-1
 241 407 l 1,0,-1
EndSplineSet
Validated: 1
EndChar

StartChar: afii10085
Encoding: 1091 1091 250
Width: 549
GlyphClass: 2
Flags: W
LayerCount: 2
Fore
SplineSet
318 -36 m 1,0,1
 292 -98 292 -98 266.5 -137 c 128,-1,2
 241 -176 241 -176 214 -196.5 c 128,-1,3
 187 -217 187 -217 157.5 -221.5 c 128,-1,4
 128 -226 128 -226 92 -217 c 0,5,6
 81 -215 81 -215 68 -208 c 128,-1,7
 55 -201 55 -201 41.5 -189 c 128,-1,8
 28 -177 28 -177 16.5 -160.5 c 128,-1,9
 5 -144 5 -144 -2 -122 c 1,10,-1
 56 -94 l 1,11,12
 62 -111 62 -111 68 -122 c 128,-1,13
 74 -133 74 -133 79 -139.5 c 128,-1,14
 84 -146 84 -146 90 -150.5 c 128,-1,15
 96 -155 96 -155 104 -159 c 0,16,17
 123 -171 123 -171 142 -167 c 128,-1,18
 161 -163 161 -163 178 -147 c 128,-1,19
 195 -131 195 -131 210.5 -107 c 128,-1,20
 226 -83 226 -83 238 -55.5 c 128,-1,21
 250 -28 250 -28 259.5 -0.5 c 128,-1,22
 269 27 269 27 274 49 c 1,23,-1
 0 418 l 1,24,-1
 59 454 l 1,25,-1
 300 116 l 1,26,-1
 411 481 l 1,27,-1
 488 459 l 1,28,-1
 318 -36 l 1,0,1
EndSplineSet
Validated: 33
EndChar

StartChar: afii10086
Encoding: 1092 1092 251
Width: 999
GlyphClass: 2
Flags: W
LayerCount: 2
Fore
SplineSet
476 246 m 0,0,1
 478 280 478 280 467.5 313.5 c 128,-1,2
 457 347 457 347 435 373 c 128,-1,3
 413 399 413 399 379.5 416 c 128,-1,4
 346 433 346 433 301 434 c 0,5,6
 273 434 273 434 241 424.5 c 128,-1,7
 209 415 209 415 181 394 c 128,-1,8
 153 373 153 373 134 339.5 c 128,-1,9
 115 306 115 306 113 259 c 0,10,11
 112 238 112 238 114.5 216 c 128,-1,12
 117 194 117 194 125 173 c 128,-1,13
 133 152 133 152 145.5 133 c 128,-1,14
 158 114 158 114 176 99 c 128,-1,15
 194 84 194 84 218 73.5 c 128,-1,16
 242 63 242 63 274 60 c 0,17,18
 328 54 328 54 367 69 c 128,-1,19
 406 84 406 84 430 111 c 128,-1,20
 454 138 454 138 465 173.5 c 128,-1,21
 476 209 476 209 476 246 c 0,0,1
546 246 m 0,22,23
 546 209 546 209 557 173.5 c 128,-1,24
 568 138 568 138 592 111 c 128,-1,25
 616 84 616 84 655 69 c 128,-1,26
 694 54 694 54 748 60 c 0,27,28
 780 63 780 63 804 73.5 c 128,-1,29
 828 84 828 84 846 99 c 128,-1,30
 864 114 864 114 876.5 133 c 128,-1,31
 889 152 889 152 897 173 c 128,-1,32
 905 194 905 194 907.5 216 c 128,-1,33
 910 238 910 238 909 259 c 0,34,35
 907 306 907 306 888 339.5 c 128,-1,36
 869 373 869 373 841 394 c 128,-1,37
 813 415 813 415 781 424.5 c 128,-1,38
 749 434 749 434 721 434 c 0,39,40
 676 433 676 433 642.5 416 c 128,-1,41
 609 399 609 399 587 373 c 128,-1,42
 565 347 565 347 554.5 313.5 c 128,-1,43
 544 280 544 280 546 246 c 0,22,23
538 466 m 1,44,-1
 540 416 l 1,45,46
 573 448 573 448 616 463.5 c 128,-1,47
 659 479 659 479 708 481 c 0,48,49
 760 484 760 484 806 472.5 c 128,-1,50
 852 461 852 461 888 435 c 128,-1,51
 924 409 924 409 948 368 c 128,-1,52
 972 327 972 327 979 271 c 0,53,54
 984 216 984 216 967.5 168 c 128,-1,55
 951 120 951 120 920.5 81 c 128,-1,56
 890 42 890 42 840.5 17.5 c 128,-1,57
 791 -7 791 -7 734 -5 c 0,58,59
 708 -4 708 -4 682.5 0.5 c 128,-1,60
 657 5 657 5 632.5 14.5 c 128,-1,61
 608 24 608 24 585.5 37 c 128,-1,62
 563 50 563 50 543 64 c 1,63,-1
 544 -208 l 1,64,-1
 477 -209 l 1,65,-1
 475 62 l 1,66,67
 454 47 454 47 436 37 c 0,68,69
 414 24 414 24 389.5 14.5 c 128,-1,70
 365 5 365 5 339.5 0.5 c 128,-1,71
 314 -4 314 -4 288 -5 c 0,72,73
 231 -7 231 -7 181.5 17.5 c 128,-1,74
 132 42 132 42 101.5 81 c 128,-1,75
 71 120 71 120 54.5 168 c 128,-1,76
 38 216 38 216 43 271 c 0,77,78
 50 327 50 327 74 368 c 128,-1,79
 98 409 98 409 134 435 c 128,-1,80
 170 461 170 461 216 472.5 c 128,-1,81
 262 484 262 484 314 481 c 0,82,83
 363 479 363 479 406 463 c 0,84,85
 440 452 440 452 472 429 c 1,86,-1
 472 466 l 1,87,-1
 538 466 l 1,44,-1
EndSplineSet
Validated: 33
EndChar

StartChar: afii10087
Encoding: 1093 1093 252
Width: 527
GlyphClass: 2
Flags: W
LayerCount: 2
Fore
SplineSet
413 19 m 1,0,-1
 233 208 l 1,1,-1
 60 1 l 1,2,-1
 0 49 l 1,3,-1
 185 259 l 1,4,-1
 -6 456 l 1,5,-1
 44 505 l 1,6,-1
 229 312 l 1,7,-1
 381 492 l 1,8,-1
 431 448 l 1,9,-1
 272 266 l 1,10,-1
 463 74 l 1,11,-1
 413 19 l 1,0,-1
EndSplineSet
Validated: 1
EndChar

StartChar: afii10088
Encoding: 1094 1094 253
Width: 622
GlyphClass: 2
Flags: W
LayerCount: 2
Fore
SplineSet
598 12 m 1,0,-1
 603 -102 l 1,1,-1
 524 -104 l 1,2,-1
 526 7 l 1,3,-1
 480 8 l 1,4,-1
 480 6 l 1,5,-1
 41 0 l 1,6,-1
 53 475 l 1,7,-1
 131 474 l 1,8,-1
 127 390 l 1,9,-1
 124 74 l 1,10,-1
 397 70 l 1,11,-1
 388 470 l 1,12,-1
 471 471 l 1,13,-1
 479 71 l 1,14,-1
 594 66 l 1,15,-1
 598 12 l 1,0,-1
EndSplineSet
Validated: 1
EndChar

StartChar: afii10089
Encoding: 1095 1095 254
Width: 616
GlyphClass: 2
Flags: W
LayerCount: 2
Fore
SplineSet
550 476 m 1,0,-1
 543 3 l 1,1,-1
 458 4 l 1,2,-1
 463 172 l 1,3,4
 425 146 425 146 377 133.5 c 128,-1,5
 329 121 329 121 295.5 116.5 c 128,-1,6
 262 112 262 112 205 133 c 1,7,-1
 206 133 l 1,8,9
 206 133 206 133 205 133 c 0,10,11
 156 147 156 147 121.5 172 c 128,-1,12
 87 197 87 197 69 232 c 128,-1,13
 51 267 51 267 57 307 c 0,14,15
 62 346 62 346 61 476 c 1,16,-1
 149 474 l 1,17,-1
 136 324 l 2,18,19
 130 293 130 293 137 266 c 128,-1,20
 144 239 144 239 168 215 c 0,21,22
 228 162 228 162 318 176 c 1,23,24
 400 196 400 196 462 235 c 1,25,-1
 465 418 l 1,26,-1
 467 476 l 1,27,-1
 550 476 l 1,0,-1
EndSplineSet
Validated: 37
EndChar

StartChar: afii10090
Encoding: 1096 1096 255
Width: 668
GlyphClass: 2
Flags: W
LayerCount: 2
Fore
SplineSet
38 0 m 1,0,-1
 51 479 l 1,1,-1
 129 479 l 1,2,-1
 125 390 l 1,3,-1
 122 74 l 1,4,-1
 292 72 l 1,5,-1
 290 474 l 1,6,-1
 361 476 l 1,7,-1
 368 71 l 1,8,-1
 536 70 l 1,9,-1
 527 475 l 1,10,-1
 610 476 l 1,11,-1
 619 6 l 1,12,-1
 38 0 l 1,0,-1
EndSplineSet
Validated: 1
EndChar

StartChar: afii10091
Encoding: 1097 1097 256
Width: 761
GlyphClass: 2
Flags: W
LayerCount: 2
Fore
SplineSet
737 12 m 1,0,-1
 742 -102 l 1,1,-1
 663 -104 l 1,2,-1
 665 7 l 1,3,-1
 619 8 l 1,4,-1
 619 6 l 1,5,-1
 38 0 l 1,6,-1
 51 479 l 1,7,-1
 129 479 l 1,8,-1
 125 390 l 1,9,-1
 122 74 l 1,10,-1
 292 72 l 1,11,-1
 290 474 l 1,12,-1
 361 476 l 1,13,-1
 368 71 l 1,14,-1
 536 70 l 1,15,-1
 527 475 l 1,16,-1
 610 476 l 1,17,-1
 618 71 l 1,18,-1
 733 66 l 1,19,-1
 737 12 l 1,0,-1
EndSplineSet
Validated: 1
EndChar

StartChar: afii10092
Encoding: 1098 1098 257
Width: 646
GlyphClass: 2
Flags: W
LayerCount: 2
Fore
SplineSet
364 334 m 0,0,1
 349 336 349 336 310 323.5 c 128,-1,2
 271 311 271 311 246.5 290.5 c 128,-1,3
 222 270 222 270 213.5 244.5 c 128,-1,4
 205 219 205 219 204 194 c 0,5,6
 203 168 203 168 209.5 143 c 128,-1,7
 216 118 216 118 238 98 c 128,-1,8
 260 78 260 78 336 52 c 1,9,10
 364 52 364 52 396.5 59 c 128,-1,11
 429 66 429 66 457 82 c 128,-1,12
 485 98 485 98 504.5 122.5 c 128,-1,13
 524 147 524 147 526 184 c 0,14,15
 527 199 527 199 524.5 216.5 c 128,-1,16
 522 234 522 234 514 250.5 c 128,-1,17
 506 267 506 267 494 281.5 c 128,-1,18
 482 296 482 296 463.5 307.5 c 128,-1,19
 445 319 445 319 420.5 326 c 128,-1,20
 396 333 396 333 364 334 c 0,0,1
193 14 m 1,21,-1
 114 11 l 1,22,-1
 114 15 l 1,23,-1
 111 15 l 1,24,-1
 113 272 l 1,25,-1
 112 416 l 1,26,-1
 16 417 l 1,27,-1
 17 481 l 1,28,-1
 114 477 l 1,29,-1
 114 479 l 1,30,-1
 202 476 l 1,31,-1
 199 321 l 1,32,33
 236 349 236 349 284.5 362.5 c 128,-1,34
 333 376 333 376 349 377 c 0,35,36
 407 377 407 377 456 362.5 c 128,-1,37
 505 348 505 348 540 320.5 c 128,-1,38
 575 293 575 293 592.5 256 c 128,-1,39
 610 219 610 219 605 176 c 256,40,41
 600 133 600 133 575.5 100 c 128,-1,42
 551 67 551 67 513.5 45.5 c 128,-1,43
 476 24 476 24 427.5 12.5 c 128,-1,44
 379 1 379 1 347 1 c 128,-1,45
 315 1 315 1 269.5 15 c 128,-1,46
 224 29 224 29 196 55 c 1,47,-1
 194 15 l 1,48,-1
 193 15 l 1,49,-1
 193 14 l 1,21,-1
EndSplineSet
Validated: 33
EndChar

StartChar: afii10093
Encoding: 1099 1099 258
Width: 750
GlyphClass: 2
Flags: W
LayerCount: 2
Fore
SplineSet
28 15 m 1,0,-1
 34 482 l 1,1,-1
 119 481 l 1,2,-1
 116 321 l 1,3,4
 153 349 153 349 201.5 362.5 c 128,-1,5
 250 376 250 376 266 377 c 0,6,7
 324 377 324 377 373 362.5 c 128,-1,8
 422 348 422 348 457 320.5 c 128,-1,9
 492 293 492 293 509.5 256 c 128,-1,10
 527 219 527 219 521 176 c 0,11,12
 517 133 517 133 492.5 100 c 128,-1,13
 468 67 468 67 430.5 45.5 c 128,-1,14
 393 24 393 24 344.5 12.5 c 128,-1,15
 296 1 296 1 264 1 c 128,-1,16
 232 1 232 1 186.5 15 c 128,-1,17
 141 29 141 29 113 55 c 1,18,-1
 111 15 l 1,19,-1
 28 15 l 1,0,-1
281 334 m 0,20,21
 266 336 266 336 227 323.5 c 128,-1,22
 188 311 188 311 163.5 290.5 c 128,-1,23
 139 270 139 270 130.5 244.5 c 128,-1,24
 122 219 122 219 121 194 c 0,25,26
 120 168 120 168 126.5 143 c 128,-1,27
 133 118 133 118 155 98 c 128,-1,28
 177 78 177 78 211.5 65.5 c 128,-1,29
 246 53 246 53 263.5 52.5 c 128,-1,30
 281 52 281 52 313.5 59 c 128,-1,31
 346 66 346 66 374 82 c 128,-1,32
 402 98 402 98 421.5 122.5 c 128,-1,33
 441 147 441 147 443 184 c 0,34,35
 444 199 444 199 441 216.5 c 128,-1,36
 438 234 438 234 430.5 250.5 c 128,-1,37
 423 267 423 267 411 281.5 c 128,-1,38
 399 296 399 296 380.5 307.5 c 128,-1,39
 362 319 362 319 337 326 c 128,-1,40
 312 333 312 333 281 334 c 0,20,21
573 459 m 1,41,-1
 557 11 l 1,42,-1
 664 10 l 1,43,-1
 673 460 l 1,44,-1
 573 459 l 1,41,-1
EndSplineSet
Validated: 41
EndChar

StartChar: afii10094
Encoding: 1100 1100 259
Width: 591
GlyphClass: 2
Flags: W
LayerCount: 2
Fore
SplineSet
28 15 m 1,0,-1
 34 482 l 1,1,-1
 119 481 l 1,2,-1
 116 321 l 1,3,4
 153 349 153 349 201.5 362.5 c 128,-1,5
 250 376 250 376 266 377 c 0,6,7
 324 377 324 377 373 362.5 c 128,-1,8
 422 348 422 348 457 320.5 c 128,-1,9
 492 293 492 293 509.5 256 c 128,-1,10
 527 219 527 219 521 176 c 0,11,12
 517 133 517 133 492.5 100 c 128,-1,13
 468 67 468 67 430.5 45.5 c 128,-1,14
 393 24 393 24 344.5 12.5 c 128,-1,15
 296 1 296 1 264 1 c 128,-1,16
 232 1 232 1 186.5 15 c 128,-1,17
 141 29 141 29 113 55 c 1,18,-1
 111 15 l 1,19,-1
 28 15 l 1,0,-1
281 334 m 0,20,21
 266 336 266 336 227 323.5 c 128,-1,22
 188 311 188 311 163.5 290.5 c 128,-1,23
 139 270 139 270 130.5 244.5 c 128,-1,24
 122 219 122 219 121 194 c 0,25,26
 120 168 120 168 126.5 143 c 128,-1,27
 133 118 133 118 155 98 c 128,-1,28
 177 78 177 78 211.5 65.5 c 128,-1,29
 246 53 246 53 263.5 52.5 c 128,-1,30
 281 52 281 52 313.5 59 c 128,-1,31
 346 66 346 66 374 82 c 128,-1,32
 402 98 402 98 421.5 122.5 c 128,-1,33
 441 147 441 147 443 184 c 0,34,35
 444 199 444 199 441 216.5 c 128,-1,36
 438 234 438 234 430.5 250.5 c 128,-1,37
 423 267 423 267 411 281.5 c 128,-1,38
 399 296 399 296 380.5 307.5 c 128,-1,39
 362 319 362 319 337 326 c 128,-1,40
 312 333 312 333 281 334 c 0,20,21
EndSplineSet
Validated: 33
EndChar

StartChar: afii10095
Encoding: 1101 1101 260
Width: 498
GlyphClass: 2
Flags: W
LayerCount: 2
Fore
SplineSet
19 467 m 1,0,1
 104 501 104 501 209 494 c 0,2,3
 244 490 244 490 278 481.5 c 128,-1,4
 312 473 312 473 342.5 455 c 128,-1,5
 373 437 373 437 397 408.5 c 128,-1,6
 421 380 421 380 440 338 c 1,7,8
 467 257 467 257 455.5 199 c 128,-1,9
 444 141 444 141 414.5 99 c 128,-1,10
 385 57 385 57 342 33.5 c 128,-1,11
 299 10 299 10 253 0 c 128,-1,12
 207 -10 207 -10 157 -7 c 128,-1,13
 107 -4 107 -4 68 11 c 0,14,15
 68 13 68 13 71 74 c 1,16,17
 148 49 148 49 198 49.5 c 128,-1,18
 248 50 248 50 284.5 70 c 128,-1,19
 321 90 321 90 348 119 c 128,-1,20
 375 148 375 148 382.5 174.5 c 128,-1,21
 390 201 390 201 393 221 c 0,22,23
 393 224 393 224 393 227 c 1,24,25
 361 227 361 227 243 228 c 0,26,27
 81 229 81 229 79 228 c 1,28,-1
 83 287 l 1,29,-1
 388 279 l 1,30,31
 378 315 378 315 356 340 c 0,32,33
 333 367 333 367 309 382.5 c 128,-1,34
 285 398 285 398 257 406 c 128,-1,35
 229 414 229 414 200 417 c 0,36,37
 106 422 106 422 20 385 c 1,38,-1
 19 467 l 1,0,1
EndSplineSet
Validated: 33
EndChar

StartChar: afii10096
Encoding: 1102 1102 261
Width: 825
GlyphClass: 2
Flags: W
LayerCount: 2
Fore
SplineSet
494 34 m 0,0,1
 521 33 521 33 545.5 41 c 128,-1,2
 570 49 570 49 594 63.5 c 128,-1,3
 618 78 618 78 635.5 98 c 128,-1,4
 653 118 653 118 664 140.5 c 128,-1,5
 675 163 675 163 679 186.5 c 128,-1,6
 683 210 683 210 684 233 c 0,7,8
 687 268 687 268 677 301.5 c 128,-1,9
 667 335 667 335 644 361.5 c 128,-1,10
 621 388 621 388 585.5 405.5 c 128,-1,11
 550 423 550 423 514 424 c 0,12,13
 490 426 490 426 455 415.5 c 128,-1,14
 420 405 420 405 390 382.5 c 128,-1,15
 360 360 360 360 339.5 324.5 c 128,-1,16
 319 289 319 289 318 240 c 0,17,18
 316 207 316 207 325.5 171.5 c 128,-1,19
 335 136 335 136 356.5 106 c 128,-1,20
 378 76 378 76 412 56 c 128,-1,21
 446 36 446 36 494 34 c 0,0,1
114 248 m 1,22,-1
 124 7 l 1,23,-1
 44 4 l 1,24,-1
 45 469 l 1,25,-1
 111 466 l 1,26,-1
 115 310 l 1,27,-1
 249 302 l 1,28,29
 256 322 256 322 267 341 c 0,30,31
 292 385 292 385 330.5 414.5 c 128,-1,32
 369 444 369 444 420 461.5 c 128,-1,33
 471 479 471 479 519 478 c 0,34,35
 558 478 558 478 606.5 460 c 128,-1,36
 655 442 655 442 692 410.5 c 128,-1,37
 729 379 729 379 751 336 c 128,-1,38
 773 293 773 293 771 241 c 0,39,40
 767 180 767 180 743.5 132.5 c 128,-1,41
 720 85 720 85 681 53 c 128,-1,42
 642 21 642 21 594 3.5 c 128,-1,43
 546 -14 546 -14 504 -14 c 0,44,45
 454 -15 454 -15 401 4.5 c 128,-1,46
 348 24 348 24 309.5 58 c 128,-1,47
 271 92 271 92 251 140 c 128,-1,48
 231 188 231 188 236 243 c 1,49,-1
 237 247 l 1,50,-1
 114 248 l 1,22,-1
EndSplineSet
Validated: 33
EndChar

StartChar: afii10097
Encoding: 1103 1103 262
Width: 637
GlyphClass: 2
Flags: W
LayerCount: 2
Fore
SplineSet
278 174 m 0,0,1
 334 172 334 172 373 183 c 128,-1,2
 412 194 412 194 437 211.5 c 128,-1,3
 462 229 462 229 470.5 250.5 c 128,-1,4
 479 272 479 272 480 292 c 0,5,6
 481 315 481 315 474.5 336 c 128,-1,7
 468 357 468 357 445.5 374 c 128,-1,8
 423 391 423 391 388.5 401.5 c 128,-1,9
 354 412 354 412 307 413 c 0,10,11
 278 414 278 414 245.5 407.5 c 128,-1,12
 213 401 213 401 184.5 387.5 c 128,-1,13
 156 374 156 374 136 353.5 c 128,-1,14
 116 333 116 333 114 302 c 0,15,16
 113 289 113 289 116 274 c 128,-1,17
 119 259 119 259 127 245 c 128,-1,18
 135 231 135 231 147 218.5 c 128,-1,19
 159 206 159 206 177.5 196.5 c 128,-1,20
 196 187 196 187 221 181 c 128,-1,21
 246 175 246 175 278 174 c 0,0,1
571 456 m 1,22,-1
 564 3 l 1,23,-1
 479 4 l 1,24,-1
 483 172 l 1,25,26
 446 146 446 146 397.5 133.5 c 128,-1,27
 349 121 349 121 294 120 c 0,28,29
 282 120 282 120 271 120 c 1,30,-1
 157 -18 l 1,31,-1
 97 30 l 1,32,-1
 186 133 l 1,33,-1
 188 133 l 1,34,35
 187 133 187 133 187 133 c 1,36,37
 138 147 138 147 103 172 c 128,-1,38
 68 197 68 197 50.5 232 c 128,-1,39
 33 267 33 267 38 307 c 0,40,41
 43 346 43 346 67.5 377 c 128,-1,42
 92 408 92 408 129.5 427.5 c 128,-1,43
 167 447 167 447 215.5 458 c 128,-1,44
 264 469 264 469 318 469 c 0,45,46
 367 469 367 469 412.5 455.5 c 128,-1,47
 458 442 458 442 486 418 c 1,48,-1
 488 456 l 1,49,-1
 571 456 l 1,22,-1
EndSplineSet
Validated: 37
EndChar

StartChar: afii10071
Encoding: 1105 1105 263
Width: 598
GlyphClass: 2
Flags: W
LayerCount: 2
Fore
SplineSet
558 221 m 1,0,1
 564 220 564 220 547.5 220 c 128,-1,2
 531 220 531 220 500.5 220 c 128,-1,3
 470 220 470 220 429 220 c 128,-1,4
 388 220 388 220 344 220 c 128,-1,5
 300 220 300 220 257.5 220 c 128,-1,6
 215 220 215 220 181 220 c 128,-1,7
 147 220 147 220 125.5 220 c 128,-1,8
 104 220 104 220 102 219 c 0,9,10
 107 189 107 189 121 164.5 c 128,-1,11
 135 140 135 140 154.5 122 c 128,-1,12
 174 104 174 104 197.5 91.5 c 128,-1,13
 221 79 221 79 243 74 c 0,14,15
 257 71 257 71 276.5 69.5 c 128,-1,16
 296 68 296 68 322.5 69.5 c 128,-1,17
 349 71 349 71 381.5 78 c 128,-1,18
 414 85 414 85 453 100 c 1,19,-1
 468 20 l 1,20,21
 439 6 439 6 402 -1 c 128,-1,22
 365 -8 365 -8 327.5 -8.5 c 128,-1,23
 290 -9 290 -9 256.5 -4 c 128,-1,24
 223 1 223 1 201 12 c 0,25,26
 174 24 174 24 148 39.5 c 128,-1,27
 122 55 122 55 100 77.5 c 128,-1,28
 78 100 78 100 61.5 130 c 128,-1,29
 45 160 45 160 38 199 c 0,30,31
 30 247 30 247 37 287 c 128,-1,32
 44 327 44 327 62 360 c 128,-1,33
 80 393 80 393 107 418 c 128,-1,34
 134 443 134 443 166.5 459.5 c 128,-1,35
 199 476 199 476 234.5 483.5 c 128,-1,36
 270 491 270 491 304 491 c 0,37,38
 366 489 366 489 414.5 468.5 c 128,-1,39
 463 448 463 448 495.5 412.5 c 128,-1,40
 528 377 528 377 544 328.5 c 128,-1,41
 560 280 560 280 558 221 c 1,0,1
472 269 m 1,42,43
 464 306 464 306 452.5 334 c 128,-1,44
 441 362 441 362 417 382 c 128,-1,45
 393 402 393 402 365.5 414.5 c 128,-1,46
 338 427 338 427 308 431 c 0,47,48
 271 437 271 437 235 428 c 128,-1,49
 199 419 199 419 170.5 398.5 c 128,-1,50
 142 378 142 378 124.5 347.5 c 128,-1,51
 107 317 107 317 106 281 c 1,52,-1
 472 269 l 1,42,43
275 559 m 0,53,54
 263 544 263 544 246.5 542.5 c 128,-1,55
 230 541 230 541 213 549 c 0,56,57
 197 558 197 558 193.5 575.5 c 128,-1,58
 190 593 190 593 198 607 c 0,59,60
 213 626 213 626 232 626.5 c 128,-1,61
 251 627 251 627 265 617 c 0,62,63
 280 604 280 604 282 589 c 128,-1,64
 284 574 284 574 275 559 c 0,53,54
374 598 m 0,65,66
 387 609 387 609 403.5 608 c 128,-1,67
 420 607 420 607 426 602 c 0,68,69
 439 593 439 593 442.5 579.5 c 128,-1,70
 446 566 446 566 438 553 c 0,71,72
 426 541 426 541 411 538 c 128,-1,73
 396 535 396 535 381 544 c 0,74,75
 367 552 367 552 364 567.5 c 128,-1,76
 361 583 361 583 374 598 c 0,65,66
EndSplineSet
Validated: 33
EndChar

StartChar: endash
Encoding: 8211 8211 264
Width: 320
GlyphClass: 2
Flags: W
LayerCount: 2
Fore
SplineSet
0 324 m 1,0,-1
 266 341 l 1,1,-1
 264 287 l 1,2,-1
 3 293 l 1,3,-1
 0 324 l 1,0,-1
EndSplineSet
EndChar

StartChar: emdash
Encoding: 8212 8212 265
Width: 411
GlyphClass: 2
Flags: W
LayerCount: 2
Fore
SplineSet
0 321 m 1,0,-1
 364 336 l 1,1,-1
 360 285 l 1,2,-1
 3 292 l 1,3,-1
 0 321 l 1,0,-1
EndSplineSet
EndChar

StartChar: quoteleft
Encoding: 8216 8216 266
Width: 117
GlyphClass: 2
Flags: W
LayerCount: 2
Fore
SplineSet
0 745 m 1,0,-1
 63 748 l 1,1,-1
 63 591 l 1,2,-1
 30 591 l 1,3,-1
 0 745 l 1,0,-1
EndSplineSet
Validated: 1
EndChar

StartChar: quoteright
Encoding: 8217 8217 267
Width: 116
GlyphClass: 2
Flags: W
LayerCount: 2
Fore
SplineSet
39 547 m 1,0,-1
 2 547 l 1,1,-1
 2 702 l 1,2,-1
 72 698 l 1,3,-1
 39 547 l 1,0,-1
EndSplineSet
Validated: 1
EndChar

StartChar: quotesinglbase
Encoding: 8218 8218 268
Width: 110
GlyphClass: 2
Flags: W
LayerCount: 2
Fore
SplineSet
33 -52 m 1,0,-1
 1 -52 l 1,1,-1
 1 98 l 1,2,-1
 61 94 l 1,3,-1
 33 -52 l 1,0,-1
EndSplineSet
Validated: 1
EndChar

StartChar: quotedblleft
Encoding: 8220 8220 269
Width: 171
GlyphClass: 2
Flags: W
LayerCount: 2
Fore
SplineSet
25 601 m 1,0,-1
 0 733 l 1,1,-1
 54 736 l 1,2,-1
 54 601 l 1,3,-1
 25 601 l 1,0,-1
67 748 m 1,4,-1
 119 736 l 1,5,-1
 105 626 l 1,6,-1
 76 626 l 1,7,-1
 67 748 l 1,4,-1
EndSplineSet
Validated: 1
EndChar

StartChar: quotedblright
Encoding: 8221 8221 270
Width: 169
GlyphClass: 2
Flags: W
LayerCount: 2
Fore
SplineSet
117 733 m 1,0,-1
 64 736 l 1,1,-1
 64 603 l 1,2,-1
 92 603 l 1,3,-1
 117 733 l 1,0,-1
0 736 m 1,4,-1
 14 628 l 1,5,-1
 42 628 l 1,6,-1
 51 748 l 1,7,-1
 0 736 l 1,4,-1
EndSplineSet
EndChar

StartChar: quotedblbase
Encoding: 8222 8222 271
Width: 150
GlyphClass: 2
Flags: W
LayerCount: 2
Fore
SplineSet
1 80 m 1,0,-1
 46 82 l 1,1,-1
 46 -29 l 1,2,-1
 22 -29 l 1,3,-1
 1 80 l 1,0,-1
100 82 m 1,4,-1
 87 -8 l 1,5,-1
 64 -8 l 1,6,-1
 55 93 l 1,7,-1
 100 82 l 1,4,-1
EndSplineSet
EndChar

StartChar: Euro
Encoding: 8364 8364 272
Width: 411
GlyphClass: 2
Flags: W
LayerCount: 2
Fore
SplineSet
359 92 m 1,0,1
 283 81 283 81 221 99 c 0,2,3
 195 106 195 106 169.5 120 c 128,-1,4
 144 134 144 134 123.5 157.5 c 128,-1,5
 103 181 103 181 89.5 216 c 128,-1,6
 76 251 76 251 73 299 c 1,7,-1
 34 301 l 1,8,-1
 32 331 l 1,9,-1
 72 335 l 2,10,11
 72 336 72 336 73 361 c 1,12,-1
 5 357 l 1,13,-1
 0 392 l 1,14,-1
 78 394 l 1,15,16
 87 456 87 456 109.5 495.5 c 128,-1,17
 132 535 132 535 160.5 557 c 128,-1,18
 189 579 189 579 220.5 586.5 c 128,-1,19
 252 594 252 594 279.5 592.5 c 128,-1,20
 307 591 307 591 327 583.5 c 128,-1,21
 347 576 347 576 353 569 c 1,22,-1
 338 515 l 1,23,24
 337 516 337 516 323.5 523 c 128,-1,25
 310 530 310 530 289.5 536 c 128,-1,26
 269 542 269 542 244.5 542 c 128,-1,27
 220 542 220 542 198.5 528.5 c 128,-1,28
 177 515 177 515 161.5 483 c 128,-1,29
 146 451 146 451 142 394 c 1,30,-1
 193 394 l 1,31,-1
 191 368 l 1,32,-1
 140 365 l 1,33,-1
 140 339 l 1,34,-1
 224 347 l 1,35,-1
 222 296 l 1,36,-1
 143 298 l 1,37,38
 148 247 148 247 164.5 218 c 128,-1,39
 181 189 181 189 202.5 176.5 c 128,-1,40
 224 164 224 164 247.5 161 c 128,-1,41
 271 158 271 158 291 161 c 128,-1,42
 311 164 311 164 324.5 167.5 c 128,-1,43
 338 171 338 171 338 172 c 1,44,-1
 359 92 l 1,0,1
EndSplineSet
Validated: 33
EndChar

StartChar: trademark
Encoding: 8482 8482 273
Width: 340
GlyphClass: 2
Flags: W
LayerCount: 2
Fore
SplineSet
1 700 m 1,0,-1
 127 699 l 1,1,-1
 126 687 l 1,2,-1
 66 687 l 1,3,-1
 78 554 l 1,4,-1
 57 553 l 1,5,-1
 53 688 l 1,6,-1
 2 689 l 1,7,-1
 1 700 l 1,0,-1
143 553 m 1,8,-1
 159 552 l 1,9,-1
 155 665 l 1,10,-1
 208 555 l 1,11,-1
 264 671 l 1,12,-1
 270 554 l 1,13,-1
 293 554 l 1,14,-1
 284 699 l 1,15,-1
 266 699 l 1,16,-1
 212 583 l 1,17,-1
 152 700 l 1,18,-1
 143 700 l 1,19,-1
 143 553 l 1,8,-1
EndSplineSet
Validated: 9
EndChar

StartChar: minus
Encoding: 8722 8722 274
Width: 320
GlyphClass: 2
Flags: W
LayerCount: 2
Fore
SplineSet
0 324 m 1,0,-1
 266 341 l 1,1,-1
 264 287 l 1,2,-1
 3 293 l 1,3,-1
 0 324 l 1,0,-1
EndSplineSet
Validated: 1
EndChar

StartChar: Gbreve
Encoding: 286 286 275
Width: 641
Flags: W
LayerCount: 2
Fore
SplineSet
586 628 m 1,0,1
 445 646 445 646 336 624 c 0,2,3
 289 615 289 615 245 596 c 128,-1,4
 201 577 201 577 166.5 544.5 c 128,-1,5
 132 512 132 512 111.5 464 c 128,-1,6
 91 416 91 416 93 348 c 0,7,8
 93 276 93 276 111.5 227 c 128,-1,9
 130 178 130 178 161 146.5 c 128,-1,10
 192 115 192 115 231 99.5 c 128,-1,11
 270 84 270 84 311 78 c 0,12,13
 407 65 407 65 530 96 c 1,14,-1
 527 196 l 1,15,-1
 317 183 l 1,16,-1
 319 252 l 1,17,-1
 583 251 l 1,18,-1
 583 27 l 1,19,20
 410 -10 410 -10 279 10 c 0,21,22
 223 19 223 19 170.5 41 c 128,-1,23
 118 63 118 63 79 104.5 c 128,-1,24
 40 146 40 146 19 211 c 128,-1,25
 -2 276 -2 276 6 370 c 0,26,27
 16 449 16 449 46 504.5 c 128,-1,28
 76 560 76 560 119 596.5 c 128,-1,29
 162 633 162 633 213.5 654 c 128,-1,30
 265 675 265 675 317 684 c 0,31,32
 439 706 439 706 589 680 c 1,33,-1
 586 628 l 1,0,1
494 815 m 5,34,35
 475 785 475 785 454 759 c 4,36,37
 436 738 436 738 411 720.5 c 132,-1,38
 386 703 386 703 354 703 c 4,39,40
 314 703 314 703 289.5 720.5 c 132,-1,41
 265 738 265 738 251 759 c 4,42,43
 234 785 234 785 225 815 c 5,44,-1
 262 820 l 5,45,46
 269 799 269 799 281 780 c 4,47,48
 293 764 293 764 308 748.5 c 132,-1,49
 323 733 323 733 349 729 c 4,50,51
 372 724 372 724 392 739 c 132,-1,52
 412 754 412 754 424 773 c 4,53,54
 438 794 438 794 450 822 c 5,55,-1
 494 815 l 5,56,-1
 494 815 l 5,34,35
EndSplineSet
Validated: 37
EndChar

StartChar: gbreve
Encoding: 287 287 276
Width: 600
Flags: W
LayerCount: 2
Fore
SplineSet
255 65 m 0,0,1
 301 59 301 59 339 72.5 c 128,-1,2
 377 86 377 86 402 111.5 c 128,-1,3
 427 137 427 137 439 171 c 128,-1,4
 451 205 451 205 452 240 c 0,5,6
 453 279 453 279 446.5 314 c 128,-1,7
 440 349 440 349 419.5 375.5 c 128,-1,8
 399 402 399 402 365.5 419 c 128,-1,9
 332 436 332 436 285 437 c 0,10,11
 253 439 253 439 219 432 c 128,-1,12
 185 425 185 425 156 406 c 128,-1,13
 127 387 127 387 107 353.5 c 128,-1,14
 87 320 87 320 84 270 c 0,15,16
 81 236 81 236 89.5 202 c 128,-1,17
 98 168 98 168 119 139.5 c 128,-1,18
 140 111 140 111 173.5 91 c 128,-1,19
 207 71 207 71 255 65 c 0,0,1
306 497 m 0,20,21
 334 494 334 494 356.5 487.5 c 128,-1,22
 379 481 379 481 397 473 c 128,-1,23
 415 465 415 465 428 458 c 128,-1,24
 441 451 441 451 449 446 c 1,25,-1
 448 476 l 1,26,-1
 551 476 l 1,27,28
 548 337 548 337 545 231.5 c 128,-1,29
 542 126 542 126 535 48 c 128,-1,30
 528 -30 528 -30 517 -83 c 128,-1,31
 506 -136 506 -136 480.5 -169 c 128,-1,32
 455 -202 455 -202 418.5 -217.5 c 128,-1,33
 382 -233 382 -233 339 -236 c 0,34,35
 302 -238 302 -238 264 -223 c 128,-1,36
 226 -208 226 -208 196 -172 c 1,37,-1
 241 -125 l 1,38,39
 253 -140 253 -140 263.5 -149.5 c 128,-1,40
 274 -159 274 -159 284 -166 c 128,-1,41
 294 -173 294 -173 305 -176.5 c 128,-1,42
 316 -180 316 -180 330 -182 c 0,43,44
 355 -185 355 -185 373.5 -174.5 c 128,-1,45
 392 -164 392 -164 404.5 -144 c 128,-1,46
 417 -124 417 -124 424.5 -98 c 128,-1,47
 432 -72 432 -72 436 -44.5 c 128,-1,48
 440 -17 440 -17 441.5 9.5 c 128,-1,49
 443 36 443 36 444 57 c 1,50,51
 428 43 428 43 408 33.5 c 128,-1,52
 388 24 388 24 366 18.5 c 128,-1,53
 344 13 344 13 319.5 11 c 128,-1,54
 295 9 295 9 269 8 c 0,55,56
 229 8 229 8 192.5 17 c 128,-1,57
 156 26 156 26 125.5 43.5 c 128,-1,58
 95 61 95 61 70.5 85 c 128,-1,59
 46 109 46 109 31 139 c 128,-1,60
 16 169 16 169 9 203.5 c 128,-1,61
 2 238 2 238 7 275 c 0,62,63
 14 331 14 331 40.5 374.5 c 128,-1,64
 67 418 67 418 107.5 447.5 c 128,-1,65
 148 477 148 477 199 490 c 128,-1,66
 250 503 250 503 306 497 c 0,20,21
446 665 m 1,67,68
 424 628 424 628 399 598 c 0,69,70
 376 573 376 573 347 552 c 128,-1,71
 318 531 318 531 279 531 c 0,72,73
 232 531 232 531 202.5 552 c 128,-1,74
 173 573 173 573 157 598 c 0,75,76
 137 628 137 628 126 665 c 1,77,-1
 171 670 l 1,78,79
 179 645 179 645 193 623 c 0,80,81
 207 603 207 603 225 585 c 128,-1,82
 243 567 243 567 273 562 c 0,83,84
 301 556 301 556 325 574 c 128,-1,85
 349 592 349 592 363 614 c 0,86,87
 379 640 379 640 393 673 c 1,88,-1
 446 665 l 1,89,-1
 446 665 l 1,67,68
EndSplineSet
Validated: 37
EndChar

StartChar: Idotaccent
Encoding: 304 304 277
Width: 240
Flags: W
LayerCount: 2
Fore
SplineSet
74 700 m 1,0,-1
 155 699 l 1,1,-1
 118 0 l 1,2,-1
 53 1 l 1,3,-1
 74 700 l 1,0,-1
163 767 m 4,4,5
 151 752 151 752 134.5 750.5 c 132,-1,6
 118 749 118 749 101 757 c 4,7,8
 85 766 85 766 81.5 783.5 c 132,-1,9
 78 801 78 801 86 815 c 4,10,11
 101 834 101 834 120 834.5 c 132,-1,12
 139 835 139 835 153 825 c 4,13,14
 168 812 168 812 170 797 c 132,-1,15
 172 782 172 782 163 767 c 4,4,5
EndSplineSet
Validated: 33
EndChar

StartChar: dotlessi
Encoding: 305 305 278
Width: 237
Flags: W
LayerCount: 2
Fore
SplineSet
159 450 m 1,0,-1
 150 0 l 1,1,-1
 43 1 l 1,2,-1
 59 449 l 1,3,-1
 159 450 l 1,0,-1
EndSplineSet
Validated: 1
EndChar

StartChar: Scedilla
Encoding: 350 350 279
Width: 441
Flags: W
LayerCount: 2
Fore
SplineSet
72 139 m 1,0,1
 78 132 78 132 92 120.5 c 128,-1,2
 106 109 106 109 124 97.5 c 128,-1,3
 142 86 142 86 163.5 76.5 c 128,-1,4
 185 67 185 67 206.5 63.5 c 128,-1,5
 228 60 228 60 247.5 64.5 c 128,-1,6
 267 69 267 69 282 86 c 0,7,8
 300 107 300 107 294.5 131 c 128,-1,9
 289 155 289 155 269.5 183 c 128,-1,10
 250 211 250 211 219.5 242 c 128,-1,11
 189 273 189 273 156 307 c 128,-1,12
 123 341 123 341 91.5 378 c 128,-1,13
 60 415 60 415 39 454.5 c 128,-1,14
 18 494 18 494 10.5 535.5 c 128,-1,15
 3 577 3 577 18 621 c 0,16,17
 29 654 29 654 61 671.5 c 128,-1,18
 93 689 93 689 133.5 695 c 128,-1,19
 174 701 174 701 218.5 699 c 128,-1,20
 263 697 263 697 300 692 c 128,-1,21
 337 687 337 687 360.5 681 c 128,-1,22
 384 675 384 675 384 674 c 2,23,-1
 381 604 l 2,24,25
 381 603 381 603 364 610 c 128,-1,26
 347 617 347 617 320.5 625 c 128,-1,27
 294 633 294 633 261.5 639 c 128,-1,28
 229 645 229 645 197.5 643 c 128,-1,29
 166 641 166 641 140 628.5 c 128,-1,30
 114 616 114 616 100 586 c 0,31,32
 83 549 83 549 92.5 511 c 128,-1,33
 102 473 102 473 126.5 434.5 c 128,-1,34
 151 396 151 396 186.5 357.5 c 128,-1,35
 222 319 222 319 257 282.5 c 128,-1,36
 292 246 292 246 321.5 211.5 c 128,-1,37
 351 177 351 177 364.5 145.5 c 128,-1,38
 378 114 378 114 370.5 87 c 128,-1,39
 363 60 363 60 324 38 c 0,40,41
 292 20 292 20 258.5 16.5 c 132,-1,42
 225 13 225 13 192.5 18.5 c 132,-1,43
 160 24 160 24 131.5 35.5 c 128,-1,44
 103 47 103 47 81 59 c 128,-1,45
 59 71 59 71 46.5 79.5 c 128,-1,46
 34 88 34 88 34 89 c 2,47,-1
 72 139 l 1,0,1
190 20 m 5,48,-1
 243 20 l 5,49,50
 238 12 238 12 234 5 c 4,51,52
 231 -1 231 -1 230.5 -8 c 132,-1,53
 230 -15 230 -15 235 -20 c 4,54,55
 239 -25 239 -25 247.5 -26 c 132,-1,56
 256 -27 256 -27 265 -28.5 c 132,-1,57
 274 -30 274 -30 282.5 -34 c 132,-1,58
 291 -38 291 -38 297 -49 c 260,59,60
 303 -60 303 -60 298 -72.5 c 132,-1,61
 293 -85 293 -85 278 -96 c 132,-1,62
 263 -107 263 -107 236.5 -114.5 c 132,-1,63
 210 -122 210 -122 172 -122 c 4,64,65
 171 -122 171 -122 172 -83 c 5,66,67
 199 -87 199 -87 220 -86 c 4,68,69
 238 -85 238 -85 253.5 -79.5 c 132,-1,70
 269 -74 269 -74 270 -57 c 4,71,72
 271 -44 271 -44 263 -41.5 c 132,-1,73
 255 -39 255 -39 243.5 -39.5 c 132,-1,74
 232 -40 232 -40 220 -40 c 132,-1,75
 208 -40 208 -40 202 -33 c 4,76,77
 196 -27 196 -27 193.5 -17.5 c 132,-1,78
 191 -8 191 -8 190 20 c 5,48,-1
EndSplineSet
Validated: 37
EndChar

